<?xml version="1.0" encoding="utf-8"?>
<!-- Generator: Adobe Illustrator 24.1.2, SVG Export Plug-In . SVG Version: 6.00 Build 0)  -->
<svg version="1.2" baseProfile="tiny" id="Layer_2" xmlns="http://www.w3.org/2000/svg" xmlns:xlink="http://www.w3.org/1999/xlink"
	 x="0px" y="0px" viewBox="0 0 454.6 303.9" overflow="visible" xml:space="preserve">
<g>
	<polyline fill="none" stroke="#002060" stroke-width="24" stroke-miterlimit="10" points="38,20.2 38,266.5 434.4,266.5 	"/>
	<g>
		<polygon fill="#002060" points="61.4,23.3 14.7,23.3 38,0 		"/>
	</g>
	<g>
		<polygon fill="#002060" points="431.3,243.2 431.3,289.8 454.6,266.5 		"/>
	</g>
</g>
<rect x="183.6" y="23.7" fill="#4D8AD3" width="125.1" height="68.6"/>
<rect x="63.6" y="23.7" fill="#8EB4E3" width="107" height="68.6"/>
<rect x="63.6" y="102.3" fill="#C6D9F1" width="107" height="68.6"/>
<rect x="63.6" y="180.8" fill="#C6D9F1" width="107" height="68.6"/>
<rect x="183.6" y="102.3" fill="#8EB4E3" width="125.1" height="68.6"/>
<rect x="183.6" y="180.8" fill="#C6D9F1" width="125.1" height="68.6"/>
<rect x="318.6" y="23.7" fill="#4D8AD3" width="107.1" height="68.6"/>
<rect x="318.6" y="102.3" fill="#4D8AD3" width="107.1" height="68.6"/>
<rect x="318.6" y="180.8" fill="#8EB4E3" width="107.1" height="68.6"/>
<g>
	<path d="M7.4,76L7,76.5c-0.9-1-1.7-1.7-2.4-2.3V80H3.9v-5.9c-0.9,1.6-1.8,2.8-2.7,3.6l-0.4-0.6c0.4-0.4,0.8-0.9,1.2-1.4
		c0.4-0.5,0.8-1.2,1.2-1.9c0.4-0.8,0.7-1.2,0.7-1.2v-0.1h-3v-0.6h3V70c-0.8,0.1-1.6,0.2-2.4,0.3l-0.3-0.7c2.1-0.2,3.8-0.5,5.3-1
		L7,69.3c-0.7,0.2-1.5,0.5-2.4,0.6v2h2.5v0.6H4.6v0.9C5.6,74.1,6.5,74.9,7.4,76z M8.9,77.6H8.3v-8.1h0.7V77.6z M11.9,78.7
		c0,0.5-0.2,0.9-0.5,1C11.1,79.9,10.6,80,10,80H9l-0.3-0.7c0.6,0,1.1,0,1.5,0c0.3,0,0.6,0,0.6,0c0.1,0,0.2-0.1,0.2-0.1
		s0.1-0.2,0.1-0.3V68.7h0.7V78.7z"/>
	<path d="M12.2,93.9H0.9v-0.6h5.4v-1.1H2.1v-0.6h4.1v-1c-1,0.1-2.1,0.1-3.3,0.1l-0.2-0.6c1.2,0,2.3,0,3.5-0.1v-0.8h0.6v0.8
		c1-0.1,2.1-0.2,3.2-0.5l0.4,0.6c-1.1,0.2-2.2,0.4-3.6,0.5v1.1H11v0.6H6.9v1.1h5.4V93.9z M11.7,90.2H11v-1.7H2.1v1.6H1.5v-2.2h4.9
		C6.2,87.5,6.1,87.2,6,87l0.7-0.2c0.2,0.4,0.4,0.8,0.4,1.1h4.7V90.2z M10.7,98.2H10v-0.6h-7v0.6H2.4v-3.3h8.3V98.2z M10,97v-1.4h-7
		V97H10z"/>
	<path d="M6,108.8H2.1v7.6H1.5v-11H6V108.8z M5.3,106.8V106H2.1v0.8H5.3z M5.3,108.2v-0.8H2.1v0.8H5.3z M6.4,112.3l-0.5,0.3
		l-0.2-0.4L3,112.6L2.8,112c0.4-0.2,1-0.6,1.6-1.2L2.9,111l-0.2-0.5c0.7-0.4,1.3-1,1.7-1.5l0.6,0.3c-0.4,0.4-0.8,0.8-1.2,1.1
		l1.2-0.2c0.2-0.2,0.4-0.4,0.6-0.6l0.6,0.3c-1,1-1.8,1.7-2.3,2.1l1.4-0.2c-0.1-0.2-0.2-0.3-0.3-0.4l0.5-0.2
		C5.9,111.5,6.2,111.9,6.4,112.3z M5.9,113.5c0,0.9-0.2,1.5-0.5,1.9c-0.3,0.4-0.9,0.7-1.7,0.9l-0.4-0.6c1.1-0.2,1.8-0.7,1.9-1.3h-2
		v-1.5h0.6v1h1.4c0-0.1,0-0.3,0-0.5v-0.6h0.6V113.5z M10.5,112.3l-0.5,0.3c-0.1-0.2-0.2-0.3-0.3-0.4l-3.1,0.3l-0.1-0.5
		c0.4-0.2,0.9-0.6,1.5-1.1L6.6,111l-0.2-0.5c0.7-0.4,1.2-0.9,1.7-1.5l0.6,0.3c-0.3,0.4-0.7,0.7-1.1,1.1l1.1-0.1
		c0.1-0.1,0.3-0.3,0.6-0.5l0.5,0.3c-0.5,0.6-1.2,1.2-2.1,1.9l1.6-0.1c-0.1-0.1-0.2-0.3-0.4-0.4l0.5-0.3
		C9.9,111.3,10.2,111.8,10.5,112.3z M9.6,114.4H7.5v1.8H6.9v-3.4h0.6v1H9v-1h0.6V114.4z M11.6,115.7c0,0.2-0.1,0.4-0.2,0.6
		s-0.3,0.2-0.5,0.2c-0.7,0-1.1,0-1.2,0l-0.3-0.7c0.3,0,0.6,0,0.8,0c0.4,0,0.6,0,0.7-0.1c0.1,0,0.1-0.1,0.1-0.2v-6.7H7.1v-3.4h4.5
		V115.7z M11,106.8V106H7.8v0.8H11z M11,108.2v-0.8H7.8v0.8H11z"/>
	<path d="M4.2,123.5c-0.2,0.5-0.4,1-0.7,1.6l-0.4,0.9v8.7H2.4v-7.5c-0.4,0.7-0.8,1.3-1.3,1.8l-0.4-0.6c1-1.2,1.9-2.9,2.8-5.2
		L4.2,123.5z M6.6,131.8c-0.8,1-1.7,1.7-2.6,2.3l-0.5-0.5c0.8-0.5,1.7-1.2,2.6-2.2L6.6,131.8z M8.5,123.5c-1.4,1.4-2.9,2.5-4.4,3.2
		l-0.5-0.5c1.4-0.6,2.9-1.6,4.3-3L8.5,123.5z M12,130.7l-0.6,0.4c-0.1-0.3-0.2-0.5-0.4-0.8c-1.1,0.2-2,0.3-2.7,0.3v3.2
		c0,0.2-0.1,0.4-0.2,0.5s-0.2,0.2-0.4,0.3c-0.1,0.1-0.4,0.1-0.8,0.1c-0.2,0-0.3,0-0.5,0L6.2,134l1.1,0c0.1,0,0.2,0,0.3-0.1
		c0.1-0.1,0.1-0.2,0.1-0.3v-2.9c-1.2,0.1-2.4,0.2-3.4,0.3l-0.2-0.6c1.2-0.5,2.5-1.2,4-2.2c-1.3,0.1-2.5,0.2-3.4,0.3l-0.2-0.6
		c1.6-0.9,3.1-2,4.5-3.4l0.6,0.4c-1.2,1.1-2.4,2.1-3.7,2.8l0.6,0l2.7-0.3c0.1,0,0.3-0.2,0.7-0.5c0.2-0.2,0.4-0.4,0.7-0.5l0.5,0.4
		c-1.7,1.3-3.4,2.5-5.2,3.4c1.9-0.2,3.5-0.4,4.8-0.6c-0.2-0.3-0.4-0.6-0.6-1l0.6-0.4C11.1,129.1,11.6,129.9,12,130.7z M12.3,133.7
		l-0.5,0.5c-0.7-0.8-1.4-1.6-2.4-2.3l0.4-0.5C10.9,132.1,11.7,132.9,12.3,133.7z"/>
	<path d="M12.2,152.3l-0.5,0.5c-2.7-1.9-4.4-4.5-5.2-7.9c-0.6,3-2.3,5.6-5.2,7.8l-0.5-0.6c1-0.7,1.9-1.5,2.7-2.5s1.4-2.1,1.9-3.3
		c0.4-1.2,0.7-2.9,0.7-4.9h0.7c0,2.4,0.5,4.5,1.4,6.4C9.3,149.7,10.6,151.2,12.2,152.3z"/>
	<path d="M6,163.4H2.1v7.6H1.5v-11H6V163.4z M5.3,161.4v-0.8H2.1v0.8H5.3z M5.3,162.8V162H2.1v0.8H5.3z M6.4,166.9l-0.5,0.3
		l-0.2-0.4L3,167.2l-0.2-0.5c0.4-0.2,1-0.6,1.6-1.2l-1.5,0.2l-0.2-0.5c0.7-0.4,1.3-1,1.7-1.5l0.6,0.3c-0.4,0.4-0.8,0.8-1.2,1.1
		l1.2-0.2c0.2-0.2,0.4-0.4,0.6-0.6l0.6,0.3c-1,1-1.8,1.7-2.3,2.1l1.4-0.2c-0.1-0.2-0.2-0.3-0.3-0.4l0.5-0.2
		C5.9,166.1,6.2,166.5,6.4,166.9z M5.9,168.1c0,0.9-0.2,1.5-0.5,1.9c-0.3,0.4-0.9,0.7-1.7,0.9l-0.4-0.6c1.1-0.2,1.8-0.7,1.9-1.3h-2
		v-1.5h0.6v1h1.4c0-0.1,0-0.3,0-0.5v-0.6h0.6V168.1z M10.5,166.9l-0.5,0.3c-0.1-0.2-0.2-0.3-0.3-0.4L6.7,167l-0.1-0.5
		c0.4-0.2,0.9-0.6,1.5-1.1l-1.5,0.1l-0.2-0.5c0.7-0.4,1.2-0.9,1.7-1.5l0.6,0.3c-0.3,0.4-0.7,0.7-1.1,1.1l1.1-0.1
		c0.1-0.1,0.3-0.3,0.6-0.5l0.5,0.3c-0.5,0.6-1.2,1.2-2.1,1.9l1.6-0.1c-0.1-0.1-0.2-0.3-0.4-0.4l0.5-0.3
		C9.9,165.9,10.2,166.4,10.5,166.9z M9.6,169H7.5v1.8H6.9v-3.4h0.6v1H9v-1h0.6V169z M11.6,170.3c0,0.2-0.1,0.4-0.2,0.6
		s-0.3,0.2-0.5,0.2c-0.7,0-1.1,0-1.2,0l-0.3-0.7c0.3,0,0.6,0,0.8,0c0.4,0,0.6,0,0.7-0.1c0.1,0,0.1-0.1,0.1-0.2v-6.7H7.1V160h4.5
		V170.3z M11,161.4v-0.8H7.8v0.8H11z M11,162.8V162H7.8v0.8H11z"/>
	<path d="M3.3,182.2c-0.5,2.4-1.1,4.2-1.8,5.6l-0.6-0.4c0.7-1.3,1.3-3.1,1.8-5.4L3.3,182.2z M9.7,185.5c-0.1,0.8-0.1,1.5-0.2,2.1
		c-0.1,0.5-0.2,0.9-0.3,1.1s-0.3,0.3-0.5,0.3s-0.7,0.1-1.5,0.1c-0.6,0-1.1,0-1.5,0c-0.4,0-0.7-0.1-0.9-0.3c-0.2-0.2-0.3-0.4-0.3-0.7
		v-7.2h0.7v7c0,0.1,0,0.2,0.1,0.3s0.1,0.1,0.2,0.2s0.4,0,1,0l1.7,0c0.1,0,0.3-0.1,0.4-0.2c0.1-0.1,0.2-0.5,0.3-1.1s0.1-1.2,0.1-1.8
		L9.7,185.5z M8.5,181.3l-0.6,0.5c-0.7-1.2-1.6-2.4-2.9-3.5l0.5-0.5C6.7,178.9,7.7,180.1,8.5,181.3z M12.2,187l-0.7,0.3
		c-0.3-1.4-1-3.1-2-4.9l0.6-0.4C11.1,183.9,11.8,185.6,12.2,187z"/>
	<path d="M5.3,202.5L4.8,203c-0.3-0.6-0.7-1.1-1.1-1.6v6H3v-6c-0.6,1.4-1.2,2.5-1.8,3.2l-0.5-0.5c0.9-1.2,1.6-2.6,2.2-4.2H0.9v-0.7
		H3v-1.9l-1.6,0.3L1.1,197c1.5-0.2,2.8-0.5,3.8-0.9l0.4,0.6c-0.6,0.2-1.1,0.4-1.5,0.5v2.1h1.5v0.7H3.7v0.5
		C4.5,201.3,5,202,5.3,202.5z M12.2,207.1H4.9v-0.6h3.3v-2H5.3v-0.7h2.9V202c-1.4,0.1-2.2,0.1-2.6,0.1l-0.3-0.7
		c2.4,0,4.5-0.3,6.2-0.7l0.4,0.6c-0.9,0.2-1.9,0.4-3.1,0.5v2h2.8v0.7H8.9v2h3.3V207.1z M11.4,200H5.8v-3.5h5.6V200z M10.7,199.3
		v-2.2H6.5v2.2H10.7z"/>
	<path d="M12.1,216H2.7v3.6c0,2.4-0.5,4.3-1.4,5.8L0.7,225c0.9-1.4,1.4-3.4,1.4-6.1v-3.6h4.8c-0.2-0.4-0.4-0.7-0.6-1l0.8-0.2
		c0.3,0.4,0.5,0.8,0.7,1.2h4.4V216z M12.4,225.1l-0.4,0.6c-1.8-0.3-3.2-0.7-4.4-1.2c-1.3,0.6-2.9,1-4.8,1.2l-0.3-0.7
		c1.9-0.1,3.3-0.4,4.4-0.9c-1-0.6-1.8-1.4-2.3-2.4H4V221h6.6v0.7c-0.5,1-1.3,1.8-2.2,2.4C9.3,224.5,10.6,224.8,12.4,225.1z
		 M12.1,218.1H9.8v2.1H5.2v-2.1h-2v-0.6h2v-1.1h0.7v1.1h3.3v-1.1h0.7v1.1h2.2V218.1z M9.7,221.7H5.3c0.6,0.9,1.3,1.6,2.3,2
		C8.5,223.1,9.3,222.5,9.7,221.7z M9.2,219.5v-1.5H5.8v1.5H9.2z"/>
</g>
<g>
	<path d="M147.1,300.1c-1.7,0.3-3.7,0.6-6.1,0.8l-0.2-0.7c0.9-0.1,1.9-0.1,2.9-0.2v-1.7h-2.5v-0.7h2.5v-1.5H141v-0.6h1.7
		c-0.2-0.7-0.4-1.2-0.7-1.7H141v-0.6h1.9v-3.3h0.7v3.3h1.1v-3.3h0.7v3.3h1.7v0.6h-1c-0.2,0.6-0.4,1.2-0.7,1.7h1.5v0.6h-2.5v1.5h2.2
		v0.7h-2.2v1.7c0.8-0.1,1.7-0.2,2.7-0.4V300.1z M142.4,292.3l-0.6,0.3c-0.2-0.7-0.5-1.4-0.8-2l0.5-0.3
		C141.9,290.9,142.1,291.6,142.4,292.3z M145.3,293.7h-2.5c0.2,0.5,0.4,1.1,0.6,1.7h1.2C144.9,294.7,145.2,294.1,145.3,293.7z
		 M147.5,290.5c-0.3,0.8-0.6,1.5-1,2.1l-0.5-0.3c0.5-0.8,0.8-1.5,1-2L147.5,290.5z M152.1,293.3h-1.2v6.7c0,0.3-0.1,0.5-0.2,0.7
		s-0.3,0.3-0.5,0.4c-0.2,0.1-0.6,0.1-1.1,0.1c-0.3,0-0.6,0-0.8,0l-0.3-0.7c0.5,0,1,0,1.7,0c0.4,0,0.5-0.2,0.5-0.5v-6.6h-2.8v-0.7
		h2.8v-2.8h0.7v2.8h1.2V293.3z M149.4,297.7l-0.6,0.3c-0.3-1-0.8-2.1-1.3-3.1l0.6-0.3C148.5,295.4,148.9,296.4,149.4,297.7z"/>
	<path d="M161.6,290c-0.8,2.4-2.1,4.3-4.1,5.7l-0.5-0.5c1.9-1.3,3.2-3.1,4-5.4L161.6,290z M167.5,300.9l-0.6,0.3
		c-0.3-0.7-0.5-1.2-0.8-1.7c-2.5,0.6-4.9,1.1-7.3,1.3l-0.2-0.7c1.3-1.6,2.6-3.8,3.8-6.7l0.7,0.3c-1.1,2.6-2.2,4.7-3.4,6.3
		c1.7-0.1,3.7-0.5,6.2-1.1c-0.4-0.7-0.9-1.5-1.6-2.4l0.6-0.4C165.9,297.9,166.9,299.5,167.5,300.9z M168.5,295.1l-0.4,0.6
		c-1.6-1-2.8-2.7-3.7-5h-0.9v-0.7h1.4C165.6,292.3,166.8,294,168.5,295.1z"/>
	<path d="M184,300.2c0,0.3-0.1,0.6-0.3,0.7c-0.2,0.2-0.7,0.2-1.5,0.2c-0.4,0-0.8,0-1.4-0.1l-0.2-0.7c0.7,0.1,1.3,0.1,1.7,0.1
		c0.4,0,0.7,0,0.8-0.1c0.1-0.1,0.2-0.2,0.2-0.4v-9.3h-10V290H184V300.2z M182,293.1h-8.2l0-0.7h8.2V293.1z M181.1,298.7h-6.5v-3.9
		h6.5V298.7z M180.4,298v-2.6h-5.1v2.6H180.4z"/>
	<path d="M201,300.3l-0.3,0.7h-4.8c-1.4,0-2.4-0.4-3.1-1.2c-0.8,0.5-1.7,0.9-2.7,1.4l-0.4-0.6c2.5-1.1,4.4-2.3,5.8-3.5
		c1.4-1.2,2.7-2.7,3.9-4.5h-9v-0.7h5c-0.2-0.6-0.6-1.2-1-1.8l0.7-0.3c0.5,0.8,0.8,1.5,1.1,2.1h4.1v0.7c-1.8,2.9-4,5.2-6.7,6.8
		c0.5,0.6,1.4,0.9,2.5,0.9H201z"/>
	<path d="M208.6,293l-0.7,1.5v6.7h-0.6v-5.6c-0.4,0.6-0.7,1-1,1.4l-0.4-0.5c0.9-1.1,1.7-2.4,2.3-3.8L208.6,293z M208.6,290
		c-0.7,1.2-1.5,2.1-2.3,2.9l-0.5-0.5c0.9-0.8,1.6-1.7,2.3-2.8L208.6,290z M214,299.9c-2.1,0.4-3.9,0.7-5.4,0.9l-0.2-0.6
		c0.7-0.1,1.6-0.2,2.6-0.3v-1.2h-2.2V298h2.2v-0.9h-2v-3.7h2v-0.9h-2.2v-0.6h2.2v-1l-1.9,0.2l-0.2-0.6c1.7,0,3.2-0.2,4.4-0.6
		l0.3,0.5c-0.6,0.2-1.2,0.3-2,0.4v1.1h2.2v0.6h-2.2v0.9h2v3.7h-2v0.9h2.2v0.6h-2.2v1.1c0.6-0.1,1.4-0.2,2.3-0.4V299.9z M211.1,295
		v-0.9h-1.4v0.9H211.1z M211.1,296.5v-0.9h-1.4v0.9H211.1z M213.1,295v-0.9h-1.4v0.9H213.1z M213.1,296.5v-0.9h-1.4v0.9H213.1z
		 M217.1,294.2h-1v6c0,0.4-0.1,0.6-0.3,0.7c-0.2,0.1-0.5,0.2-1,0.2c-0.2,0-0.5,0-0.8,0l-0.2-0.6c0.4,0,0.7,0,1,0
		c0.4,0,0.7-0.1,0.7-0.4v-5.9h-1.2v-0.6h2.9V294.2z M216.8,290.8h-2.5v-0.6h2.5V290.8z"/>
	<path d="M227.9,294.7h-2.5v0.9h1.6v-0.5h0.6v1h-5v-1h0.6v0.5h1.6v-0.9h-2.7v-0.5h2.7v-0.5h-2.2v-2.4h2.2v-0.5h-2.6v-0.5h2.6v-0.4
		h0.6v0.4h2.5v0.5h-2.5v0.5h2.2v2.4h-2.2v0.5h2.5V294.7z M233.4,299.7h-5v0.5c0,0.4-0.1,0.6-0.3,0.7s-0.6,0.2-1.2,0.2h-0.7l-0.3-0.6
		l1.4,0c0.2,0,0.3-0.1,0.3-0.3v-0.4h-5.6v-0.6h5.6v-0.7h-4.8v-0.6h4.8v-0.7c-0.9,0-2.3,0.1-4.3,0.1l-0.2-0.6
		c3.6,0.1,6.5-0.1,8.6-0.5l0.3,0.5c-1.3,0.2-2.5,0.3-3.8,0.4v0.8h4.3v0.6h-4.3v0.7h5V299.7z M224.8,293.2v-0.5h-1.5v0.5H224.8z
		 M224.8,292.2v-0.5h-1.5v0.5H224.8z M227,292.2v-0.5h-1.6v0.5H227z M227,293.2v-0.5h-1.6v0.5H227z M233.4,295.7l-0.3,0.6
		c-1.1-0.3-1.9-0.6-2.4-0.9c-0.7,0.4-1.5,0.6-2.5,0.8l-0.3-0.5c1.1-0.2,1.8-0.4,2.2-0.7c-0.5-0.4-0.9-0.9-1.3-1.5h-0.4v-0.6h4.4v0.6
		c-0.5,0.6-1,1.2-1.6,1.6C231.9,295.3,232.6,295.6,233.4,295.7z M233.3,292.2h-1.3c-0.5,0-0.8-0.2-0.8-0.7v-0.8h-1.6
		c-0.1,0.9-0.6,1.5-1.4,1.9l-0.4-0.5c0.9-0.4,1.3-1,1.2-2h2.8v1.4c0,0,0,0.1,0.1,0.1s0.1,0.1,0.1,0.1h1.2V292.2z M232.1,293.4h-2.6
		c0.3,0.5,0.7,0.9,1.2,1.2C231.3,294.3,231.8,293.9,232.1,293.4z"/>
	<path d="M242.7,296.2l-0.5,0.5c-0.3-0.6-0.7-1.1-1.1-1.6v6h-0.7v-6c-0.6,1.4-1.2,2.5-1.8,3.2l-0.5-0.5c0.8-1.2,1.6-2.6,2.2-4.2
		h-2.1V293h2.1V291l-1.6,0.3l-0.3-0.6c1.5-0.2,2.8-0.5,3.8-0.9l0.4,0.6c-0.6,0.2-1.1,0.4-1.5,0.5v2.1h1.5v0.7h-1.5v0.5
		C241.9,295,242.5,295.7,242.7,296.2z M249.6,300.8h-7.3v-0.6h3.3v-2h-2.9v-0.7h2.9v-1.9c-1.4,0.1-2.2,0.1-2.6,0.1l-0.3-0.7
		c2.4,0,4.5-0.3,6.2-0.7l0.4,0.6c-0.9,0.2-1.9,0.4-3.1,0.5v2h2.8v0.7h-2.8v2h3.3V300.8z M248.8,293.7h-5.6v-3.5h5.6V293.7z
		 M248.1,293v-2.2h-4.2v2.2H248.1z"/>
	<path d="M265.7,291.5h-9.4v3.6c0,2.4-0.5,4.3-1.4,5.8l-0.6-0.4c0.9-1.4,1.4-3.4,1.4-6.1v-3.6h4.8c-0.2-0.4-0.4-0.7-0.6-1l0.8-0.2
		c0.3,0.4,0.5,0.8,0.7,1.2h4.4V291.5z M266,300.6l-0.4,0.6c-1.8-0.3-3.2-0.7-4.4-1.2c-1.3,0.6-2.9,1-4.8,1.2l-0.3-0.7
		c1.9-0.1,3.3-0.4,4.4-0.9c-1-0.6-1.8-1.4-2.3-2.4h-0.5v-0.7h6.6v0.7c-0.5,1-1.3,1.8-2.2,2.4C262.9,300,264.3,300.3,266,300.6z
		 M265.7,293.6h-2.2v2.1h-4.7v-2.1h-2v-0.6h2v-1.1h0.7v1.1h3.3v-1.1h0.7v1.1h2.2V293.6z M263.4,297.2h-4.5c0.6,0.9,1.3,1.6,2.3,2
		C262.2,298.7,262.9,298,263.4,297.2z M262.8,295v-1.5h-3.3v1.5H262.8z"/>
</g>
<g>
	<path d="M338.1,41.5h-3.7v-3.8h3.7V41.5z"/>
	<path d="M341.9,42.2c-0.1,1-0.3,2-0.6,3l-1-0.5c0.3-1.1,0.5-2.1,0.6-2.8L341.9,42.2z M344.9,35.9c-0.8,1.7-1.7,3.2-2.9,4.4
		c0.5-0.1,1-0.2,1.5-0.3c0-0.2-0.1-0.4-0.2-0.6l0.9-0.3c0.3,0.7,0.5,1.4,0.6,2.2l-0.9,0.3c0-0.2-0.1-0.4-0.1-0.6
		c-1.1,0.3-2.2,0.5-3.2,0.7l-0.3-0.9c0.7-0.6,1.4-1.5,2.2-2.7c-0.6,0.1-1.2,0.2-1.8,0.3l-0.3-1c0.8-0.9,1.4-2.1,1.9-3.5l1.1,0.4
		c-0.5,1.2-1,2.1-1.6,2.9c0.3,0,0.8-0.1,1.4-0.3c0.2-0.3,0.4-0.7,0.7-1.4L344.9,35.9z M343.5,44.6l-1,0.2c0-0.6-0.1-1.4-0.3-2.6
		l0.9-0.2C343.3,42.9,343.5,43.8,343.5,44.6z M344.8,43.5l-0.9,0.2c-0.1-0.7-0.2-1.2-0.3-1.6l0.9-0.2
		C344.6,42.3,344.7,42.8,344.8,43.5z M347.2,40l-1,0.4c-0.4-0.8-0.9-1.6-1.5-2.6c0.6-0.8,1.1-1.6,1.4-2.3l1.1,0.4
		c-0.2,0.5-0.6,1.2-1.2,1.9C346.5,38.8,347,39.5,347.2,40z M351.7,44.9h-6.9v-1.1h2.9v-2h-2.5v-1.1h6.2v1.1h-2.5v2h2.9V44.9z
		 M351.6,35.1H345V34h6.6V35.1z M349.4,40l-1,0.5c-0.4-0.9-1-1.8-1.5-2.6c0.5-0.6,1-1.4,1.4-2.3l1.1,0.4c-0.4,0.7-0.8,1.3-1.1,1.9
		C348.8,38.9,349.2,39.6,349.4,40z M351.6,40l-1,0.5c-0.4-0.8-0.9-1.7-1.5-2.5c0.6-0.8,1-1.6,1.4-2.4l1,0.4
		c-0.2,0.4-0.5,1.1-1.1,1.9C350.9,38.6,351.3,39.3,351.6,40z"/>
	<path d="M364.5,39.8h-1.2v-1h-8.7v1h-1.1v-2h11V39.8z M358.8,34.8c-0.6,0.3-1.3,0.6-2,0.8l0,0.1c0.8,0.3,1.5,0.6,2.1,1l-0.6,0.8
		c-0.5-0.3-1.2-0.7-1.9-1c-0.5,0.5-1.2,0.9-2,1.1l-0.6-1c0.9-0.2,1.5-0.4,1.8-0.8c0.3-0.4,0.5-1.1,0.5-2.1h1.1c0,0.3,0,0.6-0.1,0.8
		c0.5-0.2,0.9-0.3,1.3-0.6L358.8,34.8z M355.5,35.5l-0.9,0.5c-0.2-0.5-0.5-1-0.9-1.4l0.9-0.5C355,34.5,355.3,35,355.5,35.5z
		 M363.9,45.2h-1.1v-0.4h-7.5v0.4h-1.1v-3h3.8c0.1-0.2,0.2-0.4,0.3-0.6h-3v-2.2h7.4v2.2h-3.1c-0.1,0.2-0.2,0.4-0.3,0.6h4.6V45.2z
		 M362.8,43.9v-0.9h-7.5v0.9H362.8z M361.6,40.8v-0.5h-5.2v0.5H361.6z M364.6,36.9l-0.6,0.8c-0.6-0.4-1.4-0.7-2.3-1.1
		c-0.5,0.5-1.3,0.9-2.2,1l-0.5-1c0.9-0.1,1.5-0.4,1.8-0.8c0.3-0.4,0.5-1.1,0.5-2.1l1.1,0c0,0.2,0,0.5,0,0.8c0.4-0.1,0.9-0.4,1.4-0.7
		l0.6,0.8c-0.8,0.5-1.6,0.8-2.2,1l-0.1,0.1C363.1,36.2,363.9,36.5,364.6,36.9z M360.9,35.6L360,36c-0.2-0.5-0.4-1-0.8-1.5l0.9-0.4
		C360.4,34.6,360.7,35.1,360.9,35.6z"/>
	<path d="M368,42.3c-0.1,1.2-0.3,2.2-0.6,3l-1-0.5c0.3-1,0.5-1.9,0.6-2.8L368,42.3z M370.9,41.3l-1,0.3l-0.1-0.6
		c-1,0.2-2,0.5-3.1,0.7l-0.3-1c0.8-0.8,1.4-1.7,2-2.7c-0.5,0.1-1.1,0.2-1.7,0.3l-0.3-1.1c0.7-0.8,1.3-1.9,2-3.5l1.1,0.5
		c-0.6,1.2-1.1,2.1-1.6,2.8c0.3,0,0.7-0.1,1.2-0.2c0.3-0.4,0.5-0.9,0.7-1.4l1.1,0.5c-0.9,1.8-1.8,3.3-2.8,4.5
		c0.5-0.1,0.9-0.2,1.3-0.3c0-0.2-0.1-0.4-0.3-0.7l1-0.4C370.5,39.9,370.8,40.7,370.9,41.3z M369.6,44.6l-1,0.2
		c0-0.9-0.1-1.8-0.3-2.5l0.9-0.2C369.4,42.9,369.5,43.7,369.6,44.6z M371,43.8l-0.9,0.3c-0.1-0.5-0.2-1.2-0.4-1.9l0.9-0.2
		C370.7,42.6,370.9,43.2,371,43.8z M377.2,43.4h-4l0.6,0.5c-0.7,0.5-1.7,1-2.9,1.4l-0.6-0.9c1.1-0.3,1.9-0.7,2.5-1h-1.5v-4.8h5.9
		V43.4z M377.8,38.2h-7.2v-0.9h3v-0.6h-2.4v-0.8h2.4v-0.5h-2.7v-0.9h2.7v-0.6h1.2v0.6h2.8v0.9h-2.8v0.5h2.4v0.8h-2.4v0.6h3V38.2z
		 M376,40v-0.5h-3.6V40H376z M376,41.3v-0.5h-3.6v0.5H376z M376,42.6v-0.5h-3.6v0.5H376z M377.9,44.5l-0.6,0.9
		c-0.7-0.3-1.6-0.6-2.7-0.8l0.5-0.9C376.4,43.9,377.3,44.2,377.9,44.5z"/>
	<path d="M385,43.7l-0.8,0.7c-0.6-0.7-1-1.2-1.4-1.6c-0.6,0.9-1.4,1.7-2.6,2.5l-0.9-0.8c1.2-0.8,2.1-1.6,2.6-2.5
		c-0.5-0.5-1-0.9-1.5-1.3l0.6-1c0.3,0.3,0.8,0.7,1.5,1.2c0.3-0.7,0.5-1.3,0.6-1.8l1.1,0.3c-0.2,0.7-0.4,1.5-0.8,2.3
		C384.1,42.6,384.6,43.2,385,43.7z M382.1,37c-0.6,1.3-1.2,2.3-1.9,3.1l-0.8-0.8c0.7-0.8,1.3-1.7,1.7-2.7L382.1,37z M385.2,36.2
		h-5.7v-1.1h2.4c-0.1-0.4-0.3-0.7-0.5-1.1l1.2-0.3c0.3,0.6,0.5,1,0.6,1.4h2.1V36.2z M385.5,39.3l-1,0.5c-0.3-0.8-0.8-1.7-1.5-2.6
		l0.9-0.6C384.5,37.3,385.1,38.2,385.5,39.3z M390.9,44.4l-0.7,0.9c-1-0.6-1.7-1.2-2.3-2c-0.5,0.6-1.3,1.2-2.5,1.9l-0.7-0.9
		c1.1-0.6,2-1.2,2.5-2c-0.5-0.9-0.8-1.7-0.9-2.6l1-0.5c0.2,0.9,0.4,1.6,0.6,2c0.5-1.1,0.8-2.6,0.8-4.5h-1.3c-0.3,1-0.7,1.9-1.2,2.7
		l-0.8-0.9c0.7-1.3,1.3-2.9,1.5-4.7l1,0.2c-0.1,0.5-0.1,1.1-0.3,1.7h2.9v1.1h-0.8c-0.1,2.6-0.5,4.5-1.3,5.7
		C389.1,43.1,389.8,43.8,390.9,44.4z"/>
	<path d="M338.1,62.5h-3.7v-3.8h3.7V62.5z"/>
	<path d="M345.2,55.2c-0.8,2.3-2.2,4.2-4.2,5.8l-0.7-1c1.7-1.3,3-3,3.8-5.2L345.2,55.2z M351,65.6l-1,0.7c-0.2-0.6-0.5-1.1-0.7-1.5
		c-2,0.5-4.5,0.9-7.3,1.3l-0.3-1c1.1-0.8,2.4-3,3.9-6.6l1.2,0.3c-1.1,2.5-2.1,4.4-3.3,5.9c2-0.2,3.7-0.5,5.3-0.9
		c-0.3-0.5-0.7-1.1-1.4-2l1-0.6C349.4,62.6,350.3,64,351,65.6z M351.9,60l-0.7,1c-1.6-1.1-2.8-2.8-3.6-5h-1.1V55h1.9
		C349.1,57.2,350.2,58.9,351.9,60z"/>
	<path d="M364.3,64.7c0,1-0.5,1.5-1.5,1.5c-0.9,0-1.5,0-1.9,0l-0.3-1.2c1,0,1.6,0,2,0c0.4,0,0.6-0.1,0.6-0.3v-8.6h-9.7v-1.1h10.9
		V64.7z M362.1,58.3h-8.4v-1.1h8.4V58.3z M361.3,63.9h-6.8v-4.4h6.8V63.9z M360.1,62.8v-2.2h-4.5v2.2H360.1z"/>
	<path d="M369.5,59.7l-0.7,1c-0.7-0.6-1.5-1.2-2.4-1.8l0.7-1C368,58.4,368.8,59,369.5,59.7z M369.6,61.9c-0.6,1.6-1.3,3-2.2,4.3
		l-0.9-0.9c0.8-1.2,1.5-2.6,2.1-4.1L369.6,61.9z M369.7,56.8l-0.8,0.8c-0.6-0.7-1.3-1.3-2.2-2l0.8-0.9C368.3,55.4,369,56,369.7,56.8
		z M377.9,60.1l-1.1,0.5c-0.2-0.4-0.3-0.7-0.5-0.9c-2,0.2-4.2,0.3-6.5,0.4l-0.2-1c1.3-0.8,2.3-2.3,3.2-4.3l1.2,0.4
		c-0.8,1.7-1.6,2.9-2.5,3.8c1.4-0.1,2.9-0.2,4.3-0.3c-0.5-0.7-0.9-1.3-1.2-1.7l1.1-0.5C376.6,57.6,377.3,58.9,377.9,60.1z M377,66.2
		h-1.2v-0.6h-4.5v0.6h-1.2v-5.4h6.8V66.2z M375.8,64.5v-2.6h-4.5v2.6H375.8z"/>
	<path d="M383.3,63.4c-1,0.6-2.2,1.2-3.6,1.9l-0.4-1.1c0.3-0.1,0.8-0.4,1.5-0.7v-3.2h-1.3v-1.1h1.3v-2.6h-1.4v-1h3.9v1H382v2.6h1.1
		v1.1H382v2.6c0.4-0.2,0.9-0.4,1.3-0.7L383.3,63.4z M390.7,65.9h-7.4v-1.1h3.2v-1.3h-2.7v-1h2.7v-1.1h-2.7v-6.2h6.4v6.2h-2.6v1.1
		h2.8v1h-2.8v1.3h3.1V65.9z M386.5,57.8v-1.6H385v1.6H386.5z M386.5,60.4v-1.7H385v1.7H386.5z M389.1,57.8v-1.6h-1.5v1.6H389.1z
		 M389.1,60.4v-1.7h-1.5v1.7H389.1z"/>
</g>
<g>
	<path d="M197,120h-3.7v-3.8h3.7V120z"/>
	<path d="M209.8,119.4c0,0.6-0.1,1.4-0.2,2.2c-0.1,0.9-0.3,1.4-0.5,1.5c-0.2,0.2-0.4,0.3-0.5,0.4c-0.2,0.1-0.8,0.1-1.9,0.1
		c-0.3,0-0.5,0-0.8,0l-0.4-1.1c0.5,0,1.2,0,2.2,0c0.2,0,0.4-0.1,0.5-0.3s0.2-0.8,0.3-1.9h-3.6c-0.7,1.7-2.3,2.8-4.9,3.3l-0.6-1.1
		c2-0.1,3.4-0.9,4.3-2.2h-3.5v-1h3.9c0.1-0.3,0.2-0.6,0.2-1h1.2c-0.1,0.4-0.1,0.7-0.2,1H209.8z M204.6,113.4
		c-0.4,0.4-1.1,0.8-1.9,1.1l0,0.2c0.8,0.5,1.4,0.9,1.9,1.3l-0.6,0.9c-0.6-0.5-1.2-0.9-1.8-1.3c-0.4,0.5-1.1,0.9-2,1.3l-0.6-0.9
		c0.5-0.2,1-0.4,1.5-0.8c0.4-0.3,0.7-0.7,0.8-1.1c0.1-0.4,0.1-1,0.1-1.7h1.1c0,0.4,0,0.7,0,1c0.4-0.2,0.8-0.4,1.2-0.8L204.6,113.4z
		 M210.3,118.9h-1.1v-0.8h-8.4v0.8h-1.1V117h10.7V118.9z M201.2,114.4l-0.9,0.4c-0.2-0.6-0.4-1.2-0.7-1.7l0.9-0.4
		C200.7,113.1,201,113.6,201.2,114.4z M210.5,113.3c-0.6,0.5-1.4,0.9-2.4,1.3l0,0.1c0.9,0.4,1.7,0.8,2.4,1.3l-0.7,0.8
		c-0.7-0.5-1.4-0.9-2.2-1.2c-0.5,0.6-1.2,1-2.1,1.3l-0.6-0.9c0.9-0.3,1.5-0.6,1.9-1.1c0.4-0.4,0.5-1.3,0.5-2.6h1.1
		c0,0.3,0,0.7-0.1,1.2c0.5-0.2,1-0.5,1.5-1L210.5,113.3z M206.7,114.4l-0.9,0.4c-0.2-0.7-0.5-1.3-0.8-1.8l0.9-0.4
		C206.2,113.1,206.5,113.7,206.7,114.4z"/>
	<path d="M223.7,116.3l-0.5,1c-0.3-0.1-0.7-0.2-1.1-0.3v4.9h-5.5l0.6,0.6c-1.2,0.6-2.7,1-4.3,1.3l-0.6-1c1.2-0.1,2.4-0.4,3.5-0.9
		h-1.9V117h2.5l-0.5-0.7c1.5-0.4,2.7-1.1,3.4-2l1.2,0.3c-0.1,0.2-0.2,0.4-0.3,0.4C221,115.5,222.2,116,223.7,116.3z M216.1,115.9
		h-3.8v-1.1h3.8V115.9z M216,113.9h-3.5v-1h3.5V113.9z M220.8,118.4v-0.5H215v0.5H220.8z M220.8,119.7v-0.5H215v0.5H220.8z
		 M220.8,121v-0.5H215v0.5H220.8z M223.4,114c-0.4,0.6-0.8,1.1-1.1,1.5l-1-0.6c0.1-0.1,0.3-0.4,0.7-0.9h-4.1
		c-0.4,0.5-0.8,0.8-1.1,1.1l-0.9-0.8c0.7-0.5,1.3-1.2,1.9-2.2l1.1,0.4c0,0.1-0.1,0.3-0.2,0.5h4.8V114z M221.9,117
		c-0.9-0.3-1.7-0.7-2.5-1.3c-0.5,0.5-1.2,0.9-2.1,1.3H221.9z M223.6,122.9l-0.6,1c-1.1-0.4-2.4-0.6-3.8-0.8l0.6-1
		C221.1,122.2,222.4,122.5,223.6,122.9z"/>
	<path d="M230.5,116h-3.7v7.7h-1.2v-11.1h4.9V116z M229.3,113.9v-0.5h-2.6v0.5H229.3z M229.3,115.1v-0.5h-2.6v0.5H229.3z
		 M230.8,119.4l-0.7,0.4c-0.1-0.1-0.1-0.2-0.2-0.3c-0.9,0.1-1.8,0.2-2.4,0.3l-0.2-0.7c0.5-0.2,1-0.6,1.4-1c-0.5,0.1-0.9,0.1-1.2,0.1
		l-0.2-0.7c0.6-0.3,1.1-0.8,1.5-1.5l0.8,0.3c-0.3,0.4-0.7,0.7-1.1,1c0.4,0,0.7-0.1,0.9-0.1c0.1-0.2,0.3-0.3,0.4-0.5l0.8,0.3
		c-0.6,0.7-1.3,1.3-2,1.8c0.2,0,0.5,0,0.8-0.1c0-0.1-0.1-0.2-0.1-0.2l0.7-0.3C230.4,118.7,230.6,119.1,230.8,119.4z M230.6,120.5
		c0,0.8-0.2,1.5-0.5,1.9c-0.4,0.4-1,0.8-2,1.1l-0.6-0.9c0.9-0.1,1.5-0.4,1.8-0.8h-1.7v-1.6h1v0.8h1c0,0,0-0.1,0-0.2V120h1.1V120.5z
		 M234.7,119.4l-0.8,0.4c0-0.1-0.1-0.2-0.2-0.3c-0.6,0.1-1.4,0.2-2.6,0.3l-0.2-0.7c0.5-0.3,0.9-0.6,1.3-1l-1.2,0.1l-0.2-0.7
		c0.5-0.3,1-0.8,1.4-1.5l0.8,0.3c-0.3,0.5-0.7,0.8-1.1,1.1c0.5-0.1,0.8-0.1,1-0.1c0.2-0.2,0.3-0.4,0.3-0.5l0.9,0.3
		c-0.7,0.8-1.3,1.4-1.9,1.8c0.4,0,0.7-0.1,0.9-0.1c-0.1-0.1-0.1-0.2-0.2-0.2l0.8-0.3C234.2,118.7,234.5,119.1,234.7,119.4z
		 M234.3,121.8h-2v1.6h-1.1V120h1.1v1h1v-0.8h1V121.8z M236.2,122.6c0,0.3-0.1,0.5-0.2,0.7c-0.1,0.2-0.3,0.3-0.5,0.4
		c-0.2,0.1-0.6,0.1-1,0.1c-0.2,0-0.4,0-0.5,0l-0.4-1.1c0.2,0,0.5,0,0.7,0c0.3,0,0.5,0,0.7,0c0.1,0,0.2-0.1,0.2-0.3V116h-3.7v-3.4
		h4.8V122.6z M235.1,113.9v-0.5h-2.6v0.5H235.1z M235.1,115.1v-0.5h-2.6v0.5H235.1z"/>
	<path d="M241.6,112.5c-0.2,0.7-0.5,1.3-0.7,1.8l-0.3,0.7v8.7h-1.1v-6.6c-0.2,0.3-0.5,0.6-0.9,1.1l-0.5-1.2c0.9-1.3,1.7-2.9,2.4-4.8
		L241.6,112.5z M244.3,120.8c-0.9,1.1-1.7,2-2.5,2.6l-1-0.7c0.9-0.7,1.7-1.5,2.5-2.5L244.3,120.8z M245.9,112.7c-1,1-2.3,2-4.1,3
		l-0.8-0.8c1.6-0.8,3-1.8,3.9-2.7L245.9,112.7z M249.6,119.8l-1,0.6c-0.2-0.3-0.3-0.6-0.5-0.9c-0.7,0.1-1.4,0.2-2.1,0.3v2.9
		c0,0.3-0.1,0.6-0.3,0.8c-0.2,0.2-0.7,0.3-1.5,0.3c-0.2,0-0.3,0-0.4,0l-0.4-1.1c0.9,0,1.3,0,1.4,0s0.1-0.1,0.1-0.2v-2.5
		c-1,0.1-2.1,0.2-3.3,0.2l-0.2-0.9c1.2-0.5,2.3-1.1,3.2-1.7c-1.3,0.1-2.2,0.1-2.7,0.1l-0.2-0.9c2-1,3.5-2.1,4.6-3.3l1,0.5
		c-0.7,0.8-1.9,1.6-3.4,2.6c1.3-0.1,2-0.1,2.2-0.1c0.2,0,0.7-0.4,1.4-1.2l1.1,0.5c-1,1-2.5,2-4.6,3.1c0.9,0,2-0.1,3.4-0.3
		c-0.2-0.2-0.4-0.5-0.6-0.7l1-0.5C248.7,118.3,249.3,119.1,249.6,119.8z M249.6,122.8l-0.9,0.6c-0.6-1-1.4-1.8-2.2-2.7l0.9-0.6
		C248.3,120.9,249,121.8,249.6,122.8z"/>
	<path d="M197,141h-3.7v-3.8h3.7V141z"/>
	<path d="M203.1,134.7h-0.4v10h-1.1v-1.9c-0.7,0.3-1.4,0.5-2.1,0.7l-0.4-1c0.1,0,0.3-0.1,0.7-0.2v-7.6h-0.6v-1.1h3.9V134.7z
		 M201.6,136.3v-1.6h-0.8v1.6H201.6z M201.6,139.1v-1.7h-0.8v1.7H201.6z M201.6,141.7v-1.5h-0.8v1.8
		C201.1,141.9,201.3,141.8,201.6,141.7z M210.7,142.3c-0.1,1.1-0.3,1.7-0.5,2s-0.4,0.4-0.8,0.4c-0.2,0-0.5-0.1-0.6-0.3
		c-0.2-0.2-0.4-0.6-0.6-1.2c-0.4,0.5-0.9,1-1.5,1.5l-0.8-0.7c0.8-0.6,1.4-1.3,2-2.1c-0.2-1.1-0.3-2.5-0.3-4h-4.5v-1h1
		c-0.1-0.4-0.2-1-0.3-1.5h-0.3v-1h1.4c-0.1-0.3-0.2-0.6-0.3-0.9l1.1-0.2c0.2,0.4,0.3,0.8,0.4,1.2h1.4v1h-0.4c-0.1,0.5-0.2,1-0.4,1.5
		h1c0-1.7,0-2.9,0-3.6h1.1c0,1.4,0,2.6,0,3.6h1.9v1h-1.9c0,0.8,0,1.7,0.1,2.6c0.3-0.8,0.6-1.5,0.7-2.1l1,0.4
		c-0.4,1.3-0.8,2.4-1.4,3.4c0.1,0.4,0.2,0.7,0.3,1c0.1,0.3,0.2,0.4,0.2,0.4s0.1-0.2,0.1-0.5c0.1-0.3,0.1-0.7,0.1-1.3L210.7,142.3z
		 M207,143.2h-3.4v-4.7h3.4V143.2z M205.9,140.3v-0.7h-1.3v0.7H205.9z M205.9,142.2v-1h-1.3v1H205.9z M205.9,135.4h-1
		c0.1,0.5,0.2,1.1,0.3,1.5h0.3C205.6,136.4,205.8,135.8,205.9,135.4z M210.6,136.2l-0.9,0.4c-0.1-0.6-0.3-1.4-0.7-2.4l0.9-0.4
		C210.1,134.5,210.4,135.3,210.6,136.2z"/>
	<path d="M223.6,141.6h-5.1v3.1h-1.2v-3.1h-5.1v-1h5.1v-0.7h-4.5v-1h4.5v-0.6h-4.8v-1h3c-0.1-0.2-0.3-0.4-0.5-0.6l0.9-0.5h-3.7v-1h4
		v-1.9h1.1v1.9h1.2v-1.9h1.1v1.9h3.9v1H220l0.8,0.4c-0.2,0.3-0.3,0.5-0.4,0.6h3v1h-4.8v0.6h4.5v1h-4.5v0.7h5.1V141.6z M216.4,142.7
		c-1.2,0.9-2.3,1.5-3.4,2l-0.8-0.9c1-0.4,2.1-1,3.2-1.8L216.4,142.7z M215.3,134.6l-0.9,0.6c-0.4-0.4-0.8-0.8-1.2-1.1l0.9-0.7
		C214.6,133.8,215,134.2,215.3,134.6z M219.6,136.3h-3.4c0.3,0.3,0.5,0.7,0.7,1h2C219.1,137,219.4,136.7,219.6,136.3z M223.8,143.7
		l-0.6,0.9c-1.2-0.7-2.5-1.3-3.7-1.8l0.7-0.9C221.3,142.3,222.5,142.9,223.8,143.7z M222.6,133.9c-0.2,0.4-0.6,0.8-1.1,1.2l-1-0.6
		c0.4-0.3,0.8-0.7,1.1-1.1L222.6,133.9z"/>
	<path d="M228,133.5c-0.1,0.5-0.2,1.1-0.4,1.6l-0.2,0.8v8.8h-1.1v-6c-0.1,0.2-0.3,0.5-0.5,0.9l-0.6-1.2c0.8-1.3,1.4-3,1.8-5.2
		L228,133.5z M236.6,143.5l-0.3,1.2c-2.4,0-4-0.1-4.8-0.3c-0.8-0.2-1.4-0.6-1.9-1.1c-0.4,0.6-0.7,1.1-1.1,1.5l-1-0.7
		c0.6-0.6,1-1.2,1.3-1.7c-0.4-0.6-0.7-1.3-1-2.1l0.9-0.6c0.2,0.6,0.4,1.1,0.6,1.4c0.2-0.6,0.3-1.3,0.3-2.1h-1.4V138
		c0.4-0.7,0.8-1.7,1.2-2.7h-1.3v-1h2.5v1c-0.3,0.7-0.7,1.6-1.1,2.6h1.2c0,1.7-0.2,3.1-0.6,4.4c0.3,0.4,0.7,0.7,1.2,0.9
		c0.4,0.2,1,0.3,1.6,0.4c0.6,0,1.3,0,2.2,0C235.6,143.5,236.1,143.5,236.6,143.5z M236.6,137h-0.8v1.7h-1.9v0.9h2.4v1h-2.4v0.7h2.7
		v0.9h-2.7v1h-1.1v-1h-2.1v-0.9h2.1v-0.7H231v-1h1.8v-0.9h-1.5v-0.9h1.5V137h-2v-0.9h2v-0.7h-1.5v-0.9h1.5v-1h1.1v1h1.9v1.6h0.8V137
		z M234.7,136.1v-0.7h-0.8v0.7H234.7z M234.7,137.8V137h-0.8v0.8H234.7z"/>
	<path d="M249.6,138.5h-1.2v1.6h-3.3v3.3c0,0.5-0.1,0.8-0.4,1c-0.2,0.2-0.6,0.3-1.2,0.3c-0.2,0-0.4,0-0.7,0l-0.3-1.1
		c0.3,0,0.5,0,0.7,0c0.3,0,0.5,0,0.6-0.1s0.1-0.1,0.1-0.2v-3.2H241v-0.9h2.9v-0.7h-3.7c0,1.8-0.1,3.2-0.3,4.1
		c-0.2,0.9-0.5,1.6-0.8,2.1l-0.9-0.7c0.6-1.1,0.9-2.9,0.9-5.3v-4.5h4.6c-0.1-0.1-0.2-0.4-0.3-0.6l1.1-0.4c0.2,0.4,0.4,0.7,0.5,1h4.5
		v1h-4.3v0.7h3.3v1.6h1.2V138.5z M243.4,143c-0.9,0.5-1.9,1-2.9,1.4l-0.6-0.9c0.9-0.3,1.9-0.8,2.9-1.3L243.4,143z M244,137.6V137
		H241v-1h2.9v-0.7h-3.7v2.4H244z M243.4,141.1l-0.6,0.9c-0.7-0.3-1.4-0.6-2.2-0.8l0.6-0.9C242.1,140.6,242.9,140.9,243.4,141.1z
		 M247.3,137.6V137h-2.1v0.7H247.3z M247.3,139.2v-0.7h-2.1v0.7H247.3z M248.8,141.2c-0.7,0.4-1.5,0.6-2.5,0.9l-0.6-0.9
		c0.7-0.1,1.6-0.4,2.5-0.8L248.8,141.2z M249.2,143.8l-0.7,0.8c-0.8-0.5-1.7-1-2.8-1.5l0.6-0.9C247.5,142.7,248.4,143.2,249.2,143.8
		z"/>
	<path d="M255.8,142.9c-1,0.7-2.3,1.4-3.9,1.9l-0.7-1c1.4-0.5,2.6-1,3.5-1.7L255.8,142.9z M262.6,142h-11.3V141h0.9l-0.1-6.8
		c0.9-0.2,1.7-0.5,2.5-0.9l0.6,1c-0.5,0.3-1.2,0.5-1.9,0.7l0,1.2h1.5v1.1h-1.5l0,1.3h1.5v1h-1.4l0,1.4h7.2l0.1-1.4h-1.4v-1h1.4
		l0-1.3h-1.4v-1h1.4l0-1.3h-1.5v-1.1h2.7l-0.2,7.2h0.9V142z M256.6,137.7c-0.2,1.1-0.5,2.1-1,2.9l-0.9-0.6c0.4-0.9,0.7-1.7,0.8-2.5
		L256.6,137.7z M258.7,135.1h-2.1l-0.1,0.9h2.2c0,0.7,0,1.5-0.1,2.4c0,0.9-0.1,1.4-0.3,1.6c-0.1,0.2-0.3,0.3-0.5,0.4
		c-0.2,0.1-0.6,0.1-1.1,0.1l-0.4-1.1c0.2,0,0.3,0,0.5,0c0.2,0,0.3,0,0.4-0.1c0.1,0,0.1-0.1,0.1-0.1c0-0.1,0-0.3,0.1-0.8
		c0-0.5,0.1-1,0.1-1.4h-2.4l0.5-3.7h1.1l-0.1,0.7h2V135.1z M262.6,143.9l-0.7,1c-1.2-0.7-2.5-1.3-3.7-1.7l0.7-1
		C260.2,142.7,261.5,143.2,262.6,143.9z"/>
	<path d="M275.6,139.1h-2.5c-0.5,1.2-1,2.1-1.6,2.8c1.7,0.7,3.1,1.3,4.1,1.9l-0.7,1c-1.1-0.6-2.6-1.3-4.3-2c-1.3,1.1-3.3,1.7-6,1.9
		l-0.4-1.1c2.3-0.2,4-0.7,5.1-1.3c-1.1-0.4-2.3-0.8-3.5-1.2c0.5-0.6,1-1.3,1.5-2.1h-3V138h3.7c0.4-0.6,0.8-1.3,1.2-2l1.2,0.2
		c-0.4,0.7-0.7,1.4-1,1.8h2.9c0.1-0.3,0.2-0.6,0.3-0.9l1.1,0.1c0,0.2-0.1,0.5-0.2,0.8h2.2V139.1z M275.2,137.2h-1.2v-1.5h-8.3v1.5
		h-1.2v-2.6h4.7c-0.1-0.4-0.3-0.7-0.5-1l1.2-0.3c0.3,0.4,0.5,0.8,0.7,1.3h4.6V137.2z M271.8,139.1h-3.1c-0.2,0.4-0.6,0.9-0.9,1.5
		c0.8,0.3,1.7,0.6,2.6,0.9C270.9,140.9,271.4,140.1,271.8,139.1z"/>
	<path d="M288.7,137.1l-0.6,1.1c-0.6-0.3-1.1-0.4-1.3-0.5v0.9h-3.3v1.8h3.2v1.1h-3.2v1.9h4.8v1.1h-10.8v-1.1h4.8v-1.9h-3.3v-1.1h3.3
		v-1.8H279v-1c-0.4,0.2-0.8,0.4-1.3,0.5l-0.5-1.1c1.8-0.7,3.2-1.5,4.2-2.3h-1v-1.1h3.2C284.4,135,286.1,136.1,288.7,137.1z
		 M286.3,137.4c-1.5-0.7-2.6-1.6-3.4-2.6c-0.8,0.9-2,1.8-3.6,2.6H286.3z"/>
</g>
<g>
	<path d="M338.1,120h-3.7v-3.8h3.7V120z"/>
	<path d="M351.9,120.9c-0.2,1.9-0.7,2.8-1.4,2.8c-0.5,0-0.9-0.5-1.1-1.5c-0.2-1-0.3-3-0.3-5.9c0-1,0-1.9,0-2.8h-6.6v4.7
		c0,2.2-0.4,4-1.3,5.4l-0.9-0.8c0.7-1.1,1.1-2.6,1.1-4.5v-6h8.9c-0.1,1.8-0.1,3.5-0.1,5.2c0,1.8,0.1,2.9,0.2,3.6s0.2,0.9,0.2,0.9
		c0.1,0,0.2-0.2,0.3-0.7s0.2-0.9,0.2-1.3L351.9,120.9z M349.3,123.3l-1,0.5c-0.1-0.3-0.2-0.5-0.3-0.8c-1.8,0.2-3.5,0.4-5.3,0.6
		l-0.3-1.1c1.2-0.1,2.1-0.1,2.9-0.2v-1.9h-2v-3.9h2v-0.9H343v-1h5.7v1h-2.3v0.9h2v3.9h-2v1.7c0.3-0.1,0.7-0.1,1-0.1
		c-0.2-0.3-0.3-0.6-0.4-0.8l0.9-0.5C348.5,121.5,349,122.3,349.3,123.3z M345.4,119.4v-1.8h-1v1.8H345.4z M347.4,119.4v-1.8h-0.9
		v1.8H347.4z"/>
	<path d="M356.9,113.7c0,0.1-0.1,0.4-0.2,1s-0.3,1.2-0.5,1.7c0.6,1,0.9,1.9,0.9,2.8c0,0.7-0.1,1.2-0.4,1.4c-0.3,0.3-0.6,0.4-1.1,0.4
		c-0.1,0-0.2,0-0.2,0l-0.3-1.2c0.2,0,0.3,0.1,0.5,0.1c0.3,0,0.5-0.2,0.5-0.7c0-0.9-0.3-1.8-1-2.8c0.4-0.8,0.7-1.7,0.9-2.7h-1v10
		h-1.1v-11.1h3.2V113.7z M360.7,122.3l-0.7,0.8c-0.4-0.4-0.8-0.8-1.2-1.1c-0.4,0.6-0.9,1.1-1.5,1.7l-0.9-0.7c1.1-1,1.8-1.9,2.2-2.9
		l1,0.3c-0.1,0.2-0.2,0.4-0.3,0.7C359.8,121.6,360.3,121.9,360.7,122.3z M364.9,115.1l-0.6,1c-0.5-0.2-0.9-0.5-1.4-0.8v0.8h-4.1
		v-0.8c-0.6,0.4-1,0.6-1.4,0.8l-0.6-0.9c1.7-0.8,3-1.8,3.8-2.9l1.1,0.3c-0.1,0.1-0.1,0.2-0.2,0.2
		C362.3,113.6,363.4,114.4,364.9,115.1z M360.5,120h-3v-3.3h3V120z M359.5,119v-1.3h-0.8v1.3H359.5z M362.5,115
		c-0.8-0.6-1.3-1-1.6-1.4c-0.6,0.5-1.1,1-1.7,1.4H362.5z M364.8,123l-0.8,0.7c-0.6-0.6-1.1-1.1-1.6-1.5c-0.3,0.5-0.7,1-1.2,1.5
		l-0.9-0.7c1-1,1.6-2,2-2.9l1,0.3l-0.4,0.9C363.8,122,364.4,122.6,364.8,123z M364.2,120h-3v-3.3h3V120z M363.1,119v-1.3h-0.8v1.3
		H363.1z"/>
	<path d="M372,114.1h-3.4c-0.4,0.5-0.9,0.9-1.4,1.3l-0.8-0.9c1-0.7,1.7-1.4,2-2.2l1.2,0.3c-0.1,0.2-0.1,0.3-0.3,0.5h2.7V114.1z
		 M377.4,117.9h-1.1v-1.3h-8.4v1.3h-1.1v-2.2h4.7c0-0.1-0.2-0.3-0.3-0.6l1.3-0.2c0.1,0.2,0.3,0.4,0.4,0.8h4.6V117.9z M376.2,123.1
		h-6.9v0.5h-1.1v-6.4h7.6v2.5h-6.5v0.7h6.9V123.1z M370.8,115.2l-1.3,0.2c-0.1-0.2-0.3-0.6-0.5-0.9l1.2-0.3
		C370.3,114.4,370.5,114.7,370.8,115.2z M374.7,119v-0.8h-5.3v0.8H374.7z M375.1,122.3v-0.9h-5.7v0.9H375.1z M377.8,114.1h-4
		c-0.2,0.3-0.4,0.6-0.7,0.9l-1.1-0.6c0.7-0.8,1.2-1.5,1.5-2.2l1.2,0.3c-0.1,0.2-0.2,0.4-0.3,0.5h3.4V114.1z M376,115.2l-1.3,0.2
		c-0.1-0.3-0.3-0.6-0.5-1l1.3-0.1C375.7,114.6,375.9,114.9,376,115.2z"/>
	<path d="M383.3,120.9c-1,0.6-2.2,1.2-3.6,1.9l-0.4-1.1c0.3-0.1,0.8-0.4,1.5-0.7v-3.2h-1.3v-1.1h1.3v-2.6h-1.4v-1h3.9v1H382v2.6h1.1
		v1.1H382v2.6c0.4-0.2,0.9-0.4,1.3-0.7L383.3,120.9z M390.7,123.4h-7.4v-1.1h3.2v-1.3h-2.7v-1h2.7v-1.1h-2.7v-6.2h6.4v6.2h-2.6v1.1
		h2.8v1h-2.8v1.3h3.1V123.4z M386.5,115.3v-1.6H385v1.6H386.5z M386.5,117.9v-1.7H385v1.7H386.5z M389.1,115.3v-1.6h-1.5v1.6H389.1z
		 M389.1,117.9v-1.7h-1.5v1.7H389.1z"/>
	<path d="M338.1,141h-3.7v-3.8h3.7V141z"/>
	<path d="M343.8,133.5c-0.1,0.5-0.3,1.1-0.6,1.7l-0.4,1v8.5h-1.2v-6.3c-0.2,0.3-0.4,0.6-0.7,0.9l-0.6-1.3c0.9-1.1,1.7-2.7,2.4-4.8
		L343.8,133.5z M346.9,141.8c-0.8,1.3-1.7,2.3-2.6,3l-0.9-0.8c0.8-0.6,1.7-1.6,2.5-2.7L346.9,141.8z M351.7,140.9h-8.3v-1.1h1.7
		v-2.9h-1.5v-1.1h1.5v-2.4h1.2v2.4h2.4v-2.4h1.2v2.4h1.5v1.1h-1.5v2.9h1.8V140.9z M348.7,139.8v-2.9h-2.4v2.9H348.7z M351.8,144.1
		l-1,0.7c-0.7-1-1.6-1.9-2.6-2.8l0.9-0.7C350.3,142.2,351.2,143.1,351.8,144.1z"/>
	<path d="M364.7,135h-9.4v2.7c0.7-0.6,1.3-1.5,1.8-2.6l1.1,0.2c-0.3,0.6-0.5,1.1-0.9,1.6v4.1h-1.1v-2.7l-0.5,0.5l-0.4-1.1v2.7
		c0,1.5-0.3,2.9-1,4.2l-0.9-0.7c0.5-1,0.8-2.3,0.8-4v-6h4.6c-0.1-0.2-0.2-0.4-0.4-0.6l1.3-0.2c0.2,0.3,0.3,0.6,0.5,0.8h4.6V135z
		 M357.4,141.9c-0.3,0.9-0.8,1.7-1.3,2.5l-0.9-0.6c0.6-0.7,1-1.5,1.2-2.2L357.4,141.9z M364.6,141.1h-6.4v-2.6
		c-0.1,0.1-0.2,0.2-0.4,0.3l-0.5-1c0.7-0.7,1.3-1.6,1.8-2.6l1,0.3c-0.1,0.2-0.2,0.5-0.3,0.7h1.3c-0.1-0.2-0.2-0.5-0.4-0.7l1.2-0.2
		c0.1,0.2,0.3,0.5,0.4,0.8h2.1v0.9h-2.3v0.5h2.2v0.8h-2.2v0.5h2.2v0.8h-2.2v0.6h2.4V141.1z M362.8,143.1c-0.1,1-0.5,1.5-1.3,1.5
		l-2.6,0c-0.7,0-1-0.3-1-1v-2h1.1v1.7c0,0.1,0,0.2,0.1,0.2c0.1,0,0.4,0.1,1,0.1c0.8,0,1.3,0,1.4-0.1s0.1-0.2,0.2-0.3
		c0-0.2,0.1-0.3,0.1-0.5L362.8,143.1z M361.1,137.5V137h-1.8l-0.1,0.1v0.4H361.1z M361.1,138.9v-0.5h-1.8v0.5H361.1z M361.1,140.3
		v-0.6h-1.8v0.6H361.1z M361.5,142.7l-1,0.5c-0.2-0.4-0.6-0.9-1-1.4l1-0.5C360.8,141.7,361.2,142.2,361.5,142.7z M364.8,143.6
		l-1,0.5c-0.4-0.7-0.9-1.4-1.5-2.1l1-0.5C363.7,142,364.3,142.7,364.8,143.6z"/>
	<path d="M370.6,135.3l-0.8,0.8c-0.4-0.6-0.8-1.1-1.2-1.4c-0.4,0.7-0.8,1.2-1.1,1.6h2.4v1.1H369v1h1.3v1H369v3.3
		c0.3-0.1,0.8-0.2,1.3-0.5v1.1c-1.4,0.6-2.6,1-3.6,1.2l-0.3-1c0.5-0.1,1-0.2,1.6-0.4v-3.7h-1.4v-1h1.4v-1h-0.7v-0.7
		c0,0-0.2,0.2-0.4,0.4l-0.5-1.1c0.8-0.7,1.5-1.6,1.9-2.8l1.1,0.2c0,0.1-0.1,0.2-0.1,0.4C369.8,134.3,370.3,134.8,370.6,135.3z
		 M367.6,142.6l-0.8,0.2c-0.1-1.1-0.2-2-0.4-2.7l0.8-0.2C367.4,140.7,367.5,141.6,367.6,142.6z M370.4,140.1
		c-0.1,0.8-0.2,1.5-0.4,2.1l-0.8-0.2c0.2-0.6,0.3-1.3,0.4-2.1L370.4,140.1z M377.9,143.5l-0.4,1.1c-2.1,0-3.5,0-4.1-0.2
		s-1.2-0.4-1.7-0.9c-0.3,0.5-0.6,0.9-0.9,1.3l-0.9-0.6c1-1,1.6-2.3,1.8-3.8h-0.9v-0.9c0.3-0.6,0.6-1.4,0.9-2.3h-1V136h2.1v1.1
		c-0.2,0.6-0.4,1.4-0.8,2.2h0.9v1c-0.1,0.8-0.3,1.5-0.6,2.2c0.4,0.4,0.9,0.7,1.4,0.8c0.5,0.1,1.4,0.2,2.8,0.2
		C376.8,143.5,377.3,143.5,377.9,143.5z M372.7,135.1l-1,0.6c-0.4-0.7-0.9-1.4-1.4-1.8l0.9-0.6C371.8,133.7,372.3,134.3,372.7,135.1
		z M377.7,142.1h-1.9v1h-1.1v-1h-1.9v-1h1.9v-0.8h-1.5V136h1.5v-0.8h-1.8v-1h1.8v-0.9h1.1v0.9h1.8v1h-1.8v0.8h1.5v4.3h-1.5v0.8h1.9
		V142.1z M374.8,137.7V137h-0.6v0.7H374.8z M374.8,139.4v-0.8h-0.6v0.8H374.8z M376.4,137.7V137h-0.6v0.7H376.4z M376.4,139.4v-0.8
		h-0.6v0.8H376.4z"/>
	<path d="M385,135.1h-3.4c-0.4,0.5-0.9,0.9-1.4,1.3l-0.8-0.9c1-0.7,1.7-1.4,2-2.2l1.2,0.3c-0.1,0.2-0.1,0.3-0.3,0.5h2.7V135.1z
		 M390.4,138.9h-1.1v-1.3h-8.4v1.3h-1.1v-2.2h4.7c0-0.1-0.2-0.3-0.3-0.6l1.3-0.2c0.1,0.2,0.3,0.4,0.4,0.8h4.6V138.9z M389.2,144.1
		h-6.9v0.5h-1.1v-6.4h7.6v2.5h-6.5v0.7h6.9V144.1z M383.8,136.2l-1.3,0.2c-0.1-0.2-0.3-0.6-0.5-0.9l1.2-0.3
		C383.3,135.4,383.5,135.7,383.8,136.2z M387.7,140v-0.8h-5.3v0.8H387.7z M388.1,143.3v-0.9h-5.7v0.9H388.1z M390.8,135.1h-4
		c-0.2,0.3-0.4,0.6-0.7,0.9l-1.1-0.6c0.7-0.8,1.2-1.5,1.5-2.2l1.2,0.3c-0.1,0.2-0.2,0.4-0.3,0.5h3.4V135.1z M389,136.2l-1.3,0.2
		c-0.1-0.3-0.3-0.6-0.5-1l1.3-0.1C388.7,135.6,388.9,135.9,389,136.2z"/>
	<path d="M396.3,141.9c-1,0.6-2.2,1.2-3.6,1.9l-0.4-1.1c0.3-0.1,0.8-0.4,1.5-0.7v-3.2h-1.3v-1.1h1.3v-2.6h-1.4v-1h3.9v1H395v2.6h1.1
		v1.1H395v2.6c0.4-0.2,0.9-0.4,1.3-0.7L396.3,141.9z M403.7,144.4h-7.4v-1.1h3.2v-1.3h-2.7v-1h2.7v-1.1h-2.7v-6.2h6.4v6.2h-2.6v1.1
		h2.8v1h-2.8v1.3h3.1V144.4z M399.5,136.3v-1.6H398v1.6H399.5z M399.5,138.9v-1.7H398v1.7H399.5z M402.1,136.3v-1.6h-1.5v1.6H402.1z
		 M402.1,138.9v-1.7h-1.5v1.7H402.1z"/>
</g>
<g>
	<path d="M197,41.5h-3.7v-3.8h3.7V41.5z"/>
	<path d="M202.2,38.7l-0.7,0.9c-0.6-0.6-1.4-1.2-2.3-1.7l0.8-0.9C200.8,37.4,201.5,38,202.2,38.7z M202.3,41c-0.6,1.6-1.2,3-2.1,4.2
		l-1-0.7c0.7-1,1.4-2.3,2-4.1L202.3,41z M202.5,35.7l-0.8,0.9c-0.6-0.7-1.4-1.4-2.2-1.9l0.8-0.9C201.1,34.4,201.9,35,202.5,35.7z
		 M210.7,44.7l-1.1,0.6c-0.2-0.5-0.4-0.9-0.6-1.2c-2.2,0.5-4.3,0.9-6.2,1l-0.4-1.1c1.1-0.9,2-2.2,2.9-4.1h-2.9v-1.1h3.5v-2.1h-3
		v-1.1h3v-1.7h1.2v1.7h2.8v1.1h-2.8v2.1h3.4v1.1h-3.8c-0.8,1.7-1.7,3-2.6,3.9c1.4-0.2,2.8-0.4,4.3-0.8c-0.2-0.5-0.6-1.1-1.2-1.8
		l1.1-0.5C209.4,42.2,210.2,43.5,210.7,44.7z"/>
	<path d="M217.2,39.5h-1.9c-0.1,2.1-0.8,4-2.1,5.7l-0.9-0.9c1.2-1.3,1.8-3,1.9-4.8h-1.9v-1h2v-1.8h-1.7v-1.1h1.7v-1.8h1.1v1.8h1.6
		v1.1h-1.6v1.8h1.8V39.5z M217.3,42.9l-0.9,0.8c-0.3-0.7-0.7-1.4-1.2-2.1l0.8-0.7C216.6,41.6,217,42.3,217.3,42.9z M223.7,42.6
		c0,0.7-0.1,1.3-0.2,1.7c-0.1,0.4-0.3,0.6-0.5,0.7c-0.2,0.1-0.7,0.1-1.5,0.1c-0.7,0-1-0.3-1-1v-2.7h-0.8c0,1.6-0.8,2.9-2.3,3.9
		l-0.8-0.9c0.6-0.3,1.1-0.7,1.5-1.3s0.5-1.1,0.5-1.7h-1.1v-7.2h5.5v7.2h-1.4v2.3c0,0.2,0.1,0.3,0.4,0.3c0.2,0,0.3,0,0.4-0.1
		c0.1-0.1,0.1-0.4,0.1-0.8c0-0.5,0-0.7,0-0.8L223.7,42.6z M221.9,36.2v-1h-3.2v1H221.9z M221.9,38.2v-1h-3.2v1H221.9z M221.9,40.3
		v-1.1h-3.2v1.1H221.9z"/>
	<path d="M236.7,44l-0.3,1.1c-1.9,0-3.5,0-4.6,0s-2-0.2-2.8-0.4c-0.7-0.2-1.3-0.6-1.8-1c-0.4,0.7-0.8,1.3-1.1,1.6l-0.9-0.7
		c1-1.2,1.6-2.4,1.8-3.7h-1.6v-1.1c0.5-0.6,1-1.3,1.5-2.2h-1.6v-1.1h2.8v1.1c-0.5,0.9-1,1.7-1.3,2.2h1.4v1.1
		c-0.1,0.8-0.3,1.4-0.5,1.8c0.5,0.4,1,0.7,1.6,0.9c0.6,0.2,1.3,0.3,2.4,0.3c1,0,2,0,3,0C235.4,44,236.1,44,236.7,44z M228.1,35.3
		l-0.9,0.8c-0.4-0.5-0.9-1-1.7-1.6l0.8-0.8C227,34.2,227.6,34.7,228.1,35.3z M236.5,41.9h-1.4v0.6c0,0.5-0.1,0.9-0.4,1
		c-0.3,0.2-0.8,0.2-1.6,0.2l-0.3-1l1,0c0.2,0,0.2-0.1,0.2-0.3v-0.5h-5.5V41h5.5v-0.5h-5.1v-4.2h2.2v-0.6h-2.6v-0.9h8v0.9h-2.6v0.6
		h2.1v4.2h-0.9V41h1.4V41.9z M231.7,34.2l-0.9,0.5c-0.4-0.2-0.9-0.4-1.4-0.5l0.9-0.6C230.7,33.7,231.2,33.9,231.7,34.2z M232.1,42.8
		l-0.8,0.8c-0.4-0.3-0.9-0.6-1.6-0.9l0.7-0.8C231,42.2,231.5,42.4,232.1,42.8z M234.9,39.7v-1.4h-1.2c-0.6,0-0.9-0.3-0.9-0.9v-0.3
		H232c-0.1,0.6-0.5,1.1-1,1.4l-0.8-0.7c0.3-0.2,0.6-0.4,0.7-0.7h-0.9v2.6H234.9z M234.4,39.3h-3.9v-0.7h3.9V39.3z M232.8,36.2v-0.6
		h-0.7v0.6H232.8z M235.2,34.3c-0.3,0.2-0.8,0.3-1.4,0.5l-0.8-0.6c0.6-0.2,1.1-0.3,1.4-0.5L235.2,34.3z M234.9,37.5v-0.4h-1v0.2
		c0,0.2,0.1,0.2,0.2,0.2H234.9z"/>
	<path d="M241.6,37c-0.3,0.6-0.6,1.2-0.9,1.6v6.6h-1.1v-5c-0.3,0.4-0.6,0.6-0.8,0.8l-0.6-1.1c0.9-0.8,1.7-2,2.5-3.5L241.6,37z
		 M241.5,34.3c-0.9,1.3-1.8,2.3-2.8,3l-0.6-1.1c0.8-0.6,1.6-1.4,2.3-2.5L241.5,34.3z M249.6,37.2h-2.8v0.9h2.4v7.1h-1.1v-0.5h-3.4
		v0.5h-1.1v-7.1h2.1v-0.9H243v3c0,2.2-0.4,3.8-1.1,4.9l-0.9-0.8c0.6-0.9,0.9-2.3,0.9-4.1v-5.7c2.9,0,5.3-0.3,7-0.8l0.5,0.9
		c-0.8,0.2-1.7,0.4-2.6,0.5v1.1h2.8V37.2z M245.7,36.2v-0.9c-0.8,0.1-1.7,0.1-2.7,0.2v0.7H245.7z M248.1,40v-0.9h-3.4V40H248.1z
		 M248.1,41.8v-0.9h-3.4v0.9H248.1z M248.1,43.6v-0.9h-3.4v0.9H248.1z"/>
	<path d="M197,62.5h-3.7v-3.8h3.7V62.5z"/>
	<path d="M210.5,61.6l-0.4,1c-1.9-0.2-3.6-0.7-5.2-1.3c-1.6,0.6-3.4,1-5.2,1.3l-0.4-1.1c1.5-0.1,3-0.4,4.4-0.9
		c-0.8-0.5-1.3-0.9-1.5-1.1c-0.6,0.4-1.1,0.8-1.6,1.1l-0.8-0.8c1.5-0.8,2.6-1.8,3.5-2.9h-2.6v1.8h-1.2v-2.9h4.6
		c0-0.1-0.2-0.3-0.4-0.7l1.2-0.3c0.1,0.2,0.3,0.5,0.5,1h4.7v2.9h-1.2v-1.8h-5.7l0.9,0.5c-0.1,0.2-0.3,0.4-0.5,0.6h4.7v1
		c-0.8,0.7-1.6,1.3-2.4,1.7C207.6,61.1,209,61.4,210.5,61.6z M208.9,66.2h-1.2v-0.5h-5.7v0.5h-1.2v-3.7h8V66.2z M207.7,64.7v-1.1
		h-5.7v1.1H207.7z M206.8,58.9h-3.7c0.5,0.5,1.1,0.9,1.8,1.2C205.7,59.7,206.3,59.3,206.8,58.9z"/>
	<path d="M223.1,55.8c-1,0.3-2.3,0.5-3.9,0.6c-1.6,0.2-3.1,0.2-4.4,0.2V58h8.2v4.5h-8.3c-0.3,1.3-0.8,2.6-1.7,3.7l-1-0.8
		c1-1.3,1.5-2.9,1.5-4.8v-5.1c2,0,3.6,0,5-0.1c1.3-0.1,2.7-0.3,4.1-0.6L223.1,55.8z M221.8,61.4v-2.3h-7v2.3H221.8z"/>
	<path d="M229.2,60.5l-0.8,0.8c-0.1-0.5-0.3-0.9-0.6-1.3v6.2h-1.1v-5.8c-0.2,1-0.6,1.8-1,2.5l-0.6-1.3c0.6-1,1.1-2.1,1.4-3.6h-1.2
		v-1.1h1.4v-2.1h1.1v2.1h1.1v1.1h-1.1v0.2C228.4,59,228.8,59.7,229.2,60.5z M236.6,65.7h-5.9v0.5h-1.1v-3.9
		c-0.2,0.2-0.4,0.4-0.8,0.7l-0.5-0.9c0.8-0.6,1.5-1.4,2.2-2.5l1,0.3c0,0.1-0.1,0.3-0.3,0.5h1.4c-0.1-0.1-0.2-0.3-0.3-0.5l1.1-0.2
		c0.1,0.1,0.2,0.4,0.4,0.7h2.7v0.8h-2.7v0.7h2.3v0.8h-2.3v0.7h2.3v0.8h-2.3v0.8h2.9V65.7z M232,56.9h-1.1v-0.6H229v-0.9h1.9l0-0.6
		h1.1V56.9z M232.4,59.4h-3.1v-2.2h3.1V59.4z M231.3,58.6V58h-1v0.6H231.3z M232.5,61.8v-0.7h-1.9v0.7H232.5z M232.5,63.3v-0.7h-1.9
		v0.7H232.5z M232.5,64.9v-0.8h-1.9v0.8H232.5z M236.1,59.4H233v-2.2h3.1V59.4z M236.5,56.3h-2v0.6h-1.1v-2.1h1.1v0.6h2V56.3z
		 M235,58.6V58h-1v0.6H235z"/>
	<path d="M242.9,59.4c-0.9,0.9-2.2,1.7-4.1,2.5l-0.6-1c1.6-0.6,2.9-1.3,3.8-2.1L242.9,59.4z M249.5,58.5h-11.3v-1h11.3V58.5z
		 M249.6,65.9h-11.3v-1h1.3v-3.2h8.6v3.2h1.3V65.9z M242.7,56.7l-1,0.6c-0.6-0.7-1.2-1.3-1.9-1.9l1-0.7
		C241.5,55.4,242.2,56,242.7,56.7z M242.1,64.9v-2.2h-1.3v2.2H242.1z M244.7,64.9v-2.2h-1.4v2.2H244.7z M249.6,60.8l-0.7,1
		c-1.1-0.7-2.5-1.4-4.1-2.1l0.6-1C247,59.4,248.4,60.1,249.6,60.8z M248,55.2c-0.5,0.7-1.1,1.4-1.8,2.1l-1.1-0.6
		c0.8-0.7,1.4-1.4,1.8-2L248,55.2z M247.1,64.9v-2.2h-1.3v2.2H247.1z"/>
</g>
<g>
	<path fill="#FFFFFF" d="M42.9,27.3H31v-1.1h5.4c-0.1-0.3-0.2-0.5-0.4-0.9l1.2-0.2c0.2,0.4,0.4,0.8,0.5,1.1h5.2V27.3z M42.4,36.4
		c0,0.3-0.1,0.6-0.4,0.8s-0.9,0.3-1.9,0.3l-0.4-1.2c0.3,0,0.6,0,0.8,0c0.3,0,0.5,0,0.6-0.1s0.1-0.1,0.1-0.2v-3.5h-8.4v4.9h-1.2v-5.9
		h10.9V36.4z M41,30.9h-8.2V28H41V30.9z M39.9,36.1H34v-2.8h5.8V36.1z M39.7,29.9V29h-5.6v0.9H39.7z M38.6,35.1v-0.9h-3.4v0.9H38.6z
		"/>
</g>
<g>
	<path fill="#FFFFFF" d="M424.7,263.1h-11.8V262h5.4c-0.1-0.3-0.2-0.5-0.4-0.9l1.2-0.2c0.2,0.4,0.4,0.8,0.5,1.1h5.2V263.1z
		 M424.2,272.1c0,0.3-0.1,0.6-0.4,0.8s-0.9,0.3-1.9,0.3l-0.4-1.2c0.3,0,0.6,0,0.8,0c0.3,0,0.5,0,0.6-0.1s0.1-0.1,0.1-0.2v-3.5h-8.4
		v4.9h-1.2v-5.9h10.9V272.1z M422.8,266.6h-8.2v-2.9h8.2V266.6z M421.7,271.8h-5.8V269h5.8V271.8z M421.6,265.6v-0.9H416v0.9H421.6z
		 M420.5,270.9V270h-3.4v0.9H420.5z"/>
</g>
<g>
	<path fill="#FFFFFF" d="M35.1,261.2c-0.2,0.5-0.4,1.2-0.7,1.9l-0.5,1v9.1h-1.2v-7c-0.4,0.5-0.6,0.8-0.9,1l-0.6-1.2
		c1.2-1.4,2.1-3.1,2.7-5.2L35.1,261.2z M43.6,269.4c-0.1,1.2-0.3,2.1-0.5,2.4s-0.5,0.6-0.9,0.6c-0.6,0-1.2-0.5-1.7-1.4
		s-0.9-2.5-1.2-4.7h-2.6v3.4c1.1-0.4,1.9-0.7,2.4-1l0.2,1.3c-1.4,0.6-2.7,1.1-3.7,1.3l-0.4-1.2c0.2-0.2,0.3-0.3,0.3-0.5v-7.5
		c2.7-0.1,5-0.5,7.1-1.2l0.6,1.1c-0.6,0.2-1.6,0.5-2.9,0.7c0,0.8,0,1.6,0.1,2.4h3.1v1.2h-2.9c0.2,1.5,0.4,2.7,0.8,3.5
		s0.6,1.2,0.7,1.2c0,0,0.1,0,0.1-0.1s0.1-0.3,0.2-0.7s0.1-0.9,0.1-1.4L43.6,269.4z M40.6,273.1h-5.2v-1.2h5.2V273.1z M39.1,265.1
		c0-0.8-0.1-1.5-0.1-2.2l-2.3,0.3v1.9H39.1z"/>
</g>
<g>
	<path d="M197,197h-3.7v-3.8h3.7V197z"/>
	<path d="M209.9,197.7h-4.4v3h-1.2v-3h-4.5v-6.5h4.5v-1.8h1.2v1.8h4.4V197.7z M204.4,193.9v-1.6h-3.3v1.6H204.4z M204.4,196.6v-1.7
		h-3.3v1.7H204.4z M208.7,193.9v-1.6h-3.2v1.6H208.7z M208.7,196.6v-1.7h-3.2v1.7H208.7z"/>
	<path d="M216.7,191.6h-4.5v-1.1h1.7c-0.1-0.2-0.2-0.5-0.4-0.9l1.1-0.3c0.1,0.2,0.3,0.7,0.6,1.3h1.5V191.6z M216.4,193.5h-3.9v-1
		h3.9V193.5z M216.4,195.4h-3.9v-1h3.9V195.4z M216.4,200.4h-1.1v-0.5h-1.6v0.8h-1.1v-4.4h3.9V200.4z M215.3,198.8v-1.5h-1.6v1.5
		H215.3z M223.7,197.5l-0.8,0.9c-0.5-0.7-1-1.2-1.4-1.6v3.9h-1.1v-6.4h-1.8v1.1c0,2.2-0.3,4-1,5.4l-0.9-0.7c0.6-1.1,0.9-2.7,0.9-4.7
		v-5.2c1.9-0.2,3.6-0.5,5-0.9l0.6,1c-1.4,0.4-2.8,0.7-4.4,0.9v2h4.8v1.1h-2v1C222.6,196.2,223.3,196.9,223.7,197.5z"/>
	<path d="M228.8,194.8l-0.7,0.6c-0.2-0.5-0.4-0.8-0.5-1v6.3h-1.1V195c-0.3,1-0.6,1.8-0.9,2.5l-0.5-1.4c0.5-1,0.9-2.2,1.2-3.5h-1.1
		v-1.1h1.3v-2.2h1.1v2.2h0.9v1.1h-0.9v0.2C228.2,193.6,228.6,194.2,228.8,194.8z M236.7,198.6c-0.2,1.5-0.7,2.3-1.4,2.3
		c-0.5,0-1.1-0.5-1.7-1.4c-1.1,0.7-1.9,1.1-2.6,1.3l-0.6-1c1.2-0.4,2.1-0.9,2.7-1.3c-0.2-0.5-0.4-1.2-0.6-2h-1.9l0,0.3
		c0.8,0.6,1.4,1,1.6,1.3l-0.7,0.9c-0.2-0.3-0.6-0.6-1.1-0.9c-0.3,1.1-0.8,2.1-1.5,2.8l-0.9-0.6c0.9-0.9,1.4-2.1,1.4-3.7h-1.1v-1.1
		h3.9c-0.2-1.5-0.3-3.5-0.4-6.1h1.1c0,2.4,0.1,4.4,0.4,6.1h0.8c0-0.1-0.1-0.3-0.2-0.4l1.2-0.2c0.1,0.1,0.2,0.4,0.4,0.6h1.1v1.1h-3
		c0.1,0.4,0.2,0.8,0.4,1.2c0.3-0.3,0.6-0.7,0.9-1.1l1,0.5c-0.4,0.6-0.9,1.2-1.4,1.6c0.4,0.5,0.6,0.8,0.8,0.8c0.2,0,0.4-0.5,0.5-1.6
		L236.7,198.6z M231.9,194.9l-0.8,0.2c0-0.3-0.1-0.5-0.1-0.7c-0.7,0.1-1.4,0.2-2,0.3l-0.3-0.9c0.3-0.3,0.6-0.7,1.1-1.4
		c-0.4,0-0.7,0.1-0.9,0.1l-0.2-0.8c0.5-0.6,0.8-1.4,1.1-2.3l1,0.3c-0.4,0.9-0.7,1.5-0.9,1.8c0.2,0,0.4,0,0.6-0.1
		c0.1-0.1,0.2-0.4,0.4-0.9l0.9,0.5c-0.5,1-1.2,1.9-1.9,2.7c0.3,0,0.6,0,0.9-0.1c0-0.2-0.1-0.4-0.2-0.5l0.8-0.3
		C231.7,193.7,231.9,194.4,231.9,194.9z M236.6,194.9l-0.8,0.3l-0.1-0.7c-0.8,0.1-1.4,0.2-2,0.3l-0.3-0.9c0.3-0.2,0.6-0.7,1.1-1.3
		c-0.3,0.1-0.7,0.1-1,0.1l-0.2-0.9c0.5-0.6,0.9-1.4,1.2-2.3l1,0.4c-0.2,0.6-0.6,1.2-1.1,1.9c0.3,0,0.5,0,0.7-0.1
		c0.2-0.4,0.4-0.7,0.5-0.9l0.9,0.4c-0.4,0.9-1.1,1.8-1.9,2.7c0.2,0,0.5,0,0.8-0.1c0-0.2-0.1-0.3-0.2-0.5l0.8-0.3
		C236.3,193.5,236.5,194.2,236.6,194.9z"/>
	<path d="M245.5,194.3h-3v1.3h2.5v3.7c0,0.5-0.4,0.8-1.1,0.8c-0.2,0-0.4,0-0.7,0l-0.4-1.1c0.1,0,0.3,0,0.8,0c0,0,0.1,0,0.2-0.1
		c0.1,0,0.1-0.1,0.1-0.1v-2.1h-1.4v4h-1.2v-4h-1.5v3.4h-1.1v-4.5h2.6v-1.3h-3.1v-1.1h3.1v-1.3h-1.7c-0.1,0.2-0.3,0.6-0.5,1l-0.9-0.7
		c0.5-0.8,0.9-1.7,1.2-2.8l1.1,0.3c-0.1,0.5-0.2,0.8-0.3,1.1h1.2v-1.5h1.2v1.5h2.7v1.1h-2.7v1.3h3V194.3z M247.1,198.3H246v-8.1h1.1
		V198.3z M249.2,199.8c0,0.2-0.1,0.5-0.4,0.6c-0.3,0.2-1,0.3-2.1,0.3l-0.5-1.1c0.4,0,0.7,0,0.9,0c0.4,0,0.7,0,0.8-0.1
		c0.1,0,0.1-0.1,0.1-0.2v-9.9h1.2V199.8z"/>
	<path d="M197,218h-3.7v-3.8h3.7V218z"/>
	<path d="M210.6,220.8l-0.7,1c-2.5-1.9-4.2-3.9-5-6c-0.6,2.4-2.3,4.4-5,6l-0.8-0.9c3.4-2.1,5.1-4.9,5.1-8.3v-2.1h1.2v2.7
		c0,1.4,0.5,2.8,1.4,4.2C207.9,218.5,209.1,219.8,210.6,220.8z"/>
	<path d="M216.2,216l-0.8,0.8c-0.1-0.5-0.3-0.9-0.6-1.3v6.2h-1.1v-5.8c-0.2,1-0.6,1.8-1,2.5l-0.6-1.3c0.6-1,1.1-2.1,1.4-3.6h-1.2
		v-1.1h1.4v-2.1h1.1v2.1h1.1v1.1h-1.1v0.2C215.4,214.5,215.8,215.2,216.2,216z M223.6,221.2h-5.9v0.5h-1.1v-3.9
		c-0.2,0.2-0.4,0.4-0.8,0.7l-0.5-0.9c0.8-0.6,1.5-1.4,2.2-2.5l1,0.3c0,0.1-0.1,0.3-0.3,0.5h1.4c-0.1-0.1-0.2-0.3-0.3-0.5l1.1-0.2
		c0.1,0.1,0.2,0.4,0.4,0.7h2.7v0.8h-2.7v0.7h2.3v0.8h-2.3v0.7h2.3v0.8h-2.3v0.8h2.9V221.2z M219,212.4h-1.1v-0.6H216v-0.9h1.9l0-0.6
		h1.1V212.4z M219.4,214.9h-3.1v-2.2h3.1V214.9z M218.3,214.1v-0.6h-1v0.6H218.3z M219.5,217.3v-0.7h-1.9v0.7H219.5z M219.5,218.8
		v-0.7h-1.9v0.7H219.5z M219.5,220.4v-0.8h-1.9v0.8H219.5z M223.1,214.9H220v-2.2h3.1V214.9z M223.5,211.8h-2v0.6h-1.1v-2.1h1.1v0.6
		h2V211.8z M222,214.1v-0.6h-1v0.6H222z"/>
	<path d="M229.5,212.5h-4.3v-1h1.7c-0.1-0.2-0.2-0.5-0.4-0.9l1.1-0.3c0.2,0.4,0.4,0.8,0.5,1.2h1.4V212.5z M229.3,214.4h-3.7v-1h3.7
		V214.4z M229.3,216.3h-3.7v-1h3.7V216.3z M229.3,221.4h-1.1v-0.5h-1.4v0.9h-1.1v-4.5h3.7V221.4z M228.2,219.8v-1.5h-1.4v1.5H228.2z
		 M236.6,218h-2.7v3.7h-1.1V218h-3v-1.1h3v-5.2h-2.8v-1.1h6.4v1.1h-2.5v5.2h2.7V218z M232.2,216l-1.1,0.4c-0.2-0.9-0.5-2.2-1.1-3.7
		l1.1-0.4C231.6,213.4,231.9,214.7,232.2,216z M236.3,212.6c-0.3,1.3-0.6,2.6-1,3.8l-1.1-0.4c0.4-1.2,0.7-2.5,1-3.7L236.3,212.6z"/>
	<path d="M241.9,210.6c-0.1,0.4-0.4,1-0.7,1.6l-0.5,1v8.5h-1.2v-6.6c-0.3,0.4-0.6,0.7-0.9,1.1l-0.6-1.1c1-1.2,1.9-2.8,2.6-4.8
		L241.9,210.6z M249.6,213.9h-3.5v2.4h2.7v5.4h-1.2v-0.6h-4.3v0.6h-1.2v-5.4h2.7v-2.4h-3.5v-1.1h3.5v-2.4h1.2v2.4h3.5V213.9z
		 M247.6,220v-2.5h-4.3v2.5H247.6z"/>
</g>
<g>
	<path d="M338.1,197h-3.7v-3.8h3.7V197z"/>
	<path d="M344.9,191.5h-4.5v-1.1h1.8c-0.2-0.3-0.3-0.6-0.4-0.8l1.1-0.4c0.2,0.3,0.4,0.7,0.6,1.2h1.5V191.5z M344.6,193.5h-3.9v-1
		h3.9V193.5z M344.6,195.4h-3.9v-1h3.9V195.4z M344.6,200.4h-1.1v-0.5h-1.6v0.8h-1.1v-4.4h3.9V200.4z M343.5,198.8v-1.5h-1.6v1.5
		H343.5z M347.1,196.5c0,1.7-0.4,3.1-1.3,4.3l-0.9-0.7c0.7-1,1.1-2.5,1.1-4.3v-6.5h1.1V196.5z M349.2,199.6h-1.1v-9.4h1.1V199.6z
		 M351.5,200.7h-1.1v-11.4h1.1V200.7z"/>
	<path d="M355,197.7c-0.2,1.2-0.4,2.2-0.7,3.1l-1-0.5c0.3-0.9,0.5-1.8,0.6-2.9L355,197.7z M357.9,196.8l-1,0.4
		c0-0.2-0.1-0.4-0.2-0.6c-0.9,0.2-1.9,0.4-3,0.6l-0.4-1c0.8-0.7,1.5-1.6,2.2-2.7c-0.7,0.1-1.3,0.2-1.8,0.3l-0.2-1
		c0.8-0.9,1.4-2,2-3.5l1.1,0.4c-0.5,1.1-1.1,2.1-1.8,2.9c0.3,0,0.8-0.1,1.5-0.3c0.2-0.3,0.4-0.7,0.6-1.1l1,0.5
		c-0.8,1.6-1.8,3-2.9,4.2c0.4-0.1,0.9-0.2,1.5-0.3c0-0.2-0.1-0.4-0.2-0.7l1-0.4C357.5,195.3,357.7,196.1,357.9,196.8z M356.5,200.1
		l-1,0.2c0-1-0.1-1.9-0.2-2.6l0.9-0.2C356.4,198.5,356.5,199.3,356.5,200.1z M357.9,198.7L357,199c-0.1-0.5-0.2-1-0.4-1.5l0.9-0.3
		C357.7,197.8,357.8,198.3,357.9,198.7z M364.9,199.6l-0.6,0.9c-1.1-0.8-2-1.7-2.5-2.8v2.9h-1.1v-2.9c-0.6,0.9-1.5,1.8-2.8,2.8
		l-0.6-1c1.3-0.8,2.3-1.8,3-2.9h-2v-4.5h2.5v-0.9h-2.9v-1.1h2.9v-0.9h1.1v0.9h2.9v1.1h-2.9v0.9h2.4v4.5h-1.9
		C362.5,197.6,363.4,198.6,364.9,199.6z M360.6,195.7v-2.5h-1.4v2.5H360.6z M360.4,195.2l-0.7,0.2c0-0.5-0.2-1-0.3-1.7l0.6-0.2
		C360.2,194.1,360.3,194.6,360.4,195.2z M363.1,195.7v-2.5h-1.4v2.5H363.1z M362.9,193.7c-0.1,0.7-0.2,1.2-0.4,1.7l-0.6-0.2
		c0.2-0.6,0.3-1.2,0.3-1.7L362.9,193.7z"/>
	<path d="M370.9,198.9c-1,0.7-2.3,1.4-3.9,1.9l-0.7-1c1.4-0.5,2.6-1,3.5-1.7L370.9,198.9z M377.7,198h-11.3V197h0.9l-0.1-6.8
		c0.9-0.2,1.7-0.5,2.5-0.9l0.6,1c-0.5,0.3-1.2,0.5-1.9,0.7l0,1.2h1.5v1.1h-1.5l0,1.3h1.5v1h-1.4l0,1.4h7.2l0.1-1.4h-1.4v-1h1.4
		l0-1.3h-1.4v-1h1.4l0-1.3h-1.5v-1.1h2.7l-0.2,7.2h0.9V198z M371.8,193.7c-0.2,1.1-0.5,2.1-1,2.9l-0.9-0.6c0.4-0.9,0.7-1.7,0.8-2.5
		L371.8,193.7z M373.9,191.1h-2.1l-0.1,0.9h2.2c0,0.7,0,1.5-0.1,2.4s-0.1,1.4-0.3,1.6c-0.1,0.2-0.3,0.3-0.5,0.4s-0.6,0.1-1.1,0.1
		l-0.4-1.1c0.2,0,0.3,0,0.5,0c0.2,0,0.3,0,0.4-0.1c0.1,0,0.1-0.1,0.1-0.1c0-0.1,0-0.3,0.1-0.8c0-0.5,0.1-1,0.1-1.4h-2.4l0.5-3.7h1.1
		l-0.1,0.7h2V191.1z M377.8,199.9l-0.7,1c-1.2-0.7-2.5-1.3-3.7-1.7l0.7-1C375.4,198.7,376.6,199.2,377.8,199.9z"/>
	<path d="M386.1,190.1c-0.5,0.9-1,1.7-1.5,2.4h1v1h-1.8c-0.2,0.2-0.5,0.6-1,1h2.3v1c-0.4,0.4-1,0.9-1.6,1.4v0.2
		c0.8-0.1,1.6-0.3,2.3-0.4l0,1.1c-0.4,0.1-1.2,0.2-2.3,0.4v1.4c0,0.4-0.1,0.7-0.3,0.9s-0.6,0.3-1.2,0.3c-0.2,0-0.5,0-0.8,0l-0.3-1.1
		c0.4,0,0.7,0,0.9,0c0.4,0,0.6-0.1,0.6-0.3v-1.1c-1.2,0.2-2.1,0.3-2.6,0.3l-0.2-1.1c1-0.1,1.9-0.1,2.8-0.3v-0.8
		c0.4-0.3,0.9-0.6,1.2-0.9h-2.1c-0.3,0.2-0.8,0.5-1.5,0.9l-0.6-0.9c1.1-0.5,2.1-1.2,3-2h-2.9v-1h2.4v-1.1h-1.9v-1h1.9v-1.1h1.1v1.1
		h1.3v0.9c0.4-0.7,0.8-1.2,1-1.6L386.1,190.1z M384.1,191.4h-1.3v1.1h0.4C383.5,192.2,383.8,191.9,384.1,191.4z M390.8,199.9
		l-0.7,0.9c-0.9-0.6-1.7-1.2-2.2-2c-0.7,0.8-1.6,1.4-2.6,1.9l-0.8-0.9c1.2-0.6,2.1-1.2,2.7-2c-0.3-0.6-0.6-1.4-0.9-2.6l1-0.5
		c0.1,0.8,0.3,1.5,0.6,2c0.5-1.1,0.8-2.6,0.9-4.5h-1.4c-0.3,1.1-0.8,2.2-1.4,3.2l-0.7-0.9c0.9-1.5,1.4-3.3,1.7-5.3l1.1,0.2
		c-0.1,0.6-0.2,1.2-0.3,1.7h3v1.1h-0.8c-0.1,2.6-0.6,4.4-1.3,5.7C389.1,198.7,389.9,199.3,390.8,199.9z"/>
	<path d="M403.7,191.2H397c-0.6,0.6-1.3,1-1.9,1.4c1.6,0,3.3-0.1,5.3-0.2c-0.1-0.1-0.4-0.2-0.7-0.4l1.1-0.6c1.2,0.7,2.1,1.3,2.7,1.9
		l-0.9,0.8c-0.3-0.3-0.6-0.6-1-0.8c-3.3,0.3-6.1,0.4-8.4,0.4l-0.2-1c0.9-0.3,1.7-0.8,2.4-1.4h-3v-1h4.1c0.3-0.3,0.5-0.6,0.8-1
		l1.4,0.2c-0.1,0.2-0.3,0.4-0.6,0.7h5.6V191.2z M402.4,199.7c0,0.2-0.1,0.4-0.2,0.6c-0.1,0.2-0.3,0.3-0.5,0.4s-0.6,0.1-1.2,0.1
		c-0.4,0-0.7,0-1.1,0l-0.3-1.1c0.4,0,0.7,0.1,1.1,0.1c0.5,0,0.8,0,0.9-0.1c0.1,0,0.1-0.1,0.1-0.2v-1.2c-1.8,0.4-3.8,0.8-6,1.2
		l-0.4-0.8c-0.3,1.1-0.8,1.9-1.3,2.4l-1-0.7c0.9-0.7,1.4-1.8,1.4-3.4v-2.6h8.6V199.7z M401.2,197v-1.9H395v0.7
		c2.1,0.1,3.8,0.2,5.2,0.3l-0.3,1c-1.7-0.2-3.3-0.2-4.9-0.2c0,0.6-0.1,1-0.1,1.4C396.9,197.9,399.1,197.5,401.2,197z"/>
	<path d="M338.1,218h-3.7v-3.8h3.7V218z"/>
	<path d="M351.8,220.7l-0.5,1.1c-1.6-0.5-3-1.1-4.1-1.8c-1.1,0.7-2.5,1.3-4.1,1.8l-0.6-1c1.6-0.5,2.8-1,3.7-1.5
		c-1.1-1.1-2-2.5-2.8-4.4h-0.5c0,1.9-0.1,3.4-0.4,4.4s-0.6,1.9-1.1,2.6l-1-0.7c0.9-1.2,1.3-3.2,1.3-5.8v-4.7h9.9v1.1h-8.7v2h8.1v1.2
		c-0.9,2-1.8,3.4-2.9,4.3C349,219.8,350.3,220.3,351.8,220.7z M349.7,214.8h-5.1c0.7,1.7,1.5,2.9,2.5,3.7
		C348.1,217.7,349,216.5,349.7,214.8z"/>
	<path d="M364.8,213l-0.6,0.9c-1.3-0.4-2.4-0.8-3.3-1.3v0.4h-3.9v-0.5c-1.1,0.6-2.2,1-3.2,1.3l-0.6-0.9c2.5-0.8,4.3-1.7,5.4-2.7
		l1.2,0.3c0,0-0.1,0.1-0.1,0.2C361,211.6,362.7,212.3,364.8,213z M363.2,219.9h-5.6l0.6,0.4c-1,0.6-2.4,1.1-4.1,1.4l-0.7-1
		c1.4-0.3,2.5-0.6,3.3-0.9H355V215h5.1c0.3-0.2,0.6-0.3,0.9-0.6h-5.5v-0.9h7v0.9c-0.2,0.2-0.5,0.4-0.8,0.6h1.5V219.9z M362,216.4
		v-0.5h-5.9v0.5H362z M362,217.7v-0.5h-5.9v0.5H362z M362,219v-0.6h-5.9v0.6H362z M360.2,212.1c-0.3-0.2-0.7-0.5-1.1-0.9
		c-0.6,0.4-1,0.7-1.3,0.9H360.2z M364.8,220.9l-0.6,1c-1.4-0.4-2.7-0.6-3.8-0.7l0.5-0.9C362.4,220.3,363.7,220.5,364.8,220.9z"/>
	<path d="M377.7,212.2h-9.5v4.8c0,1.9-0.3,3.5-1,4.8l-0.9-0.7c0.5-1.2,0.8-2.6,0.8-4.3v-5.5h4.6c-0.1-0.1-0.2-0.4-0.4-0.7l1.2-0.2
		c0.2,0.3,0.4,0.6,0.5,0.9h4.7V212.2z M371.6,212.7c-0.2,0.3-0.5,0.7-0.8,1v2.5h-1.1v-1.5c-0.2,0.2-0.5,0.4-0.8,0.6l-0.5-0.9
		c0.9-0.7,1.7-1.4,2.2-2.1L371.6,212.7z M377.2,220.8c0,0.3-0.1,0.6-0.3,0.7c-0.2,0.1-0.5,0.2-1,0.2c-0.2,0-0.3,0-0.4,0l-0.3-0.8
		l-0.2,0.3c-0.6-0.4-1.2-0.8-2-1.1c-0.5,0.4-1.1,0.8-2,1.1l-0.5-0.8c1.1-0.3,1.9-1,2.5-1.8l0.9,0.3c-0.1,0.1-0.1,0.3-0.3,0.5
		c0.8,0.4,1.4,0.7,1.9,1l-0.1,0.2c0.2,0,0.4,0,0.4,0c0.2,0,0.3-0.1,0.3-0.3v-2.8h-2.2c0.9,0.4,1.5,0.8,2,1l-0.5,0.8
		c-0.7-0.5-1.5-0.9-2.5-1.3c-0.5,0.5-1,1-1.6,1.4l-0.6-0.8c0.7-0.4,1.1-0.8,1.5-1.2h-1.8v4.1h-1.1v-5.1h3.5c0.1-0.2,0.2-0.5,0.3-0.8
		l1,0.1c0,0.2-0.1,0.4-0.2,0.6h3.4V220.8z M377.7,213.9h-1.1v1.2c0,0.4-0.1,0.6-0.2,0.8s-0.4,0.2-0.7,0.2s-0.7,0-1.2,0l-0.3-0.9
		l1.2,0c0.1,0,0.2-0.1,0.2-0.2v-1.1h-3.9V213h3.9v-0.6h1.1v0.6h1.1V213.9z M374.2,214.9l-0.8,0.7c-0.3-0.3-0.8-0.6-1.4-0.9l0.8-0.6
		C373.3,214.3,373.8,214.6,374.2,214.9z"/>
</g>
<g>
	<path d="M76,120h-3.7v-3.8H76V120z"/>
	<path d="M83.7,122.7c0,0.2-0.1,0.5-0.2,0.6s-0.3,0.3-0.4,0.3c-0.2,0.1-0.5,0.1-0.9,0.1c-0.2,0-0.5,0-0.8,0l-0.3-1.1
		c0.2,0,0.4,0,0.7,0c0.4,0,0.6,0,0.6-0.1c0.1,0,0.1-0.1,0.1-0.2V121c-1.5,0.7-2.3,1-2.4,1l-0.3-0.5c-0.1,0.9-0.4,1.7-0.8,2.3
		l-0.9-0.8c0.4-0.7,0.6-1.9,0.6-3.5v-2.8h4.8V122.7z M84.5,115.5l-0.9,0.6c-0.2-0.3-0.3-0.5-0.5-0.7c-1.4,0.2-2.9,0.4-4.6,0.6
		l-0.3-0.9c0.9-0.8,1.6-1.8,2.1-2.9l1.1,0.4c-0.5,1-1.1,1.7-1.6,2.3c0.7,0,1.5-0.2,2.5-0.3c-0.3-0.4-0.6-0.7-0.9-1l1-0.6
		C83.3,113.8,84,114.6,84.5,115.5z M82.5,119.9v-2.1H80v0.7c0.9,0.1,1.6,0.3,2.2,0.5l-0.4,1c-0.4-0.1-1-0.3-1.9-0.4
		c0,0.5,0,1-0.1,1.5C80.5,120.8,81.3,120.5,82.5,119.9z M89.6,121.4c0,0.9-0.1,1.4-0.3,1.6c-0.2,0.2-0.3,0.4-0.5,0.5
		c-0.2,0.1-0.8,0.1-1.9,0.1c-0.9,0-1.4,0-1.6-0.1c-0.2-0.1-0.4-0.2-0.5-0.4s-0.2-0.4-0.2-0.6v-4.6h1.1v1.7h3.4v1h-3.4v1.7
		c0,0.2,0.1,0.3,0.3,0.3H88c0.2,0,0.3-0.1,0.3-0.2s0.1-0.6,0.2-1.3L89.6,121.4z M89.4,117.4h-3.6c-0.3,0-0.6-0.1-0.8-0.3
		c-0.2-0.2-0.3-0.5-0.3-0.8v-3.9h1.1v1.4h3.4v1h-3.4v1.3c0,0,0,0.1,0.1,0.2c0.1,0.1,0.1,0.1,0.2,0.1h3.3V117.4z"/>
	<path d="M93.7,119.4c-0.4,1.5-0.9,2.9-1.5,4.2l-1-0.7c0.6-1.3,1.1-2.7,1.4-4.3L93.7,119.4z M94,117.1l-0.7,1
		c-0.5-0.6-1.2-1.1-2-1.5l0.7-1C92.6,115.9,93.3,116.4,94,117.1z M94.1,114l-0.8,0.9c-0.5-0.6-1.1-1.2-1.9-1.8l0.8-0.9
		C92.9,112.8,93.6,113.4,94.1,114z M102.5,113.6h-2.8c-0.1,0.3-0.2,0.6-0.4,1h2.8v4.8h-2.4v3.4c0,0.3-0.1,0.5-0.3,0.7
		c-0.2,0.1-0.6,0.2-1.1,0.2c-0.2,0-0.5,0-0.7,0l-0.5-1.2c0.3,0,0.6,0,0.9,0c0.3,0,0.4,0,0.5-0.1s0.1-0.1,0.1-0.2v-2.8h-2.4v-4.8H98
		c0.1-0.2,0.2-0.6,0.4-1h-2.8v4.4c0,2.3-0.4,4.2-1.3,5.8l-1-0.7c0.7-1.5,1.1-3.2,1.1-5.2v-5.4h8.2V113.6z M98,120.4
		c-0.5,1.1-1.1,2-1.8,2.8l-1-0.8c0.6-0.7,1.2-1.6,1.6-2.6L98,120.4z M101,116.5v-0.9h-3.6v0.9H101z M101,118.4v-0.9h-3.6v0.9H101z
		 M102.7,122.5l-1,0.7c-0.2-0.7-0.7-1.7-1.3-2.9l1-0.6C101.9,120.6,102.4,121.5,102.7,122.5z"/>
	<path d="M109.2,113.2l-4.7,11.5h-1.4l4.7-11.5H109.2z"/>
	<path d="M121.4,116.3l-0.5,1c-0.3-0.1-0.7-0.2-1.1-0.3v4.9h-5.5l0.6,0.6c-1.2,0.6-2.7,1-4.3,1.3l-0.6-1c1.2-0.1,2.4-0.4,3.5-0.9
		h-1.9V117h2.5l-0.5-0.7c1.5-0.4,2.7-1.1,3.4-2l1.2,0.3c-0.1,0.2-0.2,0.4-0.3,0.4C118.7,115.5,119.9,116,121.4,116.3z M113.8,115.9
		H110v-1.1h3.8V115.9z M113.7,113.9h-3.5v-1h3.5V113.9z M118.6,118.4v-0.5h-5.8v0.5H118.6z M118.6,119.7v-0.5h-5.8v0.5H118.6z
		 M118.6,121v-0.5h-5.8v0.5H118.6z M121.2,114c-0.4,0.6-0.8,1.1-1.1,1.5l-1-0.6c0.1-0.1,0.3-0.4,0.7-0.9h-4.1
		c-0.4,0.5-0.8,0.8-1.1,1.1l-0.9-0.8c0.7-0.5,1.3-1.2,1.9-2.2l1.1,0.4c0,0.1-0.1,0.3-0.2,0.5h4.8V114z M119.6,117
		c-0.9-0.3-1.7-0.7-2.5-1.3c-0.5,0.5-1.2,0.9-2.1,1.3H119.6z M121.3,122.9l-0.6,1c-1.1-0.4-2.4-0.6-3.8-0.8l0.6-1
		C118.9,122.2,120.1,122.5,121.3,122.9z"/>
	<path d="M125.4,119.4c-0.4,1.5-0.9,2.9-1.5,4.2l-1-0.7c0.6-1.3,1.1-2.7,1.4-4.3L125.4,119.4z M125.8,117.1l-0.7,1
		c-0.5-0.6-1.2-1.1-2-1.5l0.7-1C124.3,115.9,125,116.4,125.8,117.1z M125.8,114l-0.8,0.9c-0.5-0.6-1.1-1.2-1.9-1.8l0.8-0.9
		C124.7,112.8,125.3,113.4,125.8,114z M134.3,113.6h-2.8c-0.1,0.3-0.2,0.6-0.4,1h2.8v4.8h-2.4v3.4c0,0.3-0.1,0.5-0.3,0.7
		c-0.2,0.1-0.6,0.2-1.1,0.2c-0.2,0-0.5,0-0.7,0l-0.5-1.2c0.3,0,0.6,0,0.9,0c0.3,0,0.4,0,0.5-0.1s0.1-0.1,0.1-0.2v-2.8H128v-4.8h1.7
		c0.1-0.2,0.2-0.6,0.4-1h-2.8v4.4c0,2.3-0.4,4.2-1.3,5.8l-1-0.7c0.7-1.5,1.1-3.2,1.1-5.2v-5.4h8.2V113.6z M129.7,120.4
		c-0.5,1.1-1.1,2-1.8,2.8l-1-0.8c0.6-0.7,1.2-1.6,1.6-2.6L129.7,120.4z M132.8,116.5v-0.9h-3.6v0.9H132.8z M132.8,118.4v-0.9h-3.6
		v0.9H132.8z M134.5,122.5l-1,0.7c-0.2-0.7-0.7-1.7-1.3-2.9l1-0.6C133.7,120.6,134.1,121.5,134.5,122.5z"/>
	<path d="M139.2,112.4c-0.1,0.4-0.2,0.9-0.5,1.5l-0.3,0.9v8.8h-1.2v-6.3c-0.2,0.3-0.4,0.7-0.7,1.1l-0.6-1.3c0.8-1.2,1.5-2.8,2.1-4.9
		L139.2,112.4z M147.5,122.6l-0.5,1.1c-2-0.2-3.6-0.6-4.8-1.3c-0.8,0.7-1.8,1.1-2.8,1.4l-0.6-1c1-0.3,1.8-0.6,2.4-1.1
		c-0.5-0.5-1-1-1.4-1.5l1-0.6c0.3,0.5,0.7,0.9,1.2,1.3c0.3-0.4,0.5-0.9,0.5-1.6h-3v-3.6h3v-1.1h-3.4v-1.1h3.4v-1.2h1.2v1.2h3.4v1.1
		h-3.4v1.1h3v3.6h-3c-0.1,0.9-0.3,1.6-0.7,2.2C144.3,122.1,145.8,122.5,147.5,122.6z M142.5,116.8h-1.8v1.5h1.8
		C142.5,117.8,142.6,117.3,142.5,116.8z M145.5,118.2v-1.5h-1.8c0,0.5,0,1,0,1.5H145.5z"/>
	<path d="M159.7,122.4c0,0.4-0.1,0.7-0.4,0.9s-0.7,0.4-1.3,0.4c-0.3,0-0.6,0-0.9,0l-0.3-1.1l1.5,0c0.1,0,0.2,0,0.3-0.1
		c0.1-0.1,0.1-0.2,0.1-0.3v-2.3h-3.2v3.6h-1.1v-3.6h-3.1c-0.1,1.7-0.5,3-1.2,4l-1-0.7c0.4-0.5,0.6-1.3,0.8-2.1
		c0.2-0.9,0.3-1.7,0.3-2.6v-5.8h9.6V122.4z M154.2,115.6v-1.9h-3v1.9H154.2z M154.2,118.7v-1.9h-3v1.9H154.2z M158.5,115.6v-1.9
		h-3.2v1.9H158.5z M158.5,118.7v-1.9h-3.2v1.9H158.5z"/>
	<path d="M83.1,143.7l-0.6,1c-1.3-0.6-2.4-1.2-3.3-1.8c-1.1,0.7-2.4,1.4-4.1,1.9l-0.6-1c1.5-0.5,2.7-1,3.7-1.7
		c-0.8-0.8-1.7-2-2.4-3.4c-0.5,2.4-1.6,4.4-3.4,6l-0.8-0.9c1.1-1,1.9-2.1,2.4-3.3c0.5-1.1,0.8-3.1,1-5.8h-2.4v-1.1h8.7
		c-0.3,1.2-0.7,2.4-1.1,3.5h2.1c-0.4,2.3-1.1,4-2.3,5.1C80.9,142.7,81.9,143.3,83.1,143.7z M79.8,134.7h-3.6c0,0.8-0.1,1.6-0.2,2.4
		h3C79.3,136.4,79.6,135.6,79.8,134.7z M80.9,138.2h-4.1c0.7,1.4,1.5,2.5,2.4,3.3C80,140.6,80.5,139.5,80.9,138.2z"/>
	<path d="M90.3,135.3h-3.4c-0.4,0.6-0.9,1.2-1.4,1.5l-0.8-0.9c0.9-0.8,1.5-1.7,2-2.7l1.2,0.2c-0.1,0.2-0.2,0.5-0.4,0.8h2.8V135.3z
		 M90.6,144l-1.1,0.4c-0.1-0.4-0.3-0.7-0.3-0.9c-1.3,0.5-2.5,0.9-3.6,1.1l-0.4-0.9c0.1-0.1,0.2-0.3,0.2-0.5v-6h4.8v4.2h-3.7v1.9
		c0.6-0.1,1.3-0.4,2.2-0.6c0-0.1-0.1-0.3-0.3-0.5l1.1-0.4C90.1,142.7,90.5,143.4,90.6,144z M89.1,138.8v-0.6h-2.5v0.6H89.1z
		 M89.1,140.4v-0.7h-2.5v0.7H89.1z M89.3,136.6L88,137c-0.2-0.4-0.4-0.8-0.6-1.1l1.2-0.3C88.9,136,89.1,136.3,89.3,136.6z
		 M96.1,135.3h-4c-0.4,0.6-0.8,1.2-1.2,1.6l-0.9-0.8c0.7-0.7,1.3-1.7,1.9-2.9l1.2,0.2c-0.1,0.2-0.2,0.5-0.3,0.8h3.4V135.3z
		 M95.5,142.7c0,0.3-0.1,0.6-0.3,0.8s-0.5,0.3-0.8,0.3c-0.5,0-0.9,0-1.1,0l-0.4-1.1c0.2,0,0.5,0,0.9,0c0.3,0,0.5,0,0.6-0.1
		c0.1,0,0.1-0.1,0.1-0.2v-4.2h-2.1v6.5h-1.1v-7.5h4.4V142.7z M94.5,136.5l-1.2,0.4c-0.1-0.3-0.3-0.6-0.6-1.1l1.2-0.4
		C94.1,135.8,94.3,136.2,94.5,136.5z"/>
	<path d="M103.2,143.7c0,0.2-0.1,0.5-0.2,0.6s-0.3,0.3-0.4,0.3c-0.2,0.1-0.5,0.1-0.9,0.1c-0.2,0-0.5,0-0.8,0l-0.3-1.1
		c0.2,0,0.4,0,0.7,0c0.4,0,0.6,0,0.6-0.1c0.1,0,0.1-0.1,0.1-0.2V142c-1.5,0.7-2.3,1-2.4,1l-0.3-0.5c-0.1,0.9-0.4,1.7-0.8,2.3
		l-0.9-0.8c0.4-0.7,0.6-1.9,0.6-3.5v-2.8h4.8V143.7z M104,136.5l-0.9,0.6c-0.2-0.3-0.3-0.5-0.5-0.7c-1.4,0.2-2.9,0.4-4.6,0.6
		l-0.3-0.9c0.9-0.8,1.6-1.8,2.1-2.9l1.1,0.4c-0.5,1-1.1,1.7-1.6,2.3c0.7,0,1.5-0.2,2.5-0.3c-0.3-0.4-0.6-0.7-0.9-1l1-0.6
		C102.8,134.8,103.5,135.6,104,136.5z M102,140.9v-2.1h-2.5v0.7c0.9,0.1,1.6,0.3,2.2,0.5l-0.4,1c-0.4-0.1-1-0.3-1.9-0.4
		c0,0.5,0,1-0.1,1.5C100,141.8,100.8,141.5,102,140.9z M109.1,142.4c0,0.9-0.1,1.4-0.3,1.6c-0.2,0.2-0.3,0.4-0.5,0.5
		c-0.2,0.1-0.8,0.1-1.9,0.1c-0.9,0-1.4,0-1.6-0.1c-0.2-0.1-0.4-0.2-0.5-0.4s-0.2-0.4-0.2-0.6v-4.6h1.1v1.7h3.4v1h-3.4v1.7
		c0,0.2,0.1,0.3,0.3,0.3h1.9c0.2,0,0.3-0.1,0.3-0.2s0.1-0.6,0.2-1.3L109.1,142.4z M108.9,138.4h-3.6c-0.3,0-0.6-0.1-0.8-0.3
		c-0.2-0.2-0.3-0.5-0.3-0.8v-3.9h1.1v1.4h3.4v1h-3.4v1.3c0,0,0,0.1,0.1,0.2c0.1,0.1,0.1,0.1,0.2,0.1h3.3V138.4z"/>
	<path d="M113.2,140.4c-0.4,1.5-0.9,2.9-1.5,4.2l-1-0.7c0.6-1.1,1.1-2.5,1.5-4.1L113.2,140.4z M113.5,138.1l-0.8,1
		c-0.5-0.6-1.2-1.2-2-1.7l0.8-0.9C112.2,136.8,112.8,137.4,113.5,138.1z M113.6,134.9l-0.8,1c-0.5-0.6-1.1-1.2-1.9-1.8l0.8-0.8
		C112.4,133.7,113,134.3,113.6,134.9z M122.2,142.6c-0.3,1.4-0.8,2.2-1.6,2.2c-0.3,0-0.6-0.1-0.8-0.4c-0.2-0.2-0.4-0.7-0.6-1.4
		c-0.6,0.6-1.3,1.2-1.9,1.6l-0.8-0.8c1.1-0.8,1.9-1.5,2.4-2.1c-0.2-1.7-0.3-3.7-0.3-5.8h-3.7v3.4c0,2.2-0.4,4-1.2,5.5l-1-0.7
		c0.7-1.3,1-2.9,1-4.9v-4.3h4.8c0-0.7,0-1.2,0-1.5h1.1c0,0.6,0,1.1,0,1.5h2.2v1h-2.2c0,1.9,0.1,3.4,0.2,4.3c0.3-0.8,0.6-1.9,0.8-3.3
		l1,0.4c-0.3,2-0.9,3.5-1.6,4.7c0.2,1,0.4,1.5,0.5,1.5c0.2,0,0.4-0.5,0.5-1.5L122.2,142.6z M118.3,137.6h-3v-1h3V137.6z
		 M118.2,142.3h-2.7v-3.8h2.7V142.3z M117.2,141.3v-1.8h-0.7v1.8H117.2z M121.8,134.1l-0.7,0.6c-0.3-0.3-0.6-0.5-1.1-0.8l0.7-0.6
		C121.2,133.6,121.5,133.8,121.8,134.1z"/>
	<path d="M128.1,134.8h-1.5c-0.2,0.9-0.5,1.8-0.8,2.7h2v6.2h-1.1v-0.5h-1v0.9h-1.1v-4.3c-0.3,0.3-0.4,0.5-0.5,0.6l-0.6-1.1
		c0.8-1,1.5-2.5,1.8-4.4h-1.7v-1.1h4.3V134.8z M126.7,142.1v-3.5h-1v3.5H126.7z M135,138h-5.3v2c0,1-0.1,1.9-0.2,2.6
		c-0.1,0.7-0.4,1.4-0.7,2.2l-0.9-0.8c0.4-1,0.7-2.4,0.7-4.1v-3h6.4V138z M134.6,136.2h-5.9v-2.5h1.1v1.4h1.3v-1.7h1.1v1.7h1.3v-1.4
		h1.1V136.2z M135.2,143.9l-0.7,0.8c-0.9-0.5-1.6-1.4-2.1-2.5c-0.5,1.1-1.2,2-2.1,2.5l-0.7-0.8c0.7-0.5,1.3-1.1,1.6-1.7
		c0.4-0.7,0.6-1.5,0.6-2.6v-1.2h1.1v1.4c0,0.3,0,0.6,0.1,0.8c0.4-0.4,0.8-0.9,1.2-1.5l0.8,0.7c-0.5,0.7-1.1,1.3-1.7,1.8
		C133.6,142.6,134.3,143.4,135.2,143.9z M131.4,141.1l-1,0.4c-0.1-0.6-0.2-1.4-0.5-2.2l1-0.3C131.1,139.9,131.3,140.6,131.4,141.1z"
		/>
</g>
<g>
	<path d="M76,41.5h-3.7v-3.8H76V41.5z"/>
	<path d="M89.7,37.8l-0.5,1c-0.3-0.1-0.7-0.2-1.1-0.3v4.9h-5.5l0.6,0.6c-1.2,0.6-2.7,1-4.3,1.3l-0.6-1c1.2-0.1,2.4-0.4,3.5-0.9h-1.9
		v-4.9h2.5l-0.5-0.7c1.5-0.4,2.7-1.1,3.4-2l1.2,0.3c-0.1,0.2-0.2,0.4-0.3,0.4C87,37,88.2,37.5,89.7,37.8z M82.1,37.4h-3.8v-1.1h3.8
		V37.4z M82,35.4h-3.5v-1H82V35.4z M86.8,39.9v-0.5H81v0.5H86.8z M86.8,41.2v-0.5H81v0.5H86.8z M86.8,42.5V42H81v0.5H86.8z
		 M89.4,35.5c-0.4,0.6-0.8,1.1-1.1,1.5l-1-0.6c0.1-0.1,0.3-0.4,0.7-0.9h-4.1c-0.4,0.5-0.8,0.8-1.1,1.1l-0.9-0.8
		c0.7-0.5,1.3-1.2,1.9-2.2l1.1,0.4c0,0.1-0.1,0.3-0.2,0.5h4.8V35.5z M87.9,38.5c-0.9-0.3-1.7-0.7-2.5-1.3c-0.5,0.5-1.2,0.9-2.1,1.3
		H87.9z M89.6,44.3l-0.6,1c-1.1-0.4-2.4-0.6-3.8-0.8l0.6-1C87.1,43.7,88.4,44,89.6,44.3z"/>
	<path d="M95.5,36h-4.2v-1h1.7c-0.1-0.2-0.2-0.5-0.4-0.8l1.1-0.4c0.2,0.4,0.4,0.8,0.6,1.2h1.3V36z M95.2,37.9h-3.6v-1h3.6V37.9z
		 M95.2,39.8h-3.6v-1h3.6V39.8z M95.2,44.9H94v-0.6h-1.4v0.9h-1.1v-4.5h3.6V44.9z M94,43.2v-1.5h-1.4v1.5H94z M102.7,42.2
		c-0.1,0.7-0.2,1.3-0.4,1.9c-0.2,0.6-0.3,0.9-0.5,1.1c-0.2,0.1-0.4,0.2-0.6,0.2c-0.3,0-0.5-0.1-0.7-0.3c-0.2-0.2-0.4-0.8-0.5-1.7
		c-0.2-1-0.3-1.8-0.3-2.6v-5.4h-1.8v3.5h1.4v1.1h-1.4v5.4H97v-5.4h-1.2v-1.1H97v-3.5h-1.1v-1.1h5v6.8c0,1,0.1,2,0.4,2.9
		c0.2-0.6,0.3-1.4,0.3-2.3L102.7,42.2z"/>
	<path d="M108.1,37h-1.3v1.8c0.4-0.2,0.7-0.4,1-0.6l0.1,1.1c-0.4,0.2-0.8,0.4-1.2,0.6v4c0,0.9-0.4,1.3-1.1,1.3c-0.5,0-0.9,0-1.1,0
		l-0.3-1.1c0.2,0,0.6,0,1.2,0c0.1,0,0.1,0,0.2-0.1c0.1-0.1,0.1-0.1,0.1-0.2v-3.3c-0.3,0.2-0.8,0.4-1.4,0.6l-0.3-1
		c0.9-0.4,1.4-0.6,1.6-0.7V37h-1.5v-1.1h1.5v-2.1h1.1v2.1h1.3V37z M115.4,39.1c0,0.9,0,1.9-0.1,3.1s-0.1,1.8-0.1,2s-0.1,0.4-0.2,0.5
		c-0.1,0.1-0.3,0.3-0.5,0.3s-0.5,0.1-0.9,0.1c-0.1,0-0.2,0-0.3,0l-0.3-1.1c0.4,0,0.6,0,0.7,0c0.2,0,0.4-0.1,0.4-0.4
		c0.1-0.3,0.1-1.5,0.2-3.7h-1.6c0,0.2-0.1,0.4-0.2,0.7c0.7,0.5,1.2,1,1.5,1.5l-0.7,0.7c-0.4-0.5-0.8-1-1.3-1.4
		c-0.4,0.5-0.9,1-1.4,1.3l-0.7-0.8c1-0.5,1.5-1.2,1.7-2.1h-2c-0.5,0.4-1,0.8-1.7,1.2l-0.6-1c1.1-0.6,2-1.3,2.5-2h-1.1v-4.2h6.3v4.2
		H111c-0.2,0.3-0.4,0.6-0.5,0.8H115.4z M112.7,44.1h-3.3c-0.6,0-0.9-0.3-0.9-0.9v-2.1h1.1v1.8c0,0,0,0.1,0.1,0.1s0.1,0.1,0.1,0.1
		h2.9V44.1z M113.9,35.7V35h-4v0.7H113.9z M113.9,37.4v-0.7h-4v0.7H113.9z"/>
	<path d="M122.2,44.5c-2,0.4-3.6,0.6-4.8,0.8l-0.3-0.9c0.3,0,0.5,0,0.7-0.1v-2.1h1v2l0.7-0.1v-2.6h-1.7V39h4v2.4h-1.2v0.8h1.2v0.9
		h-1.2v0.7c0.5-0.1,1.1-0.2,1.6-0.3V44.5z M128.4,38.3h-1.1v-2h-3.8v2.4h-1.1v-2.4h-3.8v2h-1.1v-2.9h4.9v-0.5H118V34h10v0.9h-4.5
		v0.5h4.9V38.3z M122.1,38.3c-0.8,0.1-1.7,0.3-2.9,0.3l-0.2-0.7c1.1,0,2.1-0.1,3-0.3L122.1,38.3z M120.8,40.6v-0.6H119v0.6H120.8z
		 M122.1,36.8l-0.2,0.7c-0.9-0.2-1.8-0.2-2.8-0.3l0.2-0.7C120.3,36.6,121.2,36.7,122.1,36.8z M128.8,41.8l-0.3,0.9
		c-0.2,0-0.4-0.1-0.7-0.2v2.6h-1.1v-0.4h-2.7v0.4h-1.1v-2.7c-0.2,0.1-0.4,0.1-0.5,0.1l-0.5-0.9c0.8-0.1,1.5-0.3,2.2-0.6
		c-0.2-0.1-0.5-0.3-0.8-0.5c-0.1,0.1-0.3,0.2-0.6,0.4l-0.7-0.7c0.7-0.4,1.4-1,1.9-1.8l1,0.3c0,0.1-0.1,0.2-0.2,0.4h3.1v0.9
		c-0.5,0.4-1,0.8-1.5,1.1C127.1,41.5,127.9,41.7,128.8,41.8z M127.2,42.5c-0.7-0.2-1.3-0.4-2-0.6c-0.6,0.3-1.3,0.5-1.9,0.6H127.2z
		 M127,37.2c-0.8,0.1-1.7,0.2-2.9,0.3l-0.3-0.7c1.1,0,2-0.1,2.8-0.3L127,37.2z M126.9,38l-0.2,0.8c-0.9-0.2-1.9-0.4-2.8-0.5l0.3-0.7
		C124.9,37.7,125.8,37.9,126.9,38z M126.6,44v-0.6h-2.7V44H126.6z M126.3,40.1h-2.2c0.4,0.3,0.7,0.5,1.1,0.6
		C125.7,40.6,126,40.3,126.3,40.1z"/>
	<path d="M141.6,44l-0.2,1.1c-0.6,0-1.3,0-2,0c-1.2,0-2.3,0-3.1,0c-0.9,0-1.5-0.1-1.9-0.2s-0.7-0.2-1.1-0.4c-0.4-0.2-0.7-0.4-1-0.7
		c-0.4,0.6-0.8,1.1-1.2,1.5l-0.9-0.8c1.1-1.1,1.8-2.4,2.1-3.7h-1.8v-1.1c0.7-0.9,1.3-1.6,1.7-2.2h-1.8v-1.1h3.2v1.1
		c-0.4,0.6-0.9,1.4-1.6,2.2h1.6v1.1c-0.1,0.6-0.3,1.3-0.6,1.9c0.7,0.6,1.4,1,2.3,1.1C136,44,138.1,44,141.6,44z M133.3,35.4
		l-0.8,0.8c-0.5-0.5-1.2-1.1-2-1.6l0.7-0.8C132,34.2,132.7,34.7,133.3,35.4z M141.6,38.6l-0.5,1c-1-0.6-2.1-1.1-3.1-1.5v1h1.8v1
		l-0.3,0.5h1.4c-0.1,1.1-0.2,1.8-0.3,2.2s-0.3,0.6-0.5,0.7c-0.2,0.1-0.7,0.2-1.5,0.2c-0.3,0-0.6,0-0.9,0l-0.4-1c0.3,0,0.8,0,1.7,0
		c0.2,0,0.4-0.1,0.5-0.3s0.1-0.5,0.1-0.8h-1.8l0.7-1.4h-1.5c-0.2,1.7-1.1,2.9-2.7,3.5l-0.8-0.8c0.7-0.3,1.2-0.6,1.6-1.1
		c0.4-0.5,0.6-1,0.7-1.6h-1.3v-0.9c-0.4,0.2-0.7,0.3-0.8,0.4l-0.7-0.9c1.3-0.6,2.3-1.1,3-1.7h-2.2v-1h3v-0.6
		c-0.9,0.1-1.7,0.1-2.5,0.1l-0.4-1.1c2.7,0,4.8-0.2,6.4-0.5l0.6,1c-0.8,0.1-1.8,0.3-2.9,0.3v0.8h3.4v1H138
		C139.2,37.4,140.4,37.9,141.6,38.6z M136.8,39v-1.4c-0.6,0.6-1.3,1-2,1.4H136.8z"/>
	<path d="M147.6,43.6h-1.1v-0.8h-1.8v1.1h-1.1v-9.5h4.1V43.6z M146.5,38.1v-2.5h-1.8v2.5H146.5z M146.5,41.8v-2.6h-1.8v2.6H146.5z
		 M154.2,43.8c0,0.4-0.1,0.7-0.2,0.9s-0.3,0.3-0.5,0.4s-0.6,0.1-1.2,0.1c-0.4,0-0.7,0-1.1,0l-0.4-1.1c0.7,0,1.3,0,1.7,0
		c0.3,0,0.4-0.1,0.4-0.4v-2.4h-3c-0.2,1.7-0.7,3.1-1.4,4.1l-1-0.7c0.9-1.2,1.3-2.8,1.3-4.8v-5.6h5.3V43.8z M153,37.1v-1.8h-3v1.8
		H153z M153,40.1v-1.9h-3v1.9H153z"/>
	<path d="M76,62.5h-3.7v-3.8H76V62.5z"/>
	<path d="M82,56.1c0,0-0.1,0.4-0.3,1c-0.2,0.6-0.4,1.2-0.6,1.8c0.6,1,0.8,1.9,0.8,2.9c0,0.5-0.1,0.9-0.2,1.1
		c-0.1,0.2-0.3,0.4-0.5,0.5c-0.2,0.1-0.6,0.1-1.2,0.1l-0.3-1.1l0.7,0c0.2,0,0.4-0.2,0.4-0.7c0-0.9-0.3-1.9-0.9-2.8
		c0.4-1,0.7-1.9,0.9-2.9h-1.2v10.1h-1.1V55.1H82V56.1z M83.4,63.9c-0.3,0.8-0.7,1.5-1.3,2.2l-0.9-0.7c0.5-0.6,0.9-1.3,1.2-2
		L83.4,63.9z M89.4,59.5h-7.3v-0.8h3.1v-0.5h-2.6v-0.8H89v0.8h-2.6v0.5h3.1V59.5z M89.6,61.9h-0.9v1.2h-6.1v-0.8h5v-0.4h-5.4v-0.8
		h5.4v-0.4h-5v-0.8h6.1v1.2h0.9V61.9z M89.4,55.6c-1.6,0.4-3.9,0.6-6.7,0.7l-0.4-0.9c2.5,0,4.7-0.2,6.4-0.6L89.4,55.6z M84.4,57.1
		l-1,0.4c-0.2-0.2-0.4-0.5-0.7-0.7l0.9-0.4C83.9,56.5,84.2,56.7,84.4,57.1z M87.8,64.7c0,0.4-0.1,0.7-0.2,0.9
		C87.4,65.8,87.2,66,87,66c-0.2,0.1-0.7,0.1-1.6,0.1c-0.6,0-1,0-1.2-0.1s-0.3-0.2-0.5-0.3c-0.1-0.2-0.2-0.4-0.2-0.6v-1.6h1.1v1.4
		c0,0.1,0,0.1,0.1,0.2c0.1,0.1,0.1,0.1,0.2,0.1c0.7,0,1.1,0,1.3,0c0.2,0,0.3-0.1,0.4-0.3c0.1-0.2,0.1-0.4,0.1-0.5L87.8,64.7z
		 M86.5,57.1l-1,0.3c-0.2-0.3-0.4-0.6-0.6-0.9l1-0.3C86.1,56.5,86.3,56.9,86.5,57.1z M86.6,64.3l-0.9,0.6c-0.1-0.3-0.4-0.6-0.8-1.1
		l0.8-0.5C86.1,63.5,86.4,63.9,86.6,64.3z M89.1,56.5c-0.3,0.3-0.7,0.6-1.1,0.9l-1-0.5c0.4-0.3,0.8-0.6,1.1-0.9L89.1,56.5z
		 M89.7,65.5l-1,0.5c-0.3-0.7-0.8-1.5-1.3-2.2l0.9-0.5C89,64.1,89.4,64.8,89.7,65.5z"/>
	<path d="M97.3,55.7c-0.6,0.2-1.4,0.4-2.3,0.5v1.5h2.2v1.2h-2.2v0.3c0.9,0.7,1.7,1.4,2.3,2.1l-0.6,1.1c-0.6-0.7-1.1-1.3-1.7-1.8v5.5
		h-1.1v-5.4c-0.7,1.3-1.4,2.3-2.1,3.1l-0.6-1.1c0.9-0.9,1.7-2.2,2.5-3.8h-2.3v-1.2h2.4v-1.4c-0.7,0.1-1.2,0.1-1.7,0.1l-0.6-1.1
		c1.7,0,3.4-0.3,5-0.7L97.3,55.7z M102.7,65.6l-1,0.7c-0.1-0.6-0.2-1.1-0.4-1.5c-1.9,0.6-3.5,1-4.9,1.1l-0.3-1
		c0.7-0.5,1.2-1.7,1.6-3.7s0.7-4.1,0.8-6.4l1.2,0.1c-0.3,4.3-0.9,7.5-1.9,9.5c1-0.1,2-0.4,3.1-0.7c-0.3-0.9-0.7-1.9-1.2-3.1l1-0.5
		C101.7,62.2,102.3,64,102.7,65.6z"/>
	<path d="M107.5,55c-0.2,0.6-0.4,1.1-0.5,1.6l-0.3,0.7v8.9h-1.2v-6.6c-0.3,0.4-0.5,0.8-0.8,1.2l-0.6-1.2c1-1.4,1.8-3,2.3-4.8
		L107.5,55z M110.2,62.8c-0.6,1.2-1.3,2.2-2.2,3.1l-1-0.7c0.8-0.8,1.5-1.7,2.1-2.9L110.2,62.8z M115.5,61.7H112v4.5h-1.2v-4.5h-3.6
		v-1.1h3.6v-1.2h-2.9v-4.2h6.8v4.2H112v1.2h3.5V61.7z M113.6,58.3v-2h-4.4v2H113.6z M115.6,65.3l-1.1,0.6c-0.4-0.9-1.1-2-1.9-3.1
		l1-0.6C114.4,63.2,115,64.2,115.6,65.3z"/>
	<path d="M121,57h-3.7v-1h1.5c-0.1-0.3-0.2-0.6-0.4-1l1.1-0.3c0.2,0.3,0.3,0.8,0.5,1.3h1V57z M120.7,65.9h-1.1v-0.5h-1.1v0.8h-1.1
		v-4.5h3.2V65.9z M120.7,59h-3.2v-1h3.2V59z M120.7,60.8h-3.2v-1h3.2V60.8z M119.6,64.4v-1.6h-1.1v1.6H119.6z M128.6,56.3h-2v0.5
		h-0.9c0.1,0.2,0.2,0.4,0.3,0.6h2.4v0.8h-2.4v0.5h2.3v0.7h-2.3V60h2.3v0.7h-2.3v0.5h2.6V62h-6.8v-2.4c-0.1,0.2-0.3,0.3-0.4,0.4
		l-0.6-0.9c0.7-0.7,1.3-1.5,1.8-2.5l0.9,0.4c-0.1,0.1-0.1,0.3-0.2,0.4h1.5c-0.1-0.2-0.1-0.3-0.2-0.5l1-0.3v-1.8h1.1v0.5h2V56.3z
		 M128.7,65.3l-0.4,1c-1.4-0.2-2.5-0.5-3.4-0.9c-1,0.4-2.2,0.7-3.4,0.9l-0.5-1c0.8-0.1,1.7-0.2,2.7-0.5c-0.6-0.3-1.1-0.8-1.5-1.4
		h-0.6v-0.9h6.5v0.9c-0.7,0.6-1.3,1.1-1.9,1.4C126.9,65,127.7,65.2,128.7,65.3z M124.5,56.8h-1.1v-0.5h-2v-1h2v-0.5h1.1V56.8z
		 M124.8,58.7v-0.5h-1.9v0.5H124.8z M124.8,60v-0.5h-1.9V60H124.8z M124.8,61.2v-0.5h-1.9v0.5H124.8z M126.7,63.4h-3.1
		c0.5,0.4,0.9,0.7,1.4,0.9C125.5,64.1,126.1,63.8,126.7,63.4z"/>
</g>
<g>
	<path d="M76,197h-3.7v-3.8H76V197z"/>
	<path d="M89.5,192.8H78.2v-0.9h3.1c-0.1-0.2-0.2-0.5-0.5-0.9h-2.2V190h4.7c-0.1-0.2-0.2-0.4-0.3-0.6l1.2-0.2
		c0.2,0.3,0.3,0.6,0.4,0.8h4.5v0.9h-2.2c-0.1,0.2-0.3,0.6-0.5,0.9h3.1V192.8z M89.6,200.5H78.3v-0.9h5.1v-0.7h-4.5V198h4.5v-0.7h-4
		v-3.9h9.1v3.9h-4v0.7H89v0.9h-4.5v0.7h5.1V200.5z M83.3,194.9v-0.6h-2.8v0.6H83.3z M83.3,196.4v-0.7h-2.8v0.7H83.3z M85.6,190.9
		h-3.4c0.2,0.4,0.4,0.7,0.5,0.9h2.5C85.3,191.5,85.5,191.2,85.6,190.9z M87.3,194.9v-0.6h-2.8v0.6H87.3z M87.3,196.4v-0.7h-2.8v0.7
		H87.3z"/>
	<path d="M102.6,200.2H91.2v-1.2h5.1V191h-4.5v-1.2h10.3v1.2h-4.5v8.1h5V200.2z"/>
</g>
<g>
</g>
<g>
</g>
<g>
</g>
<g>
</g>
<g>
</g>
<g>
</g>
<g>
</g>
<g>
</g>
<g>
</g>
<g>
</g>
<g>
</g>
<g>
</g>
<g>
</g>
<g>
</g>
<g>
</g>
<g>
</g>
</svg>
