<?xml version="1.0" encoding="utf-8"?>
<!-- Generator: Adobe Illustrator 15.1.0, SVG Export Plug-In . SVG Version: 6.00 Build 0)  -->
<!DOCTYPE svg PUBLIC "-//W3C//DTD SVG 1.1//EN" "http://www.w3.org/Graphics/SVG/1.1/DTD/svg11.dtd">
<svg version="1.1" id="Ebene_2" xmlns="http://www.w3.org/2000/svg" xmlns:xlink="http://www.w3.org/1999/xlink" x="0px" y="0px"
	 width="500px" height="190px" viewBox="0 0 500 190" enable-background="new 0 0 500 190" xml:space="preserve">
<circle fill="#FFFFFF" cx="49.857" cy="152.395" r="19.48"/>
<circle fill="#FFFFFF" cx="49.857" cy="20.898" r="19.481"/>
<circle fill="#FFFFFF" cx="20.816" cy="86.646" r="19.48"/>
<path fill="#FFFFFF" d="M125.611,106.128c-10.759,0-19.48-8.722-19.48-19.481c0-10.76,8.722-19.481,19.48-19.481h-9.199
	c-10.759,0-19.48,8.722-19.48,19.481c0,10.761,8.722,19.481,19.48,19.481H125.611z"/>
<g>
	<path fill="#FFFFFF" d="M144.818,104.439V69.095h11.452c4.338,0,7.167,0.179,8.486,0.531c2.025,0.53,3.721,1.683,5.087,3.458
		c1.365,1.776,2.049,4.07,2.049,6.883c0,2.17-0.394,3.995-1.182,5.475c-0.787,1.479-1.787,2.64-3.001,3.485
		c-1.214,0.842-2.447,1.402-3.7,1.675c-1.704,0.337-4.171,0.506-7.4,0.506h-4.653v13.331L144.818,104.439L144.818,104.439z
		 M151.954,75.074v10.03h3.905c2.813,0,4.694-0.184,5.641-0.555c0.948-0.37,1.692-0.948,2.229-1.737
		c0.54-0.787,0.809-1.703,0.809-2.749c0-1.286-0.377-2.347-1.133-3.183c-0.755-0.835-1.712-1.357-2.868-1.567
		c-0.853-0.161-2.563-0.241-5.135-0.241L151.954,75.074L151.954,75.074z"/>
	<path fill="#FFFFFF" d="M185.785,69.095V82.09c2.185-2.557,4.797-3.834,7.833-3.834c1.559,0,2.966,0.29,4.219,0.868
		c1.254,0.578,2.197,1.318,2.833,2.218c0.634,0.902,1.067,1.898,1.302,2.991c0.233,1.094,0.349,2.79,0.349,5.089v15.019h-6.773
		V90.916c0-2.684-0.128-4.389-0.385-5.112c-0.258-0.723-0.71-1.299-1.362-1.725c-0.651-0.426-1.467-0.64-2.447-0.64
		c-1.125,0-2.13,0.274-3.014,0.821c-0.884,0.547-1.53,1.371-1.94,2.472c-0.409,1.102-0.615,2.729-0.615,4.882v12.828h-6.774V69.095
		H185.785z"/>
	<path fill="#FFFFFF" d="M215.589,86.647l-6.146-1.109c0.691-2.477,1.88-4.308,3.568-5.499s4.194-1.784,7.522-1.784
		c3.022,0,5.271,0.359,6.75,1.073c1.479,0.717,2.52,1.624,3.123,2.726c0.602,1.104,0.904,3.124,0.904,6.065l-0.073,7.907
		c0,2.25,0.108,3.909,0.326,4.979c0.216,1.069,0.622,2.215,1.218,3.438h-6.702c-0.178-0.449-0.394-1.117-0.652-2.004
		c-0.112-0.402-0.193-0.665-0.241-0.791c-1.157,1.124-2.396,1.964-3.713,2.529c-1.317,0.564-2.723,0.841-4.218,0.841
		c-2.636,0-4.713-0.711-6.231-2.143c-1.518-1.427-2.278-3.237-2.278-5.424c0-1.448,0.345-2.736,1.037-3.868
		c0.691-1.133,1.659-2.001,2.905-2.603c1.246-0.604,3.041-1.13,5.388-1.579c3.166-0.596,5.36-1.149,6.582-1.663V87.06
		c0-1.303-0.322-2.23-0.965-2.786c-0.644-0.555-1.856-0.833-3.641-0.833c-1.206,0-2.146,0.238-2.821,0.711
		C216.553,84.627,216.007,85.458,215.589,86.647z M224.653,92.146c-0.868,0.29-2.241,0.635-4.122,1.037
		c-1.88,0.401-3.11,0.794-3.689,1.18c-0.884,0.627-1.327,1.422-1.327,2.387c0,0.948,0.354,1.769,1.061,2.459
		c0.707,0.69,1.607,1.037,2.7,1.037c1.221,0,2.388-0.402,3.496-1.206c0.819-0.611,1.358-1.358,1.616-2.242
		c0.175-0.578,0.265-1.679,0.265-3.303V92.146L224.653,92.146z"/>
	<path fill="#FFFFFF" d="M245.804,104.439h-6.775V78.834h6.292v3.641c1.077-1.719,2.044-2.853,2.905-3.4
		c0.859-0.546,1.835-0.819,2.93-0.819c1.542,0,3.027,0.426,4.461,1.277l-2.098,5.91c-1.142-0.74-2.203-1.11-3.183-1.11
		c-0.947,0-1.751,0.262-2.41,0.784c-0.66,0.522-1.178,1.468-1.556,2.834c-0.378,1.367-0.566,4.228-0.566,8.581L245.804,104.439
		L245.804,104.439z"/>
	<path fill="#FFFFFF" d="M259.36,78.834h6.242v3.496c2.235-2.716,4.895-4.075,7.981-4.075c1.643,0,3.062,0.337,4.267,1.014
		c1.203,0.674,2.192,1.695,2.964,3.062c1.124-1.366,2.338-2.387,3.64-3.062c1.302-0.676,2.69-1.014,4.171-1.014
		c1.879,0,3.471,0.381,4.771,1.146c1.303,0.764,2.277,1.884,2.917,3.363c0.468,1.093,0.699,2.863,0.699,5.306v16.368h-6.776V89.807
		c0-2.539-0.231-4.178-0.698-4.919c-0.624-0.964-1.59-1.447-2.892-1.447c-0.948,0-1.841,0.291-2.677,0.869s-1.439,1.427-1.81,2.545
		c-0.37,1.117-0.556,2.881-0.556,5.292v12.294h-6.775V90.41c0-2.491-0.118-4.1-0.361-4.823s-0.613-1.262-1.12-1.616
		c-0.507-0.353-1.194-0.531-2.059-0.531c-1.049,0-1.985,0.283-2.82,0.845c-0.834,0.562-1.435,1.374-1.795,2.437
		c-0.362,1.059-0.543,2.82-0.543,5.279v12.439h-6.775V78.834H259.36z"/>
	<path fill="#FFFFFF" d="M310.162,86.647l-6.146-1.109c0.691-2.477,1.878-4.308,3.567-5.499c1.688-1.19,4.195-1.784,7.521-1.784
		c3.021,0,5.271,0.359,6.749,1.073c1.48,0.717,2.52,1.624,3.124,2.726c0.601,1.105,0.903,3.124,0.903,6.065l-0.072,7.907
		c0,2.25,0.111,3.909,0.327,4.979c0.215,1.069,0.621,2.215,1.22,3.438h-6.702c-0.179-0.449-0.395-1.117-0.65-2.004
		c-0.113-0.402-0.197-0.665-0.246-0.791c-1.154,1.124-2.395,1.964-3.712,2.529c-1.32,0.564-2.726,0.841-4.219,0.841
		c-2.637,0-4.711-0.711-6.231-2.143c-1.517-1.427-2.278-3.237-2.278-5.424c0-1.448,0.345-2.736,1.038-3.868
		c0.692-1.133,1.659-2.001,2.906-2.603c1.243-0.604,3.042-1.13,5.389-1.579c3.166-0.596,5.357-1.149,6.581-1.663V87.06
		c0-1.303-0.324-2.23-0.967-2.786c-0.643-0.555-1.855-0.833-3.638-0.833c-1.205,0-2.146,0.238-2.82,0.711
		C311.126,84.627,310.577,85.458,310.162,86.647z M319.227,92.146c-0.869,0.29-2.242,0.635-4.125,1.037
		c-1.88,0.401-3.109,0.794-3.688,1.18c-0.883,0.627-1.326,1.422-1.326,2.387c0,0.948,0.352,1.769,1.062,2.459
		c0.704,0.69,1.606,1.037,2.699,1.037c1.222,0,2.386-0.402,3.494-1.206c0.821-0.611,1.358-1.358,1.615-2.242
		c0.175-0.578,0.263-1.679,0.263-3.303v-1.35H319.227z"/>
	<path fill="#FFFFFF" d="M333.938,104.439V69.095h26.207v5.979h-19.071v7.836h17.745v5.957h-17.745v9.62h19.746v5.953
		L333.938,104.439L333.938,104.439z"/>
	<path fill="#FFFFFF" d="M391.444,104.439h-6.775V91.374c0-2.763-0.147-4.552-0.435-5.364c-0.286-0.812-0.758-1.443-1.409-1.895
		c-0.655-0.449-1.435-0.676-2.351-0.676c-1.173,0-2.229,0.322-3.158,0.966c-0.932,0.643-1.571,1.494-1.918,2.556
		c-0.346,1.061-0.517,3.021-0.517,5.882v11.596h-6.778V78.834h6.293v3.763c2.231-2.895,5.047-4.341,8.437-4.341
		c1.497,0,2.862,0.271,4.099,0.81c1.238,0.537,2.175,1.225,2.809,2.062c0.636,0.834,1.077,1.784,1.329,2.845
		c0.246,1.062,0.375,2.581,0.375,4.557V104.439L391.444,104.439z"/>
	<path fill="#FFFFFF" d="M399.021,106.128l7.737,0.939c0.127,0.899,0.427,1.519,0.89,1.857c0.645,0.48,1.655,0.723,3.04,0.723
		c1.769,0,3.091-0.264,3.979-0.796c0.595-0.351,1.045-0.922,1.351-1.711c0.207-0.564,0.313-1.6,0.313-3.107v-3.737
		c-2.024,2.764-4.581,4.146-7.667,4.146c-3.44,0-6.163-1.456-8.175-4.364c-1.572-2.297-2.364-5.159-2.364-8.581
		c0-4.292,1.033-7.572,3.099-9.838c2.064-2.268,4.63-3.4,7.702-3.4c3.166,0,5.777,1.39,7.832,4.171v-3.593h6.34v22.975
		c0,3.021-0.249,5.279-0.747,6.775c-0.497,1.496-1.193,2.668-2.097,3.521c-0.9,0.848-2.103,1.518-3.604,2
		c-1.504,0.481-3.406,0.723-5.705,0.723c-4.34,0-7.418-0.744-9.23-2.23c-1.818-1.486-2.729-3.371-2.729-5.655
		C398.994,106.722,399.005,106.448,399.021,106.128z M405.07,91.109c0,2.716,0.526,4.707,1.579,5.968
		c1.055,1.261,2.352,1.891,3.895,1.891c1.653,0,3.053-0.646,4.196-1.939c1.143-1.295,1.713-3.211,1.713-5.749
		c0-2.652-0.55-4.621-1.642-5.908c-1.096-1.286-2.476-1.93-4.147-1.93c-1.623,0-2.96,0.631-4.015,1.894
		C405.597,86.599,405.07,88.521,405.07,91.109z"/>
	<path fill="#FFFFFF" d="M431.139,75.363v-6.269h6.775v6.269H431.139z M431.139,104.439V78.834h6.775v25.605H431.139z"/>
	<path fill="#FFFFFF" d="M469.478,104.439h-6.774V91.374c0-2.763-0.145-4.552-0.432-5.364c-0.292-0.812-0.759-1.443-1.412-1.895
		c-0.652-0.449-1.434-0.676-2.352-0.676c-1.173,0-2.224,0.322-3.157,0.966c-0.931,0.643-1.573,1.494-1.917,2.556
		c-0.346,1.061-0.518,3.021-0.518,5.882v11.596h-6.775V78.834h6.289v3.763c2.233-2.895,5.048-4.341,8.439-4.341
		c1.498,0,2.862,0.271,4.098,0.81c1.239,0.537,2.177,1.225,2.812,2.062c0.635,0.834,1.074,1.784,1.325,2.845
		c0.25,1.062,0.374,2.581,0.374,4.557V104.439L469.478,104.439z"/>
	<path fill="#FFFFFF" d="M492.508,96.29l6.75,1.134c-0.868,2.476-2.239,4.36-4.11,5.654c-1.874,1.293-4.217,1.939-7.026,1.939
		c-4.453,0-7.748-1.452-9.885-4.359c-1.69-2.33-2.535-5.272-2.535-8.823c0-4.244,1.109-7.567,3.326-9.971
		c2.219-2.403,5.026-3.605,8.414-3.605c3.81,0,6.815,1.259,9.018,3.773c2.198,2.517,3.253,6.372,3.157,11.563h-16.975
		c0.049,2.009,0.597,3.574,1.642,4.688c1.044,1.116,2.348,1.678,3.902,1.678c1.062,0,1.956-0.29,2.679-0.869
		C491.592,98.51,492.138,97.577,492.508,96.29z M492.894,89.445c-0.049-1.961-0.557-3.452-1.519-4.472
		c-0.962-1.022-2.138-1.534-3.521-1.534c-1.477,0-2.7,0.539-3.664,1.617c-0.967,1.077-1.438,2.54-1.423,4.389H492.894z"/>
</g>
<g>
	<path fill="#FFFFFF" d="M155.087,139.368c-0.033,0.2-0.099,0.395-0.164,0.594c1.312,0.721,5.214,3.116,6.165,3.77l-1.542,1.574
		c-0.983-0.853-3.64-2.725-5.312-3.871c-1.115,1.937-3.116,3.904-6.723,5.51c-0.295-0.457-0.919-1.147-1.41-1.54
		c4.362-1.706,6.133-3.97,6.854-6.036h-6.56v-1.837h6.952c0.066-0.486,0.066-0.98,0.066-1.409v-2.001h-2.984
		c-0.624,1.181-1.312,2.264-2.033,3.084c-0.393-0.329-1.147-0.82-1.607-1.083c1.41-1.541,2.657-4.197,3.41-6.821l2.492,0.655
		c-0.098,0.229-0.295,0.328-0.656,0.293c-0.196,0.655-0.458,1.346-0.722,2.004h9.217v1.87h-5.019v2.034
		c0,0.427-0.032,0.886-0.066,1.374h5.937v1.837H155.087L155.087,139.368z M151.512,159.868V146.19h19.776v13.61h-2.231v-1.184
		h-15.38v1.247L151.512,159.868L151.512,159.868z M169.058,148.061h-15.38v3.378h15.38V148.061z M153.677,156.752h15.38v-3.543
		h-15.38V156.752z M162.794,132.22h11.905v12.495h-2.165v-1.442h-7.642v1.573h-2.099V132.22z M164.893,141.305h7.642v-7.084h-7.642
		V141.305z"/>
	<path fill="#FFFFFF" d="M213.488,143.731v-4.656c-0.426,0.557-0.886,1.082-1.41,1.604c-0.329-0.429-0.918-0.982-1.378-1.245
		c1.902-1.771,3.116-4.133,3.803-6.034l0.526,0.065v-0.59h-3.903v-1.574h3.903v-1.902l2.525,0.164
		c-0.033,0.197-0.197,0.36-0.624,0.428v1.311h3.804v-1.902l2.559,0.164c-0.033,0.197-0.197,0.36-0.624,0.428v1.311h3.903v1.574
		h-3.903v1.574h-1.936v-1.574h-3.804v1.574h-0.82c-0.099,0.229-0.197,0.491-0.329,0.754h8.331l0.426-0.033l1.05,0.131
		c0,0.197-0.032,0.395-0.032,0.623c-0.295,5.38-0.591,7.314-1.246,8.07c-0.59,0.688-1.411,0.72-2.361,0.72
		c-0.689,0-1.608-0.032-2.525-0.066c-0.033-0.461-0.23-1.149-0.459-1.606c1.246,0.133,2.394,0.164,2.82,0.164
		c0.458,0,0.722-0.031,0.918-0.294c0.427-0.459,0.656-2.066,0.885-6.265h-8.527c-0.229,0.426-0.492,0.884-0.787,1.312h6.722v4.656
		h-5.87v1.116H213.488L213.488,143.731z M227.132,151.241v2.23h13.938v1.705h-13.938v2.295c0,1.213-0.327,1.771-1.279,2.097
		c-0.983,0.263-2.656,0.296-5.378,0.296c-0.132-0.559-0.459-1.312-0.754-1.836c2.099,0.032,4.001,0.032,4.525,0.032
		c0.525-0.032,0.689-0.163,0.689-0.624v-2.262h-13.971v-1.705h13.972v-2.231h-11.479v-1.673h11.479v-2.099
		c-2.951,0.164-6.001,0.263-8.79,0.263c-0.033-0.429-0.262-1.115-0.458-1.512c6.394-0.098,14.298-0.522,18.463-1.278l1.509,1.54
		c-0.066,0.032-0.132,0.069-0.264,0.069c-0.065,0-0.196-0.033-0.328-0.069c-2.034,0.36-4.854,0.653-7.938,0.854v2.23h11.71v1.673
		h-11.708L227.132,151.241L227.132,151.241z M219.327,139.271h-4.198v2.033h4.198V139.271z M241.169,134.843h-2.295
		c-0.82,2.23-2.165,4.1-3.903,5.575c1.804,1.312,3.936,2.264,6.363,2.818c-0.458,0.395-1.016,1.213-1.279,1.774
		c-2.559-0.691-4.788-1.836-6.659-3.38c-1.967,1.347-4.296,2.326-6.887,3.018c-0.197-0.461-0.721-1.212-1.115-1.606
		c2.493-0.589,4.724-1.475,6.592-2.722c-1.083-1.115-2.001-2.426-2.755-3.841c-0.688,1.017-1.442,1.905-2.23,2.657
		c-0.328-0.327-1.017-0.951-1.477-1.242c2.066-1.936,3.937-5.216,4.985-8.594l2.46,0.69c-0.066,0.228-0.295,0.36-0.689,0.326
		c-0.328,0.955-0.688,1.872-1.115,2.789h10.003L241.169,134.843L241.169,134.843z M230.379,134.843
		c0.722,1.641,1.771,3.116,3.115,4.362c1.378-1.18,2.46-2.623,3.182-4.362H230.379z"/>
	<path fill="#FFFFFF" d="M291.833,156.622h13.776v2.164H275.96v-2.164h13.61v-8.793h-10.004v-2.13h10.004v-7.575h-8.037
		c-1.149,2.36-2.494,4.488-3.936,6.063c-0.429-0.392-1.281-1.015-1.837-1.345c2.689-2.853,5.019-7.836,6.362-12.855l2.854,0.788
		c-0.099,0.229-0.327,0.36-0.753,0.36c-0.492,1.606-1.051,3.247-1.703,4.822h7.054v-6.562l2.95,0.164
		c-0.03,0.229-0.229,0.389-0.688,0.459v5.935h12.234v2.163h-12.234v7.576h11.02v2.134h-11.02L291.833,156.622L291.833,156.622z"/>
	<path fill="#FFFFFF" d="M351.448,145.863l-3.967,1.411v9.903c0,2.362-1.083,2.724-5.445,2.656
		c-0.099-0.524-0.427-1.443-0.722-2.033c1.544,0.034,2.954,0.034,3.378,0.034c0.43-0.034,0.624-0.164,0.624-0.624v-9.15
		c-1.542,0.524-2.954,1.015-4.067,1.377c0,0.262-0.165,0.46-0.395,0.521l-0.917-2.59c1.472-0.394,3.345-0.955,5.379-1.575v-7.707
		h-4.983v-2.066h4.983v-6.624l2.819,0.164c-0.032,0.259-0.198,0.389-0.654,0.459v6.001h3.771v2.066h-3.771v7.017l3.676-1.148
		L351.448,145.863z M367.454,142.682l1.441,0.653c-0.066,0.164-0.196,0.262-0.294,0.36c-1.312,4.036-3.508,7.315-6.262,9.905
		c2.396,1.964,5.28,3.476,8.59,4.359c-0.459,0.461-1.114,1.313-1.442,1.904c-3.41-1.052-6.362-2.688-8.822-4.854
		c-2.886,2.23-6.262,3.87-9.771,4.892c-0.23-0.562-0.79-1.479-1.214-1.969c3.346-0.854,6.625-2.327,9.412-4.46
		c-2.135-2.265-3.807-4.985-4.984-8.167l1.542-0.492h-3.378v-2.034h7.379v-5.836h-7.905v-2.101h7.905v-5.477l2.853,0.197
		c-0.032,0.229-0.196,0.393-0.653,0.459v4.82h8.459v2.101h-8.459v5.836h5.213L367.454,142.682z M356.106,144.813
		c1.081,2.788,2.624,5.247,4.624,7.312c2.196-1.998,4.001-4.427,5.15-7.312H356.106z"/>
	<path fill="#FFFFFF" d="M422.086,149.472c0.79,1.539,1.836,2.884,3.116,4.036c2.133-1.017,4.757-2.526,6.331-3.676l1.966,1.442
		c-0.129,0.164-0.427,0.23-0.721,0.164c-1.605,0.984-4.098,2.262-6.163,3.213c2.36,1.705,5.313,2.854,8.789,3.479
		c-0.46,0.428-0.983,1.244-1.283,1.804c-6.753-1.413-11.545-4.819-14.069-10.301c-1.343,1.051-3.017,2.034-4.821,2.92l0.491,0.099
		c-0.028,0.197-0.229,0.359-0.652,0.393v4.002c2.558-0.263,5.379-0.595,8.133-0.922l0.067,1.706
		c-4.56,0.621-9.379,1.212-12.396,1.573c-0.032,0.26-0.2,0.427-0.43,0.491l-0.981-2.262l3.479-0.361v-3.74
		c-2.266,0.921-4.661,1.673-6.855,2.165c-0.262-0.492-0.823-1.281-1.282-1.672c4.264-0.822,9.219-2.495,12.495-4.561h-11.97v-1.828
		h13.61v-2.461l2.887,0.198c-0.033,0.228-0.231,0.391-0.656,0.458v1.805h13.777v1.836H422.086z M412.738,139.14v-1.869h-7.544
		v-1.672h7.544V133.4h-4.034c-0.429,0.788-0.853,1.51-1.283,2.099c-0.36-0.23-1.013-0.589-1.509-0.789
		c0.984-1.283,1.871-3.28,2.459-5.212l2.197,0.687c-0.1,0.232-0.328,0.295-0.623,0.265c-0.161,0.426-0.327,0.882-0.522,1.341h3.313
		v-2.424l2.558,0.161c-0.032,0.229-0.199,0.395-0.624,0.46v1.803h6.035v1.607h-6.035v2.194h7.315v1.676h-7.315v1.869h6.232v4.132
		c0,1.835-1.017,1.871-3.936,1.871c-0.098-0.491-0.427-1.082-0.623-1.509h1.772c0.753,0,0.821,0,0.821-0.362v-2.593h-4.265v5.511
		h-1.934v-5.511h-4.034v4.624H406.9v-6.166h5.839L412.738,139.14L412.738,139.14z M426.415,131.073
		c-0.031,0.199-0.198,0.36-0.62,0.429v11.115h-2.034v-11.741L426.415,131.073z M434.221,129.86
		c-0.034,0.228-0.199,0.391-0.623,0.457v13.221c0,2.23-0.623,2.423-5.936,2.423c-0.1-0.557-0.427-1.341-0.722-1.869
		c1.082,0.033,2.099,0.067,2.854,0.067c1.572,0,1.773,0,1.773-0.621v-13.81L434.221,129.86z"/>
	<path fill="#FFFFFF" d="M499.509,152.028h-11.443c2.986,2.494,7.704,4.56,12.103,5.478c-0.491,0.429-1.083,1.215-1.377,1.774
		c-4.72-1.214-9.869-3.838-12.954-6.986v7.578h-2.164v-7.61c-3.181,3.114-8.364,5.84-12.857,7.149
		c-0.294-0.524-0.92-1.281-1.375-1.705c4.129-1.053,8.786-3.18,11.838-5.675h-11.15v-1.935h13.545v-2.425l2.819,0.198
		c-0.033,0.197-0.23,0.361-0.655,0.428v1.803h13.676L499.509,152.028L499.509,152.028z M469.927,146.519l1.774-0.098
		c0.591-0.754,1.242-1.674,1.902-2.625c-0.854-1.184-2.296-2.688-3.576-3.836l0.98-1.15c0.332,0.293,0.691,0.589,1.053,0.881
		c0.821-1.341,1.736-3.146,2.264-4.426l2.065,0.886c-0.131,0.195-0.331,0.261-0.655,0.261c-0.654,1.212-1.705,3.048-2.624,4.296
		c0.558,0.591,1.05,1.147,1.411,1.641c0.79-1.243,1.512-2.492,2.034-3.51l2.003,0.885c-0.101,0.166-0.331,0.264-0.656,0.264
		c-1.083,1.804-2.786,4.361-4.296,6.331c1.113-0.066,2.327-0.162,3.575-0.265c-0.294-0.653-0.622-1.31-0.982-1.901l1.411-0.521
		c0.919,1.41,1.734,3.312,2.033,4.559l-1.512,0.557c-0.097-0.36-0.195-0.787-0.36-1.211c-2.556,0.26-5.051,0.488-6.689,0.654
		c-0.065,0.261-0.23,0.39-0.46,0.428L469.927,146.519z M477.962,136.253v-2.229h-7.871v-1.937h7.871v-2.688l2.854,0.164
		c-0.032,0.229-0.229,0.393-0.656,0.459v2.065h9.184v-2.688l2.854,0.164c-0.031,0.262-0.231,0.393-0.654,0.459v2.065h8.099v1.937
		h-8.099v2.229h-2.196v-2.229h-9.184v2.229H477.962z M483.11,137.302c0.361-0.918,0.689-2.063,0.884-2.854l2.495,0.657
		c-0.102,0.195-0.296,0.327-0.655,0.327c-0.198,0.525-0.492,1.214-0.755,1.869h4.689v10.334h-10.002v-10.334H483.11z
		 M487.767,141.665v-2.688h-6.065v2.685L487.767,141.665L487.767,141.665z M487.767,145.959v-2.721h-6.065v2.721H487.767z
		 M490.03,146.519l1.644-0.098c0.653-0.754,1.341-1.644,2.034-2.594c-0.886-1.214-2.365-2.686-3.678-3.805l1.053-1.212
		c0.328,0.263,0.688,0.59,1.051,0.882c0.852-1.342,1.803-3.083,2.361-4.359l2.066,0.918c-0.099,0.198-0.329,0.263-0.656,0.263
		c-0.654,1.214-1.735,2.953-2.686,4.197c0.557,0.592,1.081,1.149,1.507,1.674c0.854-1.243,1.644-2.525,2.198-3.574l2.065,0.917
		c-0.1,0.201-0.329,0.263-0.656,0.263c-1.181,1.837-3.015,4.361-4.656,6.298l3.871-0.233c-0.331-0.686-0.723-1.376-1.116-1.965
		l1.411-0.653c1.016,1.44,1.903,3.378,2.295,4.688l-1.542,0.723c-0.097-0.394-0.229-0.854-0.426-1.343l-6.887,0.688
		c-0.033,0.229-0.198,0.394-0.429,0.428L490.03,146.519z"/>
</g>
<line fill="none" stroke="#FFFFFF" stroke-width="3" x1="22.259" y1="86.646" x2="103.068" y2="86.646"/>
<line fill="none" stroke="#FFFFFF" stroke-width="3" x1="48.324" y1="155.337" x2="105.465" y2="98.195"/>
<line fill="none" stroke="#FFFFFF" stroke-width="3" x1="48.324" y1="17.957" x2="105.465" y2="75.097"/>
</svg>
