<?xml version="1.0" encoding="utf-8"?>
<!-- Generator: Adobe Illustrator 15.1.0, SVG Export Plug-In . SVG Version: 6.00 Build 0)  -->
<!DOCTYPE svg PUBLIC "-//W3C//DTD SVG 1.1//EN" "http://www.w3.org/Graphics/SVG/1.1/DTD/svg11.dtd">
<svg version="1.1" id="Ebene_1" xmlns="http://www.w3.org/2000/svg" xmlns:xlink="http://www.w3.org/1999/xlink" x="0px" y="0px"
	 width="500px" height="190px" viewBox="0 0 500 190" enable-background="new 0 0 500 190" xml:space="preserve">
<g>
	<path d="M161.511,87.596c-0.764,0.933-1.874,1.676-3.33,2.227c-1.457,0.552-3.16,0.827-5.112,0.827h-4.921v11.793h-5.981v-29.61
		h10.902c3.422,0,6.059,0.855,7.912,2.566c1.852,1.711,2.779,3.727,2.779,6.045C163.76,83.764,163.01,85.814,161.511,87.596z
		 M148.148,86.068h4.921c1.499,0,2.644-0.388,3.436-1.167c0.792-0.777,1.188-1.831,1.188-3.16c0-1.329-0.396-2.382-1.188-3.161
		c-0.792-0.777-1.938-1.167-3.436-1.167h-4.921V86.068z"/>
	<path d="M174.237,71.051v11.412c1.499-2.573,3.931-3.86,7.296-3.86c2.687,0,4.879,0.884,6.576,2.651s2.545,4.221,2.545,7.36v13.83
		h-5.939V89.462c0-1.838-0.466-3.246-1.4-4.221c-0.933-0.976-2.206-1.463-3.818-1.463c-1.612,0-2.892,0.488-3.839,1.463
		c-0.948,0.976-1.421,2.383-1.421,4.221v12.981h-5.981V71.051H174.237z"/>
	<path d="M198.311,99.368c-2.107-2.276-3.16-5.183-3.16-8.718c0-3.535,1.046-6.427,3.139-8.675c2.092-2.248,4.751-3.372,7.975-3.372
		s5.685,1.33,7.381,3.987v-3.648h5.939v23.501h-5.939v-3.945c-1.782,2.856-4.257,4.285-7.424,4.285
		C203.055,102.783,200.417,101.645,198.311,99.368z M211.78,95.762c1.244-1.23,1.866-2.919,1.866-5.069
		c0-2.149-0.622-3.839-1.866-5.069c-1.245-1.23-2.701-1.845-4.37-1.845c-1.669,0-3.118,0.608-4.348,1.824
		c-1.23,1.216-1.846,2.899-1.846,5.048c0,2.15,0.622,3.846,1.867,5.09c1.244,1.245,2.694,1.867,4.348,1.867
		C209.086,97.607,210.535,96.992,211.78,95.762z"/>
	<path d="M231.931,78.942v4.157c1.583-2.998,3.875-4.497,6.873-4.497v6.108h-1.485c-1.782,0-3.125,0.445-4.03,1.336
		c-0.905,0.891-1.357,2.425-1.357,4.603v11.793h-5.981V78.942H231.931z"/>
	<path d="M249.026,78.942v3.521c1.499-2.573,3.931-3.86,7.297-3.86c1.781,0,3.372,0.41,4.772,1.23
		c1.399,0.821,2.481,1.994,3.245,3.521c0.819-1.47,1.944-2.63,3.372-3.479s3.033-1.272,4.815-1.272c2.8,0,5.055,0.877,6.766,2.63
		c1.711,1.754,2.567,4.214,2.567,7.381v13.83h-5.939V89.462c0-1.838-0.467-3.246-1.4-4.221c-0.933-0.976-2.205-1.463-3.817-1.463
		s-2.893,0.488-3.839,1.463c-0.948,0.976-1.422,2.383-1.422,4.221v12.981h-5.938V89.462c0-1.838-0.467-3.246-1.4-4.221
		s-2.206-1.463-3.817-1.463c-1.612,0-2.893,0.488-3.839,1.463c-0.948,0.976-1.421,2.383-1.421,4.221v12.981h-5.981V78.942H249.026z"
		/>
	<path d="M289.942,99.368c-2.107-2.276-3.16-5.183-3.16-8.718c0-3.535,1.046-6.427,3.139-8.675c2.093-2.248,4.752-3.372,7.976-3.372
		c3.225,0,5.685,1.33,7.382,3.987v-3.648h5.938v23.501h-5.938v-3.945c-1.782,2.856-4.257,4.285-7.424,4.285
		C294.687,102.783,292.049,101.645,289.942,99.368z M303.411,95.762c1.244-1.23,1.867-2.919,1.867-5.069
		c0-2.149-0.623-3.839-1.867-5.069c-1.244-1.23-2.701-1.845-4.369-1.845c-1.669,0-3.118,0.608-4.349,1.824
		c-1.229,1.216-1.845,2.899-1.845,5.048c0,2.15,0.621,3.846,1.866,5.09c1.244,1.245,2.694,1.867,4.349,1.867
		S302.167,96.992,303.411,95.762z"/>
	<path d="M336.797,72.748v4.582h-11.114v7.763h9.842v4.582h-9.842v8.187h11.114v4.582h-17.096V72.748H336.797z"/>
	<path d="M348.887,78.942v3.521c1.499-2.573,3.931-3.86,7.297-3.86c2.687,0,4.878,0.884,6.575,2.651
		c1.696,1.768,2.545,4.221,2.545,7.36v13.83h-5.938V89.462c0-1.838-0.467-3.246-1.4-4.221s-2.206-1.463-3.817-1.463
		c-1.612,0-2.893,0.488-3.84,1.463s-1.421,2.383-1.421,4.221v12.981h-5.981V78.942H348.887z"/>
	<path d="M372.961,99.368c-2.107-2.276-3.16-5.183-3.16-8.718c0-3.535,1.046-6.427,3.139-8.675c2.093-2.248,4.752-3.372,7.976-3.372
		c3.225,0,5.685,1.33,7.382,3.987v-3.648h5.938v23.671c0,3.365-0.99,6.115-2.97,8.251c-1.979,2.135-4.758,3.203-8.336,3.203
		c-3.577,0-6.42-0.743-8.526-2.228c-2.107-1.484-3.302-3.6-3.585-6.342h5.854c0.367,1.046,1.074,1.873,2.121,2.481
		c1.046,0.607,2.361,0.912,3.945,0.912s2.906-0.523,3.967-1.569c1.061-1.047,1.591-2.616,1.591-4.709v-4.115
		c-1.782,2.856-4.257,4.285-7.424,4.285C377.705,102.783,375.067,101.645,372.961,99.368z M386.43,95.762
		c1.244-1.23,1.867-2.919,1.867-5.069c0-2.149-0.623-3.839-1.867-5.069c-1.244-1.23-2.701-1.845-4.369-1.845
		c-1.669,0-3.118,0.608-4.349,1.824c-1.229,1.216-1.845,2.899-1.845,5.048c0,2.15,0.621,3.846,1.866,5.09
		c1.244,1.245,2.694,1.867,4.349,1.867S385.186,96.992,386.43,95.762z"/>
	<path d="M407.217,72.96c0,1.018-0.354,1.881-1.061,2.587c-0.708,0.708-1.563,1.061-2.566,1.061c-1.005,0-1.86-0.353-2.567-1.061
		c-0.707-0.707-1.061-1.569-1.061-2.587c0-1.019,0.354-1.881,1.061-2.588c0.707-0.707,1.562-1.061,2.567-1.061
		c1.003,0,1.858,0.354,2.566,1.061C406.862,71.08,407.217,71.942,407.217,72.96z M400.599,102.443V78.942h5.981v23.501H400.599z"/>
	<path d="M418.924,78.942v3.521c1.499-2.573,3.931-3.86,7.297-3.86c2.687,0,4.878,0.884,6.575,2.651
		c1.696,1.768,2.545,4.221,2.545,7.36v13.83h-5.938V89.462c0-1.838-0.467-3.246-1.4-4.221s-2.206-1.463-3.817-1.463
		c-1.612,0-2.893,0.488-3.84,1.463s-1.421,2.383-1.421,4.221v12.981h-5.981V78.942H418.924z"/>
	<path d="M451.419,102.783c-3.422,0-6.208-1.11-8.357-3.331c-2.149-2.22-3.224-5.154-3.224-8.802s1.082-6.568,3.245-8.76
		c2.163-2.191,4.963-3.288,8.399-3.288s6.257,1.067,8.463,3.203c2.206,2.136,3.31,4.984,3.31,8.548c0,0.821-0.058,1.584-0.17,2.291
		h-17.139c0.142,1.527,0.707,2.757,1.697,3.691c0.989,0.933,2.248,1.399,3.775,1.399c2.064,0,3.591-0.849,4.581-2.545h6.448
		c-0.679,2.234-1.993,4.059-3.945,5.473C456.552,102.076,454.19,102.783,451.419,102.783z M455.343,85.05
		c-1.061-0.933-2.341-1.4-3.839-1.4c-1.5,0-2.751,0.467-3.755,1.4c-1.004,0.934-1.605,2.178-1.803,3.733h11.114
		C456.977,87.229,456.403,85.984,455.343,85.05z"/>
</g>
<g id="layout" display="none">
	
		<image display="inline" overflow="visible" enable-background="new    " width="228" height="81" xlink:href="1C294030.png"  transform="matrix(2.1751 0 0 2.1751 10.9478 6.0479)">
	</image>
</g>
<g id="Ebene_2">
	<circle fill="#9FE14E" cx="61.167" cy="147.799" r="18"/>
	<circle fill="#9FE14E" cx="61.167" cy="26.297" r="18"/>
	<circle fill="#9FE14E" cx="34.333" cy="87.048" r="18"/>
	<path fill="#9FE14E" d="M131.163,105.049c-9.941,0-18-8.059-18-18c0-9.943,8.059-18.001,18-18.001h-8.5
		c-9.941,0-18,8.059-18,18.001c0,9.942,8.059,18,18,18H131.163z"/>
	<g>
		<path fill="#141618" d="M147.06,135.764c-0.03,0.184-0.091,0.363-0.151,0.547c1.212,0.666,4.818,2.879,5.697,3.483l-1.424,1.455
			c-0.909-0.788-3.364-2.517-4.909-3.576c-1.03,1.788-2.879,3.606-6.212,5.091c-0.273-0.424-0.849-1.061-1.303-1.424
			c4.031-1.576,5.667-3.667,6.333-5.576h-6.061v-1.697h6.424c0.061-0.452,0.061-0.907,0.061-1.303v-1.849h-2.758
			c-0.576,1.091-1.212,2.091-1.878,2.849c-0.364-0.303-1.061-0.758-1.485-1c1.303-1.424,2.455-3.879,3.151-6.303l2.303,0.605
			c-0.091,0.211-0.273,0.303-0.606,0.271c-0.182,0.604-0.424,1.243-0.667,1.851h8.516v1.728h-4.637v1.879
			c0,0.394-0.03,0.818-0.061,1.272h5.485v1.697H147.06L147.06,135.764z M143.757,154.704v-12.638h18.273v12.576h-2.061v-1.093
			h-14.212v1.152L143.757,154.704L143.757,154.704z M159.97,143.794h-14.212v3.122h14.212V143.794z M145.757,151.825h14.212v-3.273
			h-14.212V151.825z M154.182,129.157h11v11.546h-2v-1.333h-7.061v1.454h-1.939V129.157z M156.121,137.552h7.061v-6.546h-7.061
			V137.552z"/>
		<path fill="#141618" d="M201.023,139.794v-4.303c-0.394,0.515-0.818,1-1.303,1.483c-0.303-0.395-0.849-0.908-1.273-1.15
			c1.758-1.637,2.879-3.818,3.515-5.576l0.485,0.061v-0.545h-3.606v-1.455h3.606v-1.757l2.333,0.151
			c-0.03,0.182-0.182,0.333-0.576,0.395v1.211h3.515v-1.757l2.364,0.151c-0.03,0.182-0.182,0.333-0.576,0.395v1.211h3.606v1.455
			h-3.606v1.454h-1.788v-1.454h-3.515v1.454h-0.758c-0.091,0.214-0.182,0.455-0.303,0.697h7.697l0.394-0.03l0.97,0.121
			c0,0.182-0.03,0.364-0.03,0.576c-0.272,4.97-0.545,6.758-1.151,7.455c-0.545,0.636-1.303,0.666-2.182,0.666
			c-0.636,0-1.485-0.03-2.333-0.061c-0.03-0.426-0.212-1.062-0.424-1.484c1.151,0.121,2.212,0.15,2.606,0.15
			c0.424,0,0.667-0.029,0.849-0.271c0.394-0.425,0.606-1.909,0.818-5.788h-7.879c-0.212,0.394-0.455,0.817-0.727,1.212h6.212v4.303
			h-5.424v1.03H201.023L201.023,139.794z M213.63,146.732v2.062h12.879v1.575H213.63v2.121c0,1.121-0.303,1.637-1.182,1.938
			c-0.909,0.243-2.455,0.273-4.97,0.273c-0.122-0.516-0.424-1.213-0.697-1.697c1.939,0.03,3.697,0.03,4.182,0.03
			c0.485-0.03,0.636-0.151,0.636-0.576v-2.091H198.69v-1.575h12.91v-2.062h-10.606v-1.545H211.6v-1.939
			c-2.727,0.15-5.545,0.242-8.122,0.242c-0.03-0.396-0.242-1.03-0.424-1.396c5.909-0.091,13.212-0.483,17.061-1.183l1.394,1.425
			c-0.061,0.03-0.122,0.062-0.243,0.062c-0.061,0-0.182-0.029-0.303-0.062c-1.879,0.333-4.485,0.604-7.334,0.788v2.062h10.819v1.545
			H213.63V146.732z M206.418,135.673h-3.879v1.879h3.879V135.673z M226.6,131.582h-2.121c-0.758,2.061-2,3.788-3.606,5.15
			c1.667,1.213,3.637,2.092,5.879,2.605c-0.424,0.363-0.939,1.121-1.182,1.639c-2.364-0.639-4.424-1.697-6.152-3.123
			c-1.818,1.244-3.97,2.15-6.364,2.789c-0.182-0.426-0.667-1.121-1.03-1.484c2.303-0.546,4.364-1.364,6.091-2.516
			c-1-1.03-1.849-2.242-2.546-3.548c-0.636,0.939-1.333,1.759-2.061,2.455c-0.303-0.303-0.939-0.879-1.364-1.149
			c1.909-1.788,3.637-4.818,4.606-7.939l2.273,0.637c-0.061,0.211-0.273,0.334-0.637,0.303c-0.303,0.88-0.636,1.729-1.03,2.576
			h9.243L226.6,131.582L226.6,131.582z M216.63,131.582c0.667,1.516,1.636,2.879,2.878,4.03c1.273-1.091,2.273-2.425,2.94-4.03
			H216.63z"/>
		<path fill="#141618" d="M273.412,151.704h12.729v2h-27.396v-2h12.575v-8.122h-9.242v-1.97h9.242v-7h-7.424
			c-1.062,2.182-2.306,4.149-3.639,5.604c-0.395-0.363-1.182-0.938-1.695-1.242c2.483-2.637,4.637-7.242,5.879-11.88l2.637,0.729
			c-0.092,0.212-0.303,0.333-0.697,0.333c-0.454,1.485-0.97,3-1.574,4.455h6.516v-6.062l2.728,0.151
			c-0.028,0.212-0.212,0.361-0.636,0.424v5.484h11.303v2h-11.303v7h10.184v1.971h-10.184L273.412,151.704L273.412,151.704z"/>
		<path fill="#141618" d="M328.497,141.764l-3.667,1.305v9.15c0,2.182-1,2.516-5.03,2.455c-0.091-0.484-0.395-1.334-0.667-1.879
			c1.425,0.03,2.729,0.03,3.121,0.03c0.396-0.03,0.576-0.151,0.576-0.576v-8.455c-1.424,0.485-2.729,0.938-3.758,1.272
			c0,0.242-0.151,0.425-0.363,0.483l-0.849-2.394c1.361-0.364,3.091-0.881,4.97-1.455v-7.121h-4.606v-1.909h4.606v-6.121
			l2.604,0.151c-0.028,0.24-0.182,0.361-0.604,0.424v5.546h3.485v1.909h-3.485v6.484l3.395-1.062L328.497,141.764z M343.285,138.824
			l1.333,0.604c-0.062,0.151-0.184,0.242-0.272,0.333c-1.212,3.729-3.242,6.76-5.788,9.152c2.215,1.816,4.881,3.212,7.939,4.029
			c-0.424,0.425-1.03,1.213-1.333,1.759c-3.151-0.972-5.879-2.485-8.151-4.485c-2.667,2.062-5.788,3.576-9.029,4.518
			c-0.214-0.518-0.729-1.364-1.121-1.818c3.091-0.788,6.121-2.15,8.695-4.121c-1.97-2.092-3.516-4.605-4.604-7.546l1.425-0.455
			h-3.121v-1.879h6.818v-5.394h-7.306v-1.939h7.306v-5.061l2.636,0.182c-0.03,0.212-0.182,0.363-0.605,0.424v4.455h7.818v1.939
			h-7.818v5.394h4.818L343.285,138.824z M332.8,140.794c1,2.576,2.425,4.849,4.273,6.758c2.028-1.849,3.695-4.091,4.758-6.758H332.8
			z"/>
		<path fill="#141618" d="M393.765,145.098c0.729,1.424,1.696,2.666,2.878,3.729c1.972-0.938,4.396-2.334,5.851-3.396l1.816,1.332
			c-0.119,0.152-0.394,0.213-0.666,0.152c-1.483,0.909-3.786,2.091-5.695,2.97c2.182,1.575,4.909,2.636,8.121,3.212
			c-0.426,0.396-0.909,1.151-1.184,1.668c-6.242-1.305-10.667-4.455-13-9.517c-1.243,0.97-2.788,1.879-4.455,2.697l0.454,0.091
			c-0.028,0.182-0.212,0.333-0.604,0.363v3.697c2.361-0.242,4.97-0.548,7.516-0.851l0.062,1.576
			c-4.215,0.573-8.667,1.121-11.455,1.454c-0.03,0.24-0.184,0.395-0.396,0.453l-0.909-2.09l3.215-0.334v-3.455
			c-2.093,0.85-4.306,1.545-6.335,2c-0.241-0.455-0.759-1.183-1.183-1.545c3.939-0.759,8.517-2.304,11.546-4.213H378.28V143.4
			h12.575v-2.272l2.667,0.183c-0.03,0.211-0.214,0.362-0.605,0.424v1.666h12.728v1.697H393.765z M385.128,135.552v-1.728h-6.971
			v-1.545h6.971v-2.031H381.4c-0.396,0.729-0.788,1.395-1.184,1.939c-0.334-0.213-0.938-0.545-1.395-0.729
			c0.909-1.184,1.728-3.03,2.271-4.816l2.031,0.635c-0.092,0.214-0.304,0.272-0.576,0.244c-0.149,0.394-0.303,0.815-0.483,1.24
			h3.062v-2.24l2.363,0.149c-0.03,0.212-0.184,0.363-0.576,0.424v1.667h5.576v1.484h-5.576v2.029h6.758v1.547h-6.758v1.728h5.758
			v3.818c0,1.696-0.938,1.728-3.636,1.728c-0.091-0.453-0.396-1-0.576-1.395h1.637c0.696,0,0.759,0,0.759-0.333v-2.396h-3.939v5.092
			h-1.787v-5.092H381.4v4.272h-1.667v-5.697h5.395V135.552z M397.765,128.098c-0.028,0.183-0.183,0.334-0.574,0.396v10.271h-1.881
			v-10.849L397.765,128.098z M404.977,126.977c-0.028,0.211-0.182,0.362-0.574,0.424v12.214c0,2.061-0.575,2.241-5.484,2.241
			c-0.091-0.516-0.395-1.241-0.667-1.728c1,0.03,1.939,0.062,2.637,0.062c1.454,0,1.639,0,1.639-0.575v-12.759L404.977,126.977z"/>
		<path fill="#141618" d="M465.304,147.461h-10.576c2.76,2.305,7.121,4.213,11.184,5.061c-0.454,0.396-1,1.123-1.272,1.639
			c-4.362-1.121-9.121-3.546-11.97-6.455v7.001h-2v-7.031c-2.938,2.879-7.728,5.396-11.88,6.606
			c-0.272-0.484-0.849-1.184-1.272-1.575c3.818-0.972,8.121-2.938,10.939-5.243h-10.303v-1.788h12.516v-2.241l2.605,0.183
			c-0.03,0.182-0.214,0.334-0.605,0.395v1.666h12.637L465.304,147.461L465.304,147.461z M437.969,142.37l1.639-0.091
			c0.546-0.697,1.149-1.547,1.758-2.426c-0.788-1.092-2.121-2.483-3.305-3.545l0.908-1.062c0.306,0.271,0.638,0.545,0.972,0.815
			c0.758-1.24,1.604-2.907,2.092-4.09l1.909,0.817c-0.122,0.183-0.306,0.242-0.606,0.242c-0.605,1.12-1.576,2.817-2.425,3.97
			c0.516,0.546,0.97,1.061,1.304,1.516c0.729-1.149,1.396-2.303,1.879-3.242l1.851,0.817c-0.093,0.152-0.306,0.243-0.606,0.243
			c-1,1.666-2.576,4.03-3.97,5.85c1.029-0.062,2.149-0.15,3.303-0.244c-0.271-0.604-0.575-1.211-0.909-1.756l1.305-0.484
			c0.85,1.304,1.604,3.061,1.88,4.213l-1.396,0.515c-0.091-0.333-0.182-0.728-0.333-1.12c-2.364,0.241-4.667,0.453-6.182,0.605
			c-0.062,0.242-0.213,0.361-0.425,0.395L437.969,142.37z M445.394,132.885v-2.061h-7.271v-1.788h7.271v-2.484l2.639,0.151
			c-0.03,0.212-0.212,0.363-0.606,0.424v1.909h8.485v-2.484l2.637,0.151c-0.03,0.242-0.213,0.363-0.604,0.424v1.909h7.483v1.788
			h-7.483v2.061h-2.03v-2.061h-8.485v2.061H445.394z M450.151,133.854c0.333-0.849,0.637-1.907,0.816-2.637l2.304,0.606
			c-0.092,0.182-0.271,0.303-0.604,0.303c-0.183,0.485-0.455,1.122-0.697,1.728h4.333v9.547h-9.242v-9.547H450.151z
			 M454.454,137.885V135.4h-5.605v2.482L454.454,137.885L454.454,137.885z M454.454,141.854v-2.515h-5.605v2.515H454.454z
			 M456.546,142.37l1.515-0.091c0.606-0.697,1.242-1.518,1.881-2.396c-0.818-1.121-2.184-2.482-3.396-3.515l0.97-1.121
			c0.305,0.242,0.638,0.545,0.972,0.815c0.787-1.24,1.666-2.848,2.182-4.028l1.909,0.849c-0.091,0.184-0.304,0.242-0.606,0.242
			c-0.604,1.122-1.604,2.729-2.482,3.879c0.515,0.546,1,1.062,1.394,1.546c0.788-1.149,1.518-2.333,2.03-3.303l1.909,0.848
			c-0.092,0.185-0.305,0.243-0.606,0.243c-1.091,1.696-2.787,4.03-4.303,5.818l3.576-0.215c-0.306-0.635-0.667-1.271-1.03-1.815
			l1.303-0.604c0.939,1.332,1.759,3.121,2.121,4.332l-1.424,0.668c-0.091-0.363-0.212-0.789-0.395-1.242l-6.363,0.637
			c-0.03,0.212-0.184,0.363-0.396,0.395L456.546,142.37z"/>
	</g>
	<line fill="none" stroke="#9FE14E" stroke-width="3" x1="35.667" y1="87.048" x2="110.333" y2="87.048"/>
	<line fill="none" stroke="#9FE14E" stroke-width="3" x1="59.75" y1="150.518" x2="112.548" y2="97.72"/>
	<line fill="none" stroke="#9FE14E" stroke-width="3" x1="59.75" y1="23.579" x2="112.548" y2="76.376"/>
</g>
</svg>
