<?xml version="1.0" encoding="utf-8"?>
<!-- Generator: Adobe Illustrator 24.0.2, SVG Export Plug-In . SVG Version: 6.00 Build 0)  -->
<svg version="1.1" id="Ebene_1" xmlns="http://www.w3.org/2000/svg" xmlns:xlink="http://www.w3.org/1999/xlink" x="0px" y="0px"
	 viewBox="0 0 500 190" enable-background="new 0 0 500 190" xml:space="preserve">
<circle fill="#33356C" cx="61.17" cy="147.8" r="18"/>
<circle fill="#33356C" cx="61.17" cy="26.3" r="18"/>
<circle fill="#33356C" cx="34.33" cy="87.05" r="18"/>
<g>
	<path fill="#33356C" d="M147.06,135.76c-0.03,0.19-0.09,0.36-0.15,0.55c1.21,0.67,4.82,2.88,5.7,3.48l-1.42,1.46
		c-0.91-0.79-3.36-2.52-4.91-3.58c-1.03,1.79-2.88,3.61-6.21,5.09c-0.27-0.42-0.85-1.06-1.3-1.42c4.03-1.58,5.67-3.67,6.33-5.58
		h-6.06v-1.7h6.42c0.06-0.45,0.06-0.9,0.06-1.3v-1.85h-2.76c-0.58,1.09-1.21,2.09-1.88,2.85c-0.36-0.3-1.06-0.76-1.49-1
		c1.3-1.42,2.46-3.88,3.15-6.3l2.3,0.61c-0.09,0.21-0.27,0.3-0.61,0.27c-0.18,0.6-0.42,1.24-0.67,1.85h8.52v1.73h-4.64v1.88
		c0,0.4-0.03,0.82-0.06,1.27h5.49v1.7L147.06,135.76L147.06,135.76z M143.76,154.7v-12.64h18.27v12.58h-2.06v-1.1h-14.21v1.15
		L143.76,154.7L143.76,154.7z M159.97,143.79h-14.21v3.12h14.21V143.79z M145.76,151.82h14.21v-3.27h-14.21V151.82z M154.18,129.16
		h11v11.55h-2v-1.33h-7.06v1.45h-1.94V129.16z M156.12,137.55h7.06v-6.55h-7.06V137.55z"/>
	<path fill="#33356C" d="M201.02,139.79v-4.3c-0.39,0.51-0.82,1-1.3,1.48c-0.3-0.4-0.85-0.91-1.27-1.15
		c1.76-1.64,2.88-3.82,3.51-5.58l0.49,0.06v-0.54h-3.61v-1.46h3.61v-1.76l2.33,0.15c-0.03,0.18-0.18,0.33-0.58,0.39v1.21h3.51v-1.76
		l2.36,0.15c-0.03,0.18-0.18,0.33-0.58,0.39v1.21h3.61v1.46h-3.61v1.45h-1.79v-1.45h-3.51v1.45h-0.76c-0.09,0.21-0.18,0.46-0.3,0.7
		h7.7l0.39-0.03l0.97,0.12c0,0.18-0.03,0.36-0.03,0.58c-0.27,4.97-0.54,6.76-1.15,7.46c-0.54,0.64-1.3,0.67-2.18,0.67
		c-0.64,0-1.49-0.03-2.33-0.06c-0.03-0.43-0.21-1.06-0.42-1.48c1.15,0.12,2.21,0.15,2.61,0.15c0.42,0,0.67-0.03,0.85-0.27
		c0.39-0.43,0.61-1.91,0.82-5.79h-7.88c-0.21,0.39-0.46,0.82-0.73,1.21h6.21v4.3h-5.42v1.03L201.02,139.79L201.02,139.79z
		 M213.63,146.73v2.06h12.88v1.57h-12.88v2.12c0,1.12-0.3,1.64-1.18,1.94c-0.91,0.24-2.46,0.27-4.97,0.27
		c-0.12-0.52-0.42-1.21-0.7-1.7c1.94,0.03,3.7,0.03,4.18,0.03c0.49-0.03,0.64-0.15,0.64-0.58v-2.09h-12.91v-1.57h12.91v-2.06h-10.61
		v-1.54h10.61v-1.94c-2.73,0.15-5.54,0.24-8.12,0.24c-0.03-0.4-0.24-1.03-0.42-1.4c5.91-0.09,13.21-0.48,17.06-1.18l1.39,1.43
		c-0.06,0.03-0.12,0.06-0.24,0.06c-0.06,0-0.18-0.03-0.3-0.06c-1.88,0.33-4.49,0.6-7.33,0.79v2.06h10.82v1.54L213.63,146.73
		L213.63,146.73z M206.42,135.67h-3.88v1.88h3.88V135.67z M226.6,131.58h-2.12c-0.76,2.06-2,3.79-3.61,5.15
		c1.67,1.21,3.64,2.09,5.88,2.6c-0.42,0.36-0.94,1.12-1.18,1.64c-2.36-0.64-4.42-1.7-6.15-3.12c-1.82,1.24-3.97,2.15-6.36,2.79
		c-0.18-0.43-0.67-1.12-1.03-1.48c2.3-0.55,4.36-1.36,6.09-2.52c-1-1.03-1.85-2.24-2.55-3.55c-0.64,0.94-1.33,1.76-2.06,2.46
		c-0.3-0.3-0.94-0.88-1.36-1.15c1.91-1.79,3.64-4.82,4.61-7.94l2.27,0.64c-0.06,0.21-0.27,0.33-0.64,0.3
		c-0.3,0.88-0.64,1.73-1.03,2.58h9.24L226.6,131.58L226.6,131.58z M216.63,131.58c0.67,1.52,1.64,2.88,2.88,4.03
		c1.27-1.09,2.27-2.43,2.94-4.03H216.63z"/>
	<path fill="#33356C" d="M273.41,151.7h12.73v2h-27.4v-2h12.58v-8.12h-9.24v-1.97h9.24v-7h-7.42c-1.06,2.18-2.31,4.15-3.64,5.6
		c-0.4-0.36-1.18-0.94-1.69-1.24c2.48-2.64,4.64-7.24,5.88-11.88l2.64,0.73c-0.09,0.21-0.3,0.33-0.7,0.33
		c-0.45,1.48-0.97,3-1.57,4.46h6.52v-6.06l2.73,0.15c-0.03,0.21-0.21,0.36-0.64,0.42v5.48h11.3v2h-11.3v7h10.18v1.97h-10.18
		L273.41,151.7L273.41,151.7z"/>
	<path fill="#33356C" d="M328.5,141.76l-3.67,1.3v9.15c0,2.18-1,2.52-5.03,2.46c-0.09-0.48-0.39-1.33-0.67-1.88
		c1.42,0.03,2.73,0.03,3.12,0.03c0.4-0.03,0.58-0.15,0.58-0.58v-8.46c-1.42,0.49-2.73,0.94-3.76,1.27c0,0.24-0.15,0.43-0.36,0.48
		l-0.85-2.4c1.36-0.36,3.09-0.88,4.97-1.45v-7.12h-4.61v-1.91h4.61v-6.12l2.6,0.15c-0.02,0.24-0.18,0.36-0.6,0.42v5.55h3.48v1.91
		h-3.48v6.48l3.39-1.06L328.5,141.76z M343.29,138.82l1.33,0.6c-0.06,0.15-0.19,0.24-0.27,0.33c-1.21,3.73-3.24,6.76-5.79,9.15
		c2.22,1.82,4.88,3.21,7.94,4.03c-0.42,0.43-1.03,1.21-1.33,1.76c-3.15-0.97-5.88-2.49-8.15-4.49c-2.67,2.06-5.79,3.58-9.03,4.52
		c-0.22-0.52-0.73-1.36-1.12-1.82c3.09-0.79,6.12-2.15,8.69-4.12c-1.97-2.09-3.52-4.6-4.6-7.55l1.42-0.46h-3.12v-1.88h6.82v-5.4
		h-7.31v-1.94h7.31v-5.06l2.64,0.18c-0.03,0.21-0.18,0.36-0.6,0.42v4.46h7.82v1.94h-7.82v5.4h4.82L343.29,138.82z M332.8,140.79
		c1,2.58,2.42,4.85,4.27,6.76c2.02-1.85,3.69-4.09,4.76-6.76H332.8z"/>
	<path fill="#33356C" d="M393.77,145.1c0.73,1.42,1.7,2.67,2.88,3.73c1.98-0.94,4.4-2.33,5.85-3.4l1.81,1.33
		c-0.12,0.15-0.39,0.21-0.67,0.15c-1.48,0.91-3.78,2.09-5.69,2.97c2.18,1.57,4.91,2.64,8.12,3.21c-0.43,0.4-0.91,1.15-1.19,1.67
		c-6.24-1.31-10.67-4.46-13-9.52c-1.24,0.97-2.79,1.88-4.45,2.7l0.45,0.09c-0.02,0.18-0.21,0.33-0.6,0.36v3.7
		c2.36-0.24,4.97-0.55,7.52-0.85l0.06,1.57c-4.22,0.57-8.67,1.12-11.45,1.46c-0.03,0.24-0.19,0.4-0.4,0.45l-0.91-2.09l3.22-0.33
		v-3.45c-2.1,0.85-4.31,1.55-6.33,2c-0.24-0.45-0.76-1.18-1.19-1.55c3.94-0.76,8.52-2.3,11.55-4.21h-11.06v-1.69h12.58v-2.27
		l2.67,0.18c-0.03,0.21-0.22,0.36-0.6,0.42v1.67h12.73v1.7L393.77,145.1L393.77,145.1L393.77,145.1z M385.13,135.55v-1.73h-6.97
		v-1.54h6.97v-2.03h-3.73c-0.4,0.73-0.79,1.4-1.19,1.94c-0.33-0.21-0.94-0.54-1.39-0.73c0.91-1.18,1.73-3.03,2.27-4.82l2.03,0.64
		c-0.09,0.22-0.3,0.27-0.58,0.24c-0.15,0.4-0.3,0.81-0.48,1.24h3.06v-2.24l2.36,0.15c-0.03,0.21-0.19,0.36-0.58,0.42v1.67h5.58v1.48
		h-5.58v2.03h6.76v1.55h-6.76v1.73h5.76v3.82c0,1.7-0.94,1.73-3.64,1.73c-0.09-0.45-0.4-1-0.58-1.4h1.64c0.7,0,0.76,0,0.76-0.33
		v-2.4h-3.94v5.09h-1.79v-5.09h-3.73v4.27h-1.67v-5.7L385.13,135.55L385.13,135.55L385.13,135.55z M397.77,128.1
		c-0.02,0.19-0.18,0.33-0.57,0.4v10.27h-1.88v-10.85L397.77,128.1z M404.98,126.98c-0.02,0.21-0.18,0.36-0.57,0.42v12.22
		c0,2.06-0.58,2.24-5.48,2.24c-0.09-0.52-0.39-1.24-0.67-1.73c1,0.03,1.94,0.06,2.64,0.06c1.45,0,1.64,0,1.64-0.57v-12.76
		L404.98,126.98z"/>
	<path fill="#33356C" d="M465.3,147.46h-10.58c2.76,2.3,7.12,4.21,11.19,5.06c-0.45,0.4-1,1.12-1.27,1.64
		c-4.36-1.12-9.12-3.55-11.97-6.46v7h-2v-7.03c-2.94,2.88-7.73,5.4-11.88,6.61c-0.27-0.48-0.85-1.19-1.27-1.57
		c3.82-0.98,8.12-2.94,10.94-5.24h-10.3v-1.79h12.52v-2.24l2.61,0.18c-0.03,0.18-0.22,0.33-0.61,0.4v1.67h12.64L465.3,147.46
		L465.3,147.46z M437.97,142.37l1.64-0.09c0.55-0.7,1.15-1.55,1.76-2.43c-0.79-1.1-2.12-2.48-3.31-3.54l0.91-1.06
		c0.31,0.27,0.64,0.54,0.98,0.81c0.76-1.24,1.6-2.91,2.09-4.09l1.91,0.82c-0.12,0.18-0.31,0.24-0.61,0.24
		c-0.6,1.12-1.58,2.82-2.42,3.97c0.52,0.55,0.97,1.06,1.3,1.52c0.73-1.15,1.4-2.3,1.88-3.24l1.85,0.82
		c-0.1,0.15-0.31,0.24-0.61,0.24c-1,1.67-2.58,4.03-3.97,5.85c1.03-0.06,2.15-0.15,3.3-0.24c-0.27-0.6-0.58-1.21-0.91-1.76
		l1.31-0.48c0.85,1.3,1.6,3.06,1.88,4.21l-1.4,0.51c-0.09-0.33-0.18-0.73-0.33-1.12c-2.36,0.24-4.67,0.45-6.18,0.6
		c-0.06,0.24-0.21,0.36-0.42,0.4L437.97,142.37z M445.39,132.88v-2.06h-7.27v-1.79h7.27v-2.48l2.64,0.15
		c-0.03,0.21-0.21,0.36-0.61,0.42v1.91h8.48v-2.48l2.64,0.15c-0.03,0.24-0.21,0.36-0.6,0.42v1.91h7.48v1.79h-7.48v2.06h-2.03v-2.06
		h-8.48v2.06H445.39z M450.15,133.85c0.33-0.85,0.64-1.9,0.81-2.64l2.31,0.61c-0.1,0.18-0.27,0.3-0.6,0.3
		c-0.18,0.49-0.45,1.12-0.7,1.73h4.33v9.55h-9.24v-9.55H450.15z M454.45,137.88v-2.49h-5.61v2.48L454.45,137.88L454.45,137.88z
		 M454.45,141.85v-2.51h-5.61v2.51H454.45z M456.55,142.37l1.52-0.09c0.61-0.7,1.24-1.52,1.88-2.4c-0.82-1.12-2.19-2.48-3.4-3.51
		l0.97-1.12c0.31,0.24,0.64,0.54,0.98,0.82c0.79-1.24,1.67-2.85,2.18-4.03l1.91,0.85c-0.09,0.18-0.3,0.24-0.61,0.24
		c-0.6,1.12-1.6,2.73-2.48,3.88c0.52,0.55,1,1.06,1.39,1.55c0.79-1.15,1.52-2.33,2.03-3.3l1.91,0.85c-0.09,0.19-0.3,0.24-0.61,0.24
		c-1.09,1.7-2.79,4.03-4.3,5.82l3.58-0.21c-0.31-0.63-0.67-1.27-1.03-1.82l1.3-0.6c0.94,1.33,1.76,3.12,2.12,4.33l-1.42,0.67
		c-0.09-0.36-0.21-0.79-0.39-1.24l-6.36,0.64c-0.03,0.21-0.18,0.36-0.4,0.4L456.55,142.37z"/>
</g>
<line fill="none" stroke="#33356C" stroke-width="3" x1="35.67" y1="87.05" x2="110.33" y2="87.05"/>
<line fill="none" stroke="#33356C" stroke-width="3" x1="59.75" y1="150.52" x2="112.55" y2="97.72"/>
<line fill="none" stroke="#33356C" stroke-width="3" x1="59.75" y1="23.58" x2="112.55" y2="76.38"/>
<linearGradient id="SVGID_1_" gradientUnits="userSpaceOnUse" x1="298.7716" y1="47.8091" x2="268.0289" y2="162.5423" gradientTransform="matrix(1 0 0 -1 0 192)">
	<stop  offset="0" style="stop-color:#45A141"/>
	<stop  offset="0.4667" style="stop-color:#47A341"/>
	<stop  offset="0.7097" style="stop-color:#4FAB41"/>
	<stop  offset="0.9005" style="stop-color:#5CB742"/>
	<stop  offset="1" style="stop-color:#67C142"/>
</linearGradient>
<path fill="url(#SVGID_1_)" d="M161.51,87.6c-0.76,0.94-1.87,1.68-3.33,2.23c-1.46,0.55-3.16,0.83-5.11,0.83h-4.92v11.79h-5.98
	V72.83h10.9c3.42,0,6.06,0.86,7.91,2.57c1.85,1.71,2.78,3.73,2.78,6.04C163.76,83.76,163.01,85.81,161.51,87.6z M148.15,86.07h4.92
	c1.5,0,2.64-0.39,3.44-1.17c0.79-0.78,1.19-1.83,1.19-3.16s-0.4-2.38-1.19-3.16c-0.79-0.78-1.94-1.17-3.44-1.17h-4.92V86.07z
	 M174.24,71.05v11.41c1.5-2.57,3.93-3.86,7.3-3.86c2.69,0,4.88,0.88,6.58,2.65s2.54,4.22,2.54,7.36v13.83h-5.94V89.46
	c0-1.84-0.47-3.25-1.4-4.22c-0.93-0.98-2.21-1.46-3.82-1.46s-2.89,0.49-3.84,1.46c-0.95,0.98-1.42,2.38-1.42,4.22v12.98h-5.98V71.05
	H174.24z M198.31,99.37c-2.11-2.28-3.16-5.18-3.16-8.72s1.05-6.43,3.14-8.68c2.09-2.25,4.75-3.37,7.98-3.37s5.68,1.33,7.38,3.99
	v-3.65h5.94v23.5h-5.94V98.5c-1.78,2.86-4.26,4.29-7.42,4.29S200.42,101.64,198.31,99.37z M211.78,95.76
	c1.24-1.23,1.87-2.92,1.87-5.07c0-2.15-0.62-3.84-1.87-5.07c-1.24-1.23-2.7-1.85-4.37-1.85s-3.12,0.61-4.35,1.82
	c-1.23,1.22-1.85,2.9-1.85,5.05c0,2.15,0.62,3.85,1.87,5.09c1.24,1.25,2.69,1.87,4.35,1.87C209.09,97.61,210.54,96.99,211.78,95.76z
	 M231.93,78.94v4.16c1.58-3,3.88-4.5,6.87-4.5v6.11h-1.49c-1.78,0-3.13,0.44-4.03,1.34s-1.36,2.43-1.36,4.6v11.79h-5.98v-23.5
	L231.93,78.94L231.93,78.94z M249.03,78.94v3.52c1.5-2.57,3.93-3.86,7.3-3.86c1.78,0,3.37,0.41,4.77,1.23
	c1.4,0.82,2.48,1.99,3.24,3.52c0.82-1.47,1.94-2.63,3.37-3.48c1.43-0.85,3.03-1.27,4.81-1.27c2.8,0,5.06,0.88,6.77,2.63
	c1.71,1.75,2.56,4.21,2.56,7.38v13.83h-5.94V89.46c0-1.84-0.47-3.25-1.4-4.22c-0.93-0.98-2.2-1.46-3.82-1.46
	c-1.61,0-2.89,0.49-3.84,1.46c-0.95,0.98-1.42,2.38-1.42,4.22v12.98h-5.94V89.46c0-1.84-0.47-3.25-1.4-4.22
	c-0.93-0.97-2.21-1.46-3.82-1.46c-1.61,0-2.9,0.49-3.84,1.46c-0.95,0.98-1.42,2.38-1.42,4.22v12.98h-5.98v-23.5H249.03z
	 M289.94,99.37c-2.11-2.28-3.16-5.18-3.16-8.72s1.05-6.43,3.14-8.68s4.75-3.37,7.98-3.37c3.23,0,5.69,1.33,7.39,3.99v-3.65h5.94
	v23.5h-5.94V98.5c-1.78,2.86-4.26,4.29-7.43,4.29C294.69,102.78,292.05,101.64,289.94,99.37z M303.41,95.76
	c1.24-1.23,1.87-2.92,1.87-5.07c0-2.15-0.62-3.84-1.87-5.07c-1.24-1.23-2.7-1.85-4.37-1.85c-1.67,0-3.12,0.61-4.35,1.82
	c-1.23,1.22-1.85,2.9-1.85,5.05c0,2.15,0.62,3.85,1.86,5.09c1.24,1.25,2.69,1.87,4.35,1.87C300.72,97.61,302.17,96.99,303.41,95.76z
	 M336.8,72.75v4.58h-11.11v7.76h9.85v4.58h-9.85v8.19h11.11v4.58h-17.1v-29.7H336.8z M348.89,78.94v3.52
	c1.5-2.57,3.93-3.86,7.3-3.86c2.69,0,4.88,0.88,6.58,2.65c1.7,1.77,2.55,4.22,2.55,7.36v13.83h-5.94V89.46
	c0-1.84-0.47-3.25-1.4-4.22c-0.93-0.97-2.21-1.46-3.81-1.46c-1.61,0-2.9,0.49-3.84,1.46c-0.94,0.97-1.42,2.38-1.42,4.22v12.98h-5.98
	v-23.5H348.89z M372.96,99.37c-2.11-2.28-3.16-5.18-3.16-8.72s1.05-6.43,3.14-8.68c2.09-2.25,4.75-3.37,7.98-3.37
	c3.23,0,5.69,1.33,7.38,3.99v-3.65h5.94v23.67c0,3.36-0.99,6.11-2.97,8.25c-1.98,2.14-4.76,3.2-8.34,3.2
	c-3.58,0-6.42-0.74-8.52-2.23c-2.11-1.48-3.3-3.6-3.58-6.34h5.85c0.37,1.05,1.07,1.87,2.12,2.48c1.05,0.61,2.36,0.91,3.95,0.91
	s2.9-0.52,3.97-1.57c1.06-1.05,1.59-2.61,1.59-4.71v-4.11c-1.78,2.85-4.26,4.28-7.42,4.28C377.7,102.78,375.07,101.64,372.96,99.37z
	 M386.43,95.76c1.24-1.23,1.87-2.92,1.87-5.07c0-2.15-0.62-3.84-1.87-5.07s-2.7-1.85-4.37-1.85c-1.67,0-3.11,0.61-4.35,1.82
	c-1.23,1.22-1.85,2.9-1.85,5.05c0,2.15,0.62,3.85,1.87,5.09c1.24,1.25,2.69,1.87,4.35,1.87S385.19,96.99,386.43,95.76z
	 M407.22,72.96c0,1.02-0.35,1.88-1.06,2.59c-0.71,0.71-1.56,1.06-2.57,1.06c-1.01,0-1.86-0.35-2.56-1.06
	c-0.71-0.71-1.06-1.57-1.06-2.59c0-1.02,0.35-1.88,1.06-2.59s1.56-1.06,2.56-1.06s1.86,0.35,2.57,1.06
	C406.86,71.08,407.22,71.94,407.22,72.96z M400.6,102.44v-23.5h5.98v23.5H400.6z M418.92,78.94v3.52c1.5-2.57,3.93-3.86,7.3-3.86
	c2.69,0,4.88,0.88,6.58,2.65c1.7,1.77,2.55,4.22,2.55,7.36v13.83h-5.94V89.46c0-1.84-0.47-3.25-1.4-4.22
	c-0.93-0.97-2.21-1.46-3.82-1.46c-1.61,0-2.89,0.49-3.84,1.46c-0.94,0.97-1.42,2.38-1.42,4.22v12.98h-5.98v-23.5H418.92z
	 M451.42,102.78c-3.42,0-6.21-1.11-8.35-3.33c-2.15-2.22-3.23-5.15-3.23-8.8s1.08-6.57,3.24-8.76c2.16-2.19,4.96-3.29,8.4-3.29
	c3.44,0,6.26,1.07,8.46,3.2c2.21,2.14,3.31,4.98,3.31,8.55c0,0.82-0.06,1.58-0.17,2.29h-17.14c0.14,1.53,0.71,2.76,1.69,3.69
	c0.99,0.93,2.25,1.4,3.77,1.4c2.06,0,3.59-0.85,4.58-2.54h6.45c-0.68,2.23-1.99,4.06-3.95,5.47
	C456.55,102.08,454.19,102.78,451.42,102.78z M455.34,85.05c-1.06-0.93-2.34-1.4-3.84-1.4c-1.5,0-2.75,0.47-3.76,1.4
	c-1,0.93-1.6,2.18-1.8,3.73h11.11C456.98,87.23,456.4,85.98,455.34,85.05z M131.16,105.05c-9.94,0-18-8.06-18-18
	c0-9.94,8.06-18,18-18h-8.5c-9.94,0-18,8.06-18,18s8.06,18,18,18H131.16z"/>
</svg>
