<?xml version="1.0" encoding="utf-8"?>
<!-- Generator: Adobe Illustrator 15.1.0, SVG Export Plug-In . SVG Version: 6.00 Build 0)  -->
<!DOCTYPE svg PUBLIC "-//W3C//DTD SVG 1.1//EN" "http://www.w3.org/Graphics/SVG/1.1/DTD/svg11.dtd">
<svg version="1.1" id="Ebene_1" xmlns="http://www.w3.org/2000/svg" xmlns:xlink="http://www.w3.org/1999/xlink" x="0px" y="0px"
	 width="500px" height="190px" viewBox="0 0 500 190" enable-background="new 0 0 500 190" xml:space="preserve">
<g id="layout" display="none">
	
		<image display="inline" overflow="visible" enable-background="new    " width="228" height="81" xlink:href="1C294030.png"  transform="matrix(2.1751 0 0 2.1751 10.9448 6.0449)">
	</image>
</g>
<g id="Ebene_2">
	<circle fill="#91CD47" cx="61.167" cy="147.799" r="18"/>
	<circle fill="#91CD47" cx="61.167" cy="26.297" r="18"/>
	<circle fill="#91CD47" cx="34.333" cy="87.048" r="18"/>
	<path fill="#91CD47" d="M131.163,105.049c-9.941,0-18-8.059-18-18c0-9.943,8.059-18.001,18-18.001h-8.5
		c-9.941,0-18,8.059-18,18.001c0,9.942,8.059,18,18,18H131.163z"/>
	<g>
		<path fill="#141618" d="M137.572,103.489V70.831h10.581c4.009,0,6.623,0.164,7.841,0.49c1.871,0.49,3.438,1.556,4.7,3.196
			c1.262,1.641,1.894,3.761,1.894,6.36c0,2.006-0.364,3.692-1.092,5.059c-0.728,1.367-1.652,2.439-2.773,3.22
			c-1.122,0.779-2.261,1.296-3.419,1.548c-1.574,0.312-3.854,0.468-6.838,0.468h-4.299v12.318L137.572,103.489L137.572,103.489z
			 M144.166,76.355v9.268h3.608c2.599,0,4.336-0.17,5.212-0.512c0.876-0.342,1.563-0.876,2.061-1.605
			c0.498-0.727,0.747-1.574,0.747-2.54c0-1.188-0.349-2.168-1.047-2.941c-0.698-0.772-1.582-1.254-2.65-1.448
			c-0.788-0.148-2.369-0.223-4.745-0.223L144.166,76.355L144.166,76.355z"/>
		<path fill="#141618" d="M175.425,70.831v12.007c2.019-2.362,4.433-3.542,7.239-3.542c1.44,0,2.74,0.267,3.898,0.801
			c1.158,0.535,2.03,1.219,2.617,2.05c0.586,0.833,0.987,1.754,1.203,2.763c0.215,1.011,0.323,2.578,0.323,4.702v13.878h-6.259
			V90.993c0-2.48-0.119-4.055-0.356-4.724c-0.238-0.668-0.657-1.2-1.259-1.593c-0.601-0.394-1.355-0.591-2.261-0.591
			c-1.04,0-1.968,0.253-2.785,0.758c-0.817,0.505-1.414,1.267-1.793,2.284c-0.378,1.018-0.568,2.522-0.568,4.511v11.852h-6.259
			V70.831H175.425z"/>
		<path fill="#141618" d="M202.964,87.049l-5.68-1.025c0.639-2.288,1.738-3.981,3.297-5.081c1.559-1.099,3.876-1.648,6.95-1.648
			c2.792,0,4.871,0.331,6.237,0.991c1.366,0.662,2.328,1.5,2.885,2.519c0.557,1.019,0.835,2.886,0.835,5.604l-0.067,7.306
			c0,2.079,0.1,3.612,0.301,4.602c0.2,0.986,0.575,2.045,1.125,3.174h-6.192c-0.164-0.416-0.364-1.032-0.602-1.85
			c-0.104-0.371-0.178-0.615-0.223-0.734c-1.069,1.04-2.213,1.818-3.43,2.339c-1.218,0.521-2.517,0.778-3.898,0.778
			c-2.436,0-4.355-0.659-5.758-1.981c-1.403-1.321-2.105-2.992-2.105-5.012c0-1.337,0.319-2.528,0.958-3.575
			c0.638-1.047,1.533-1.849,2.684-2.405c1.151-0.558,2.81-1.044,4.979-1.459c2.925-0.55,4.953-1.062,6.081-1.537v-0.625
			c0-1.204-0.297-2.061-0.891-2.574c-0.594-0.512-1.715-0.769-3.364-0.769c-1.114,0-1.982,0.22-2.606,0.657
			C203.855,85.182,203.35,85.95,202.964,87.049z M211.339,92.129c-0.802,0.268-2.071,0.587-3.809,0.958
			c-1.737,0.371-2.874,0.734-3.408,1.091c-0.817,0.579-1.226,1.314-1.226,2.206c0,0.876,0.327,1.634,0.98,2.271
			c0.653,0.639,1.485,0.958,2.495,0.958c1.128,0,2.206-0.371,3.23-1.113c0.757-0.564,1.255-1.255,1.493-2.072
			c0.163-0.533,0.245-1.552,0.245-3.052V92.129L211.339,92.129z"/>
		<path fill="#141618" d="M230.882,103.489h-6.259V79.83h5.814v3.364c0.995-1.589,1.889-2.637,2.684-3.142
			c0.794-0.505,1.696-0.757,2.707-0.757c1.425,0,2.799,0.393,4.121,1.18l-1.938,5.46c-1.054-0.684-2.035-1.026-2.94-1.026
			c-0.876,0-1.619,0.242-2.228,0.725c-0.609,0.482-1.088,1.356-1.437,2.618c-0.349,1.263-0.523,3.906-0.523,7.93L230.882,103.489
			L230.882,103.489z"/>
		<path fill="#141618" d="M243.407,79.83h5.77v3.23c2.064-2.51,4.521-3.765,7.373-3.765c1.517,0,2.83,0.311,3.943,0.936
			c1.112,0.623,2.026,1.567,2.739,2.829c1.039-1.262,2.16-2.206,3.363-2.829c1.203-0.625,2.486-0.936,3.854-0.936
			c1.737,0,3.207,0.352,4.409,1.058c1.203,0.706,2.103,1.742,2.695,3.108c0.432,1.01,0.646,2.645,0.646,4.902v15.125h-6.26V89.968
			c0-2.346-0.215-3.861-0.646-4.545c-0.578-0.891-1.469-1.337-2.672-1.337c-0.877,0-1.701,0.268-2.473,0.803
			c-0.773,0.535-1.33,1.318-1.672,2.351c-0.343,1.033-0.513,2.663-0.513,4.89v11.36h-6.26V90.525c0-2.302-0.11-3.788-0.334-4.456
			c-0.224-0.669-0.567-1.167-1.035-1.494c-0.469-0.326-1.104-0.49-1.903-0.49c-0.968,0-1.834,0.261-2.607,0.78
			c-0.771,0.52-1.324,1.27-1.658,2.251c-0.335,0.979-0.502,2.606-0.502,4.878v11.494h-6.259L243.407,79.83L243.407,79.83z"/>
		<path fill="#141618" d="M290.348,87.049l-5.68-1.025c0.639-2.288,1.736-3.981,3.297-5.081c1.559-1.099,3.875-1.648,6.949-1.648
			c2.792,0,4.871,0.331,6.236,0.991c1.367,0.662,2.328,1.5,2.886,2.519c0.557,1.02,0.835,2.886,0.835,5.604l-0.066,7.306
			c0,2.079,0.102,3.612,0.301,4.602c0.201,0.986,0.576,2.045,1.126,3.174h-6.192c-0.164-0.416-0.364-1.032-0.602-1.85
			c-0.104-0.371-0.18-0.615-0.224-0.734c-1.069,1.04-2.213,1.818-3.431,2.339c-1.219,0.521-2.518,0.778-3.898,0.778
			c-2.436,0-4.354-0.659-5.758-1.981c-1.402-1.321-2.105-2.992-2.105-5.012c0-1.337,0.319-2.528,0.959-3.575
			c0.639-1.047,1.533-1.849,2.685-2.405c1.149-0.558,2.81-1.044,4.979-1.459c2.924-0.55,4.951-1.062,6.08-1.537v-0.625
			c0-1.204-0.298-2.061-0.892-2.574c-0.594-0.512-1.715-0.769-3.362-0.769c-1.113,0-1.982,0.22-2.606,0.657
			C291.239,85.182,290.732,85.95,290.348,87.049z M298.725,92.129c-0.803,0.268-2.072,0.587-3.811,0.958s-2.873,0.734-3.408,1.091
			c-0.816,0.579-1.225,1.314-1.225,2.206c0,0.876,0.326,1.634,0.979,2.271c0.653,0.639,1.485,0.958,2.495,0.958
			c1.129,0,2.205-0.371,3.229-1.113c0.758-0.564,1.255-1.255,1.492-2.072c0.164-0.533,0.246-1.552,0.246-3.052v-1.247H298.725z"/>
		<path fill="#141618" d="M312.318,103.489V70.831h24.213v5.524h-17.62v7.241h16.396V89.1h-16.396v8.888h18.244v5.502
			L312.318,103.489L312.318,103.489z"/>
		<path fill="#141618" d="M365.452,103.489h-6.26V91.416c0-2.554-0.135-4.207-0.401-4.957s-0.701-1.333-1.303-1.75
			c-0.603-0.415-1.325-0.624-2.172-0.624c-1.084,0-2.058,0.298-2.918,0.892c-0.861,0.594-1.452,1.381-1.771,2.362
			c-0.319,0.98-0.479,2.792-0.479,5.435v10.715h-6.261V79.83h5.814v3.476c2.062-2.674,4.663-4.01,7.796-4.01
			c1.382,0,2.644,0.249,3.787,0.747c1.144,0.497,2.009,1.132,2.595,1.905c0.587,0.772,0.995,1.649,1.226,2.629
			c0.23,0.981,0.347,2.385,0.347,4.211V103.489L365.452,103.489z"/>
		<path fill="#141618" d="M372.452,105.049l7.149,0.868c0.119,0.832,0.395,1.403,0.824,1.716c0.594,0.445,1.529,0.668,2.808,0.668
			c1.634,0,2.857-0.244,3.676-0.734c0.549-0.326,0.965-0.854,1.247-1.582c0.192-0.521,0.29-1.479,0.29-2.873v-3.452
			c-1.871,2.554-4.232,3.831-7.084,3.831c-3.179,0-5.695-1.344-7.553-4.032c-1.454-2.123-2.183-4.767-2.183-7.93
			c0-3.965,0.954-6.996,2.862-9.09c1.907-2.095,4.279-3.142,7.117-3.142c2.926,0,5.338,1.285,7.238,3.854v-3.32h5.858v21.23
			c0,2.791-0.23,4.879-0.69,6.26c-0.46,1.382-1.105,2.465-1.938,3.253c-0.832,0.786-1.942,1.403-3.33,1.849
			c-1.39,0.445-3.146,0.668-5.27,0.668c-4.01,0-6.854-0.688-8.53-2.061c-1.68-1.374-2.519-3.115-2.519-5.225
			C372.43,105.598,372.438,105.346,372.452,105.049z M378.043,91.171c0,2.51,0.486,4.349,1.459,5.515s2.172,1.748,3.598,1.748
			c1.529,0,2.821-0.599,3.876-1.793c1.056-1.196,1.582-2.967,1.582-5.312c0-2.45-0.506-4.27-1.515-5.459
			c-1.011-1.188-2.287-1.783-3.832-1.783c-1.5,0-2.736,0.583-3.709,1.75S378.043,88.78,378.043,91.171z"/>
		<path fill="#141618" d="M402.13,76.622V70.83h6.26v5.792H402.13z M402.13,103.489V79.83h6.26v23.659H402.13z"/>
		<path fill="#141618" d="M437.555,103.489h-6.26V91.416c0-2.554-0.134-4.207-0.401-4.957c-0.267-0.75-0.7-1.333-1.303-1.75
			c-0.602-0.415-1.325-0.624-2.172-0.624c-1.084,0-2.057,0.298-2.918,0.892s-1.452,1.381-1.771,2.362
			c-0.319,0.98-0.479,2.792-0.479,5.435v10.715h-6.26V79.83h5.813v3.476c2.063-2.674,4.663-4.01,7.796-4.01
			c1.383,0,2.645,0.249,3.787,0.747c1.145,0.497,2.009,1.132,2.596,1.905c0.587,0.772,0.994,1.649,1.226,2.629
			c0.23,0.981,0.346,2.385,0.346,4.211V103.489L437.555,103.489z"/>
		<path fill="#141618" d="M458.834,95.96l6.237,1.047c-0.803,2.287-2.068,4.028-3.798,5.224c-1.73,1.195-3.896,1.793-6.493,1.793
			c-4.114,0-7.158-1.344-9.133-4.03c-1.561-2.153-2.34-4.871-2.34-8.153c0-3.92,1.024-6.992,3.073-9.213
			c2.05-2.221,4.642-3.331,7.774-3.331c3.52,0,6.297,1.163,8.331,3.487c2.033,2.325,3.007,5.887,2.918,10.683h-15.683
			c0.045,1.857,0.55,3.302,1.516,4.333c0.965,1.032,2.168,1.549,3.607,1.549c0.98,0,1.806-0.268,2.474-0.803
			C457.987,98.01,458.492,97.148,458.834,95.96z M459.19,89.634c-0.044-1.812-0.513-3.189-1.403-4.133s-1.976-1.416-3.252-1.416
			c-1.366,0-2.495,0.498-3.386,1.494c-0.893,0.995-1.329,2.347-1.314,4.055H459.19z"/>
	</g>
	<g>
		<path fill="#141618" d="M147.06,135.764c-0.03,0.183-0.091,0.363-0.151,0.547c1.212,0.666,4.818,2.879,5.697,3.483l-1.424,1.455
			c-0.909-0.788-3.364-2.517-4.909-3.576c-1.03,1.788-2.879,3.606-6.212,5.091c-0.273-0.424-0.849-1.061-1.303-1.424
			c4.031-1.576,5.667-3.667,6.333-5.576h-6.061v-1.697h6.424c0.061-0.453,0.061-0.908,0.061-1.303v-1.849h-2.758
			c-0.576,1.091-1.212,2.091-1.878,2.849c-0.364-0.303-1.061-0.758-1.485-1c1.303-1.424,2.455-3.879,3.151-6.303l2.303,0.605
			c-0.091,0.211-0.273,0.303-0.606,0.271c-0.182,0.605-0.424,1.243-0.667,1.85h8.516v1.728h-4.637v1.879
			c0,0.394-0.03,0.818-0.061,1.272h5.485v1.697H147.06L147.06,135.764z M143.757,154.704v-12.638h18.273v12.576h-2.061v-1.092
			h-14.212v1.152L143.757,154.704L143.757,154.704z M159.97,143.794h-14.212v3.122h14.212V143.794z M145.757,151.825h14.212v-3.273
			h-14.212V151.825z M154.182,129.157h11v11.546h-2v-1.333h-7.061v1.454h-1.939V129.157z M156.121,137.552h7.061v-6.546h-7.061
			V137.552z"/>
		<path fill="#141618" d="M201.023,139.794v-4.303c-0.394,0.515-0.818,1-1.303,1.483c-0.303-0.394-0.849-0.908-1.273-1.15
			c1.758-1.637,2.879-3.818,3.515-5.576l0.485,0.061v-0.545h-3.606v-1.455h3.606v-1.757l2.333,0.151
			c-0.03,0.182-0.182,0.333-0.576,0.395v1.211h3.515v-1.757l2.364,0.151c-0.03,0.182-0.182,0.333-0.576,0.395v1.211h3.606v1.455
			h-3.606v1.454h-1.788v-1.454h-3.515v1.454h-0.758c-0.091,0.214-0.182,0.455-0.303,0.697h7.697l0.394-0.03l0.97,0.121
			c0,0.182-0.03,0.364-0.03,0.576c-0.272,4.97-0.545,6.758-1.151,7.455c-0.545,0.636-1.303,0.666-2.182,0.666
			c-0.636,0-1.485-0.03-2.333-0.061c-0.03-0.425-0.212-1.062-0.424-1.484c1.151,0.121,2.212,0.15,2.606,0.15
			c0.424,0,0.667-0.029,0.849-0.271c0.394-0.425,0.606-1.909,0.818-5.788h-7.879c-0.212,0.394-0.455,0.817-0.727,1.212h6.212v4.303
			h-5.424v1.03H201.023L201.023,139.794z M213.63,146.732v2.062h12.879v1.575H213.63v2.121c0,1.122-0.303,1.637-1.182,1.938
			c-0.909,0.243-2.455,0.273-4.97,0.273c-0.122-0.516-0.424-1.213-0.697-1.697c1.939,0.03,3.697,0.03,4.182,0.03
			c0.485-0.03,0.636-0.151,0.636-0.576v-2.091H198.69v-1.575h12.91v-2.062h-10.606v-1.545H211.6v-1.939
			c-2.727,0.15-5.545,0.242-8.122,0.242c-0.03-0.395-0.242-1.03-0.424-1.395c5.909-0.091,13.212-0.484,17.061-1.183l1.394,1.425
			c-0.061,0.03-0.122,0.061-0.243,0.061c-0.061,0-0.182-0.029-0.303-0.061c-1.879,0.333-4.485,0.605-7.334,0.788v2.062h10.819v1.545
			H213.63L213.63,146.732z M206.418,135.673h-3.879v1.879h3.879V135.673z M226.6,131.582h-2.121c-0.758,2.061-2,3.788-3.606,5.15
			c1.667,1.213,3.637,2.092,5.879,2.606c-0.424,0.363-0.939,1.121-1.182,1.638c-2.364-0.638-4.424-1.697-6.152-3.123
			c-1.818,1.244-3.97,2.151-6.364,2.789c-0.182-0.425-0.667-1.121-1.03-1.484c2.303-0.546,4.364-1.364,6.091-2.516
			c-1-1.03-1.849-2.242-2.546-3.547c-0.636,0.939-1.333,1.758-2.061,2.455c-0.303-0.303-0.939-0.879-1.364-1.15
			c1.909-1.788,3.637-4.818,4.606-7.939l2.273,0.637c-0.061,0.211-0.273,0.334-0.637,0.303c-0.303,0.879-0.636,1.728-1.03,2.576
			h9.243L226.6,131.582L226.6,131.582z M216.63,131.582c0.667,1.516,1.636,2.879,2.878,4.03c1.273-1.091,2.273-2.425,2.94-4.03
			H216.63z"/>
		<path fill="#141618" d="M273.412,151.704h12.729v2h-27.396v-2h12.575v-8.122h-9.242v-1.97h9.242v-7h-7.424
			c-1.062,2.182-2.305,4.15-3.638,5.605c-0.394-0.364-1.182-0.938-1.696-1.243c2.484-2.636,4.637-7.242,5.879-11.879l2.637,0.729
			c-0.092,0.212-0.303,0.333-0.697,0.333c-0.454,1.485-0.97,3-1.574,4.455h6.516v-6.062l2.727,0.151
			c-0.029,0.212-0.212,0.362-0.636,0.424v5.485h11.303v2h-11.303v7h10.183v1.97h-10.183L273.412,151.704L273.412,151.704z"/>
		<path fill="#141618" d="M328.497,141.764l-3.667,1.305v9.15c0,2.182-1,2.516-5.03,2.455c-0.091-0.484-0.395-1.334-0.667-1.879
			c1.425,0.03,2.729,0.03,3.121,0.03c0.396-0.03,0.576-0.151,0.576-0.576v-8.455c-1.424,0.485-2.729,0.938-3.758,1.272
			c0,0.242-0.151,0.425-0.363,0.484l-0.849-2.394c1.362-0.364,3.091-0.88,4.97-1.455v-7.121h-4.606v-1.909h4.606v-6.121l2.605,0.151
			c-0.029,0.241-0.182,0.362-0.605,0.424v5.546h3.485v1.909h-3.485v6.485l3.395-1.062L328.497,141.764z M343.285,138.824
			l1.333,0.605c-0.062,0.151-0.183,0.242-0.272,0.333c-1.212,3.729-3.242,6.759-5.788,9.152c2.214,1.817,4.88,3.212,7.939,4.03
			c-0.424,0.424-1.03,1.212-1.333,1.758c-3.151-0.971-5.879-2.485-8.151-4.485c-2.667,2.062-5.788,3.576-9.03,4.517
			c-0.213-0.517-0.728-1.364-1.121-1.818c3.091-0.788,6.121-2.15,8.696-4.121c-1.97-2.092-3.516-4.605-4.605-7.546l1.425-0.455
			h-3.121v-1.879h6.818v-5.394h-7.305v-1.939h7.305v-5.061l2.636,0.182c-0.03,0.212-0.182,0.363-0.605,0.424v4.455h7.818v1.939
			h-7.818v5.394h4.818L343.285,138.824z M332.8,140.794c1,2.576,2.425,4.849,4.273,6.758c2.029-1.849,3.696-4.091,4.758-6.758H332.8
			z"/>
		<path fill="#141618" d="M393.765,145.098c0.728,1.424,1.696,2.666,2.878,3.729c1.971-0.939,4.396-2.334,5.85-3.395l1.817,1.332
			c-0.12,0.152-0.394,0.213-0.666,0.152c-1.484,0.909-3.787,2.091-5.696,2.97c2.182,1.575,4.909,2.636,8.121,3.212
			c-0.425,0.395-0.909,1.151-1.183,1.668c-6.242-1.305-10.667-4.455-13-9.517c-1.243,0.97-2.788,1.879-4.455,2.697l0.454,0.091
			c-0.029,0.182-0.212,0.333-0.604,0.363v3.697c2.362-0.242,4.97-0.547,7.516-0.85l0.062,1.576
			c-4.214,0.574-8.667,1.121-11.455,1.454c-0.03,0.241-0.183,0.395-0.396,0.454l-0.909-2.09l3.214-0.334v-3.455
			c-2.092,0.849-4.305,1.545-6.335,2c-0.241-0.455-0.758-1.183-1.182-1.545c3.939-0.759,8.516-2.304,11.546-4.213H378.28V143.4
			h12.575v-2.272l2.667,0.183c-0.03,0.211-0.213,0.362-0.605,0.424v1.666h12.728v1.697H393.765z M385.128,135.552v-1.728h-6.971
			v-1.545h6.971v-2.031H381.4c-0.396,0.729-0.788,1.395-1.183,1.939c-0.334-0.213-0.938-0.545-1.395-0.728
			c0.909-1.183,1.728-3.03,2.271-4.817l2.031,0.635c-0.092,0.214-0.304,0.273-0.576,0.244c-0.15,0.394-0.303,0.816-0.484,1.241
			h3.062v-2.241l2.363,0.15c-0.03,0.212-0.183,0.363-0.576,0.424v1.667h5.576v1.484h-5.576v2.03h6.758v1.546h-6.758v1.728h5.758
			v3.818c0,1.697-0.938,1.728-3.636,1.728c-0.091-0.454-0.396-1-0.576-1.395h1.637c0.696,0,0.758,0,0.758-0.333v-2.395h-3.939v5.092
			h-1.787v-5.092H381.4v4.272h-1.667v-5.697h5.395V135.552z M397.765,128.098c-0.029,0.182-0.183,0.334-0.575,0.395v10.271h-1.88
			v-10.849L397.765,128.098z M404.977,126.977c-0.029,0.211-0.182,0.362-0.575,0.424v12.213c0,2.061-0.575,2.242-5.484,2.242
			c-0.091-0.516-0.395-1.242-0.667-1.728c1,0.03,1.939,0.062,2.637,0.062c1.454,0,1.638,0,1.638-0.576v-12.758L404.977,126.977z"/>
		<path fill="#141618" d="M465.304,147.461h-10.576c2.759,2.305,7.121,4.213,11.183,5.061c-0.454,0.396-1,1.123-1.272,1.638
			c-4.363-1.121-9.121-3.546-11.97-6.455v7.001h-2v-7.031c-2.939,2.879-7.728,5.395-11.88,6.606
			c-0.272-0.484-0.849-1.183-1.272-1.575c3.818-0.971,8.121-2.939,10.939-5.243h-10.303v-1.788h12.516v-2.242l2.605,0.183
			c-0.03,0.182-0.213,0.334-0.605,0.395v1.666h12.637L465.304,147.461L465.304,147.461z M437.969,142.37l1.638-0.091
			c0.546-0.697,1.15-1.547,1.758-2.426c-0.788-1.091-2.121-2.483-3.304-3.545l0.908-1.061c0.305,0.271,0.637,0.545,0.971,0.816
			c0.758-1.241,1.605-2.908,2.092-4.09l1.909,0.817c-0.122,0.183-0.305,0.242-0.606,0.242c-0.606,1.121-1.576,2.817-2.425,3.97
			c0.516,0.546,0.97,1.061,1.304,1.516c0.729-1.15,1.395-2.303,1.879-3.242l1.85,0.817c-0.092,0.152-0.305,0.243-0.606,0.243
			c-1,1.666-2.576,4.03-3.97,5.85c1.029-0.062,2.15-0.151,3.303-0.244c-0.271-0.604-0.575-1.211-0.909-1.756l1.304-0.485
			c0.85,1.304,1.605,3.061,1.88,4.213l-1.396,0.515c-0.091-0.333-0.182-0.728-0.333-1.121c-2.364,0.242-4.667,0.454-6.182,0.606
			c-0.062,0.242-0.213,0.362-0.425,0.394L437.969,142.37z M445.394,132.885v-2.061h-7.271v-1.788h7.271v-2.484l2.638,0.151
			c-0.03,0.212-0.212,0.363-0.606,0.424v1.909h8.485v-2.484l2.637,0.151c-0.03,0.242-0.213,0.363-0.605,0.424v1.909h7.484v1.788
			h-7.484v2.061h-2.03v-2.061h-8.485v2.061H445.394z M450.151,133.854c0.333-0.849,0.637-1.908,0.817-2.637l2.304,0.606
			c-0.092,0.182-0.272,0.303-0.605,0.303c-0.183,0.485-0.455,1.122-0.697,1.728h4.333v9.547h-9.242v-9.547H450.151z
			 M454.454,137.885V135.4h-5.605v2.483L454.454,137.885L454.454,137.885z M454.454,141.854v-2.515h-5.605v2.515H454.454z
			 M456.546,142.37l1.515-0.091c0.606-0.697,1.242-1.517,1.88-2.396c-0.818-1.121-2.183-2.483-3.395-3.515l0.97-1.121
			c0.304,0.242,0.637,0.545,0.971,0.816c0.787-1.241,1.666-2.848,2.182-4.029l1.909,0.849c-0.091,0.183-0.304,0.242-0.606,0.242
			c-0.604,1.122-1.604,2.728-2.483,3.879c0.515,0.546,1,1.062,1.394,1.546c0.788-1.15,1.517-2.333,2.03-3.303l1.909,0.848
			c-0.092,0.184-0.304,0.243-0.606,0.243c-1.091,1.696-2.787,4.03-4.303,5.818l3.576-0.214c-0.305-0.635-0.667-1.271-1.03-1.816
			l1.303-0.605c0.939,1.332,1.758,3.121,2.121,4.332l-1.424,0.668c-0.091-0.363-0.212-0.789-0.395-1.242l-6.363,0.637
			c-0.03,0.212-0.183,0.363-0.396,0.395L456.546,142.37z"/>
	</g>
	<line fill="none" stroke="#91CD47" stroke-width="3" x1="35.667" y1="87.048" x2="110.333" y2="87.048"/>
	<line fill="none" stroke="#91CD47" stroke-width="3" x1="59.75" y1="150.518" x2="112.548" y2="97.72"/>
	<line fill="none" stroke="#91CD47" stroke-width="3" x1="59.75" y1="23.579" x2="112.548" y2="76.376"/>
</g>
</svg>
