<?xml version="1.0" encoding="utf-8"?>
<!-- Generator: Adobe Illustrator 24.0.2, SVG Export Plug-In . SVG Version: 6.00 Build 0)  -->
<svg version="1.1" id="Layer_1" xmlns="http://www.w3.org/2000/svg" xmlns:xlink="http://www.w3.org/1999/xlink" x="0px" y="0px" viewBox="0 0 806.3 207" enable-background="new 0 0 806.3 207" xml:space="preserve">
  <g>
    <polygon fill="#558ED5" points="39.8,0 119.5,0 159.3,69 119.5,138 39.8,138 0,69 	" />
    <text transform="matrix(1 0 0 1 43.6743 83.9985)" font-family="'MicrosoftJhengHeiRegular'" font-size="18px">議題收集</text>
    <text transform="matrix(1 0 0 1 72.2744 53.9995)" fill="#FFFFFF" font-family="'PlayfairDisplay-Regular'" font-size="40px">1</text>
  </g>
  <g>
    <polygon fill="#8EB4E3" points="169.2,69 248.9,69 288.7,138 248.9,207 169.2,207 129.4,138 	" />
    <text transform="matrix(1 0 0 1 146.0743 152.9976)" font-family="'MicrosoftJhengHeiRegular'" font-size="18px">利害關係人鑑別</text>
    <text transform="matrix(1 0 0 1 199.4947 122.9976)" fill="#FFFFFF" font-family="'PlayfairDisplay-Regular'" font-size="40px">2</text>
  </g>
  <g>
    <polygon fill="#93CDDD" points="298.6,0 378.3,0 418.1,69 378.3,138 298.6,138 258.8,69 	" />
    <text transform="matrix(1 0 0 1 293.4743 83.9976)" font-family="'MicrosoftJhengHeiRegular'" font-size="18px">考量面邊界</text>
    <text transform="matrix(1 0 0 1 329.4543 53.9976)" fill="#FFFFFF" font-family="'PlayfairDisplay-Regular'" font-size="40px">3</text>
  </g>
  <g>
    <polygon fill="#558ED5" points="428,69 507.7,69 547.5,138 507.7,207 428,207 388.2,138 	" />
    <text transform="matrix(1 0 0 1 422.8743 153.0005)" font-family="'MicrosoftJhengHeiRegular'" font-size="18px">回應與責任</text>
    <text transform="matrix(1 0 0 1 457.9944 123.0005)" fill="#FFFFFF" font-family="'PlayfairDisplay-Regular'" font-size="40px">4</text>
  </g>
  <g>
    <polygon fill="#8EB4E3" points="557.4,0 637.1,0 676.9,69 637.1,138 557.4,138 517.6,69 	" />
    <text transform="matrix(1 0 0 1 552.2744 83.9976)" font-family="'MicrosoftJhengHeiRegular'" font-size="18px">回饋與檢討</text>
    <text transform="matrix(1 0 0 1 588.975 53.9976)" fill="#FFFFFF" font-family="'PlayfairDisplay-Regular'" font-size="40px">5</text>
  </g>
  <g>
    <polygon fill="#93CDDD" points="686.8,69 766.5,69 806.3,138 766.5,207 686.8,207 647,138 	" />
    <text transform="matrix(1 0 0 1 706.4243 152.9976)" font-family="'MicrosoftJhengHeiRegular'" font-size="18px">改 善</text>
    <text transform="matrix(1 0 0 1 716.3345 122.9976)" fill="#FFFFFF" font-family="'PlayfairDisplay-Regular'" font-size="40px">6</text>
  </g>
  <g>
    <g>
      <path fill="none" stroke="#A6A6A6" stroke-width="5" stroke-linecap="round" stroke-miterlimit="10" d="M79.7,148.5
			c11.2,34.6,35.3,39.1,51.8,37.5" />
      <g>
        <polygon fill="#A6A6A6" points="148.7,182 126.5,197.2 130.1,186 122.2,177.3 			" />
      </g>
    </g>
  </g>
  <g>
    <g>
      <path fill="none" stroke="#A6A6A6" stroke-width="5" stroke-linecap="round" stroke-miterlimit="10" d="M334.4,148.5
			c11.2,34.6,35.3,39.1,51.8,37.5" />
      <g>
        <polygon fill="#A6A6A6" points="403.4,182 381.2,197.2 384.9,186 376.9,177.3 			" />
      </g>
    </g>
  </g>
  <g>
    <g>
      <path fill="none" stroke="#A6A6A6" stroke-width="5" stroke-linecap="round" stroke-miterlimit="10" d="M597.4,148.5
			c11.2,34.6,35.3,39.1,51.8,37.5" />
      <g>
        <polygon fill="#A6A6A6" points="666.4,182 644.2,197.2 647.9,186 639.9,177.3 			" />
      </g>
    </g>
  </g>
  <g>
    <g>
      <path fill="none" stroke="#A6A6A6" stroke-width="5" stroke-linecap="round" stroke-miterlimit="10" d="M204.7,60.3
			c11.2-34.6,35.3-39.1,51.8-37.5" />
      <g>
        <polygon fill="#A6A6A6" points="273.7,26.8 247.2,31.5 255.1,22.8 251.5,11.6 			" />
      </g>
    </g>
  </g>
  <g>
    <g>
      <path fill="none" stroke="#A6A6A6" stroke-width="5" stroke-linecap="round" stroke-miterlimit="10" d="M459.4,60.3
			c11.2-34.6,35.3-39.1,51.8-37.5" />
      <g>
        <polygon fill="#A6A6A6" points="528.4,26.8 501.9,31.5 509.9,22.8 506.2,11.6 			" />
      </g>
    </g>
  </g>
</svg>