<?xml version="1.0" encoding="utf-8"?>
<!-- Generator: Adobe Illustrator 24.3.0, SVG Export Plug-In . SVG Version: 6.00 Build 0)  -->
<svg version="1.1" id="Layer_1" xmlns="http://www.w3.org/2000/svg" xmlns:xlink="http://www.w3.org/1999/xlink" x="0px" y="0px"
	 viewBox="0 0 512 512" enable-background="new 0 0 512 512" xml:space="preserve">
<g>
	<path fill="#474A56" d="M261.1,6c-13.3,0-24,10.8-24,24v78.1c0,13.2,10.8,24,24,24c13.3,0,24-10.8,24-24V30
		C285.2,16.8,274.4,6,261.1,6z"/>
	<path fill="#474A56" d="M261.1,400.5c-7.6,0-13.7,6.1-13.7,13.7v78.1c0,7.6,6.1,13.7,13.7,13.7c7.6,0,13.7-6.1,13.7-13.7v-78.1
		C274.9,406.6,268.7,400.5,261.1,400.5z"/>
	<path fill="#474A56" d="M492.3,252.6h-78.1c-4.7,0-8.6,3.8-8.6,8.6c0,4.7,3.8,8.6,8.6,8.6h78.1c4.7,0,8.6-3.8,8.6-8.6
		C500.9,256.4,497,252.6,492.3,252.6z"/>
	<path fill="#474A56" d="M126.9,261.1c0-10.4-8.4-18.9-18.9-18.9H30c-10.4,0-18.9,8.4-18.9,18.9c0,10.4,8.4,18.9,18.9,18.9h78.1
		C118.5,280,126.9,271.6,126.9,261.1z"/>
	<path fill="#474A56" d="M164.9,49.8c-6.2-10.7-19.8-14.3-30.4-8.2c-10.7,6.2-14.3,19.8-8.2,30.4l39,67.6
		c4.1,7.1,11.6,11.2,19.3,11.2c3.8,0,7.6-1,11.1-3c10.7-6.1,14.3-19.8,8.2-30.4L164.9,49.8z"/>
	<path fill="#474A56" d="M348.1,387.7c-3.3-5.7-10.7-7.7-16.4-4.4c-5.7,3.3-7.7,10.7-4.4,16.4l39,67.6c2.2,3.8,6.3,6,10.4,6
		c2,0,4.1-0.5,6-1.6c5.7-3.3,7.7-10.7,4.4-16.4L348.1,387.7z"/>
	<path fill="#474A56" d="M50.7,163.4l67.6,39c3.2,1.9,6.8,2.8,10.3,2.8c7.1,0,14-3.7,17.8-10.3c5.7-9.8,2.3-22.4-7.5-28.1l-67.6-39
		c-9.8-5.7-22.4-2.3-28.1,7.5C37.5,145.1,40.9,157.7,50.7,163.4z"/>
	<path fill="#474A56" d="M466.5,367.8l-67.6-39c-4.9-2.8-11.2-1.1-14.1,3.8c-2.8,4.9-1.2,11.2,3.8,14.1l67.6,39
		c1.6,1,3.4,1.4,5.1,1.4c3.6,0,7-1.9,8.9-5.1C473.1,376.9,471.4,370.7,466.5,367.8z"/>
	<path fill="#474A56" d="M393.7,191.5c1.2,0,2.3-0.3,3.4-0.9l67.6-39c3.3-1.9,4.4-6.1,2.5-9.4c-1.9-3.3-6.1-4.4-9.4-2.5l-67.6,39
		c-3.3,1.9-4.4,6.1-2.5,9.4C389,190.2,391.3,191.5,393.7,191.5z"/>
	<path fill="#474A56" d="M143.4,329.1c-4.7-8.2-15.2-11-23.4-6.3l-67.6,39c-8.2,4.7-11,15.2-6.3,23.4c3.2,5.5,8.9,8.6,14.9,8.6
		c2.9,0,5.9-0.7,8.6-2.3l67.6-39C145.4,347.8,148.2,337.3,143.4,329.1z"/>
	<path fill="#474A56" d="M335.1,133.1c0.8,0.5,1.7,0.7,2.6,0.7c1.8,0,3.5-0.9,4.5-2.6l39-67.6c1.4-2.5,0.6-5.6-1.9-7
		c-2.5-1.4-5.6-0.6-7,1.9l-39,67.6C331.8,128.5,332.6,131.6,335.1,133.1z"/>
	<path fill="#474A56" d="M192.3,380.3c-7.4-4.3-16.8-1.7-21.1,5.6l-39,67.6c-4.3,7.4-1.7,16.8,5.6,21.1c2.4,1.4,5.1,2.1,7.7,2.1
		c5.3,0,10.5-2.8,13.4-7.7l39-67.6C202.2,394.1,199.7,384.6,192.3,380.3z"/>
</g>
</svg>
