<svg version="1.1" xmlns="http://www.w3.org/2000/svg" xmlns:xlink="http://www.w3.org/1999/xlink" x="0px" y="0px" viewBox="0 0 2175 2175" enable-background="new 0 0 2175 2175" xml:space="preserve">

  <path fill="none" stroke="#EFEFEF" stroke-width="19" stroke-miterlimit="10" d="M1937.5,1076.648c0,469.442-380.561,850-850,850
  
      c-469.441,0-850-380.558-850-850s380.559-850,850-850C1556.939,226.648,1937.5,607.206,1937.5,1076.648z" style="stroke-dasharray: 5341.46, 5341.46; stroke-dashoffset: 0;"></path>


  <g class="svg_circles">

    <path fill="#FFFFFF" stroke="#9083BA" stroke-width="14" stroke-linecap="round" stroke-miterlimit="10" d="M1337.5,262.5
  
      c0,138.072-111.928,250-250,250c-138.071,0-250-111.928-250-250c0-138.07,111.929-250,250-250
  
      C1225.572,12.5,1337.5,124.43,1337.5,262.5z" style="stroke-dasharray: 1571.02, 1571.02; stroke-dashoffset: 0;"></path>
    <text transform="matrix(1 0 0 1 1087.5 248.1375)">
      <tspan x="0" y="0">專案</tspan>
      <tspan x="0" dy="1.2em">評估與授權</tspan>
    </text>

    <path fill="#FFFFFF" stroke="#7062A9" stroke-width="14" stroke-linecap="round" stroke-miterlimit="10" d="M1934.247,490.753
  
      c0,138.072-111.93,250-250.001,250c-138.069,0-249.999-111.928-249.999-250c0-138.07,111.93-250,249.999-250
  
      C1822.317,240.753,1934.247,352.683,1934.247,490.753z" style="stroke-dasharray: 1571.02, 1571.02; stroke-dashoffset: 0;"></path>

    <text transform="matrix(1 0 0 1 1680.21 478.5801)">
      <tspan x="0" y="0">癌症市場</tspan>
      <tspan x="0" dy="1.2em" font-family="Arimo-Bold">SWOT 分析</tspan>
    </text>

    <path fill="#FFFFFF" stroke="#E49A6D" stroke-width="14" stroke-linecap="round" stroke-miterlimit="10" d="M2162.5,1087.5
  
      c0,138.072-111.93,250-250.001,250c-138.069,0-249.999-111.928-249.999-250c0-138.07,111.93-250,249.999-250
  
      C2050.57,837.5,2162.5,949.43,2162.5,1087.5z" style="stroke-dasharray: 1571.02, 1571.02; stroke-dashoffset: 0;"></path>

    <text transform="matrix(1 0 0 1 1904.501 1083.4136)">
      <tspan x="0" y="0">新藥開發策略</tspan>
      <tspan x="0" dy="1.2em">與執行</tspan>
    </text>

    <path fill="#FFFFFF" stroke="#E6815A" stroke-width="14" stroke-linecap="round" stroke-miterlimit="10" d="M1934.247,1684.245
  
      c0,138.072-111.93,250-250.001,250c-138.069,0-249.999-111.928-249.999-250c0-138.07,111.93-250,249.999-250
  
      C1822.317,1434.245,1934.247,1546.175,1934.247,1684.245z" style="stroke-dasharray: 1571.02, 1571.02; stroke-dashoffset: 0;"></path>

    <text transform="matrix(1 0 0 1 1682.2471 1648.3223)">
      <tspan x="0" y="0">製程開發</tspan>
      <tspan x="0" dy="1.2em">與</tspan>
      <tspan x="0" dy="1.2em">量產設計</tspan>
    </text>

    <path fill="#FFFFFF" stroke="#AACA4D" stroke-width="14" stroke-linecap="round" stroke-miterlimit="10" d="M1337.5,1912.5
  
      c0,138.072-111.928,250-250,250c-138.071,0-250-111.928-250-250c0-138.07,111.929-250,250-250
  
      C1225.572,1662.5,1337.5,1774.43,1337.5,1912.5z" style="stroke-dasharray: 1571.02, 1571.02; stroke-dashoffset: 0;"></path>

    <text transform="matrix(1 0 0 1 1078.4648 1848.1416)">
      <tspan x="0" y="0">國際級</tspan>
      <tspan x="0" dy="1.2em">癌症專家</tspan>
      <tspan x="0" dy="1.2em">組成的顧問群</tspan>
    </text>

    <path fill="#FFFFFF" stroke="#96BD20" stroke-width="14" stroke-linecap="round" stroke-miterlimit="10" d="M740.752,1684.247
  
      c0,138.072-111.929,250-250.001,250c-138.07,0-249.999-111.928-249.999-250c0-138.07,111.929-250,249.999-250
  
      C628.823,1434.247,740.752,1546.177,740.752,1684.247z" style="stroke-dasharray: 1571.02, 1571.02; stroke-dashoffset: 0;"></path>

    <text transform="matrix(1 0 0 1 478.7529 1675.9229)">
      <tspan x="0" y="0">臨床試驗</tspan>
      <tspan x="0" dy="1.2em">設計與執行</tspan>
    </text>

    <path fill="#FFFFFF" stroke="#6EB1E2" stroke-width="14" stroke-linecap="round" stroke-miterlimit="10" d="M512.5,1087.5
  
      c0,138.071-111.928,250-250,250c-138.071,0-250-111.929-250-250c0-138.07,111.929-250,250-250
  
      C400.571,837.5,512.5,949.43,512.5,1087.5z" style="stroke-dasharray: 1571.02, 1571.02; stroke-dashoffset: 0;"></path>

    <text transform="matrix(1 0 0 1 256.4995 1083.4131)">
      <tspan x="0" y="0">遵從</tspan>
      <tspan x="0" dy="1.2em">國際法規</tspan>
    </text>

    <path fill="#FFFFFF" stroke="#499ACD" stroke-width="14" stroke-linecap="round" stroke-miterlimit="10" d="M740.752,490.753
  
      c0,138.072-111.929,250-250.001,250c-138.07,0-249.999-111.928-249.999-250c0-138.07,111.929-250,249.999-250
  
      C628.823,240.753,740.752,352.683,740.752,490.753z" style="stroke-dasharray: 1571.02, 1571.02; stroke-dashoffset: 0;"></path>

    <text transform="matrix(1 0 0 1 478.7524 451.957)">
      <tspan x="0" y="0">財務規劃</tspan>
      <tspan x="0" dy="1.2em">與</tspan>
      <tspan x="0" dy="1.2em">風險管理</tspan>
    </text>

    <text transform="matrix(1 0 0 1 1085.5 1109.156)" class="companyName">智擎</text>
  </g>
</svg>